<svg width="718" height="368" viewBox="0 0 718 368" fill="none" xmlns="http://www.w3.org/2000/svg">
<rect x="0.5" y="0.5" width="717" height="367" rx="15.5" fill="white"/>
<rect x="0.5" y="0.5" width="717" height="367" rx="15.5" stroke="#E6ECF4"/>
<path d="M25.4347 30.4545H28.6591L32.9773 40.9943H33.1477L37.4659 30.4545H40.6903V45H38.1619V35.0071H38.027L34.0071 44.9574H32.1179L28.098 34.9858H27.9631V45H25.4347V30.4545ZM48.2045 45.2131C47.1392 45.2131 46.2159 44.9787 45.4347 44.5099C44.6534 44.0412 44.0473 43.3854 43.6165 42.5426C43.1903 41.6998 42.9773 40.715 42.9773 39.5881C42.9773 38.4612 43.1903 37.474 43.6165 36.6264C44.0473 35.7789 44.6534 35.1207 45.4347 34.652C46.2159 34.1832 47.1392 33.9489 48.2045 33.9489C49.2699 33.9489 50.1932 34.1832 50.9744 34.652C51.7557 35.1207 52.3594 35.7789 52.7855 36.6264C53.2164 37.474 53.4318 38.4612 53.4318 39.5881C53.4318 40.715 53.2164 41.6998 52.7855 42.5426C52.3594 43.3854 51.7557 44.0412 50.9744 44.5099C50.1932 44.9787 49.2699 45.2131 48.2045 45.2131ZM48.2188 43.1534C48.7964 43.1534 49.2794 42.9948 49.6676 42.6776C50.0559 42.3556 50.3447 41.9247 50.5341 41.3849C50.7282 40.8452 50.8253 40.2438 50.8253 39.581C50.8253 38.9134 50.7282 38.3097 50.5341 37.7699C50.3447 37.2254 50.0559 36.7921 49.6676 36.4702C49.2794 36.1482 48.7964 35.9872 48.2188 35.9872C47.6269 35.9872 47.1345 36.1482 46.7415 36.4702C46.3532 36.7921 46.062 37.2254 45.8679 37.7699C45.6785 38.3097 45.5838 38.9134 45.5838 39.581C45.5838 40.2438 45.6785 40.8452 45.8679 41.3849C46.062 41.9247 46.3532 42.3556 46.7415 42.6776C47.1345 42.9948 47.6269 43.1534 48.2188 43.1534ZM58.185 38.608V45H55.614V34.0909H58.0714V35.9446H58.1992C58.4502 35.3338 58.8503 34.8485 59.3995 34.4886C59.9535 34.1288 60.6377 33.9489 61.4521 33.9489C62.2049 33.9489 62.8607 34.1098 63.4194 34.4318C63.9828 34.7538 64.4184 35.2202 64.7262 35.831C65.0387 36.4418 65.1926 37.1828 65.1879 38.054V45H62.6168V38.4517C62.6168 37.7225 62.4274 37.152 62.0487 36.7401C61.6746 36.3281 61.1561 36.1222 60.4933 36.1222C60.0434 36.1222 59.6433 36.2216 59.293 36.4205C58.9473 36.6146 58.6751 36.8963 58.4762 37.2656C58.2821 37.6349 58.185 38.0824 58.185 38.608ZM73.2489 34.0909V36.0795H66.9776V34.0909H73.2489ZM68.5259 31.4773H71.0969V41.7188C71.0969 42.0644 71.149 42.3295 71.2532 42.5142C71.3621 42.6941 71.5041 42.8172 71.6793 42.8835C71.8545 42.9498 72.0487 42.983 72.2617 42.983C72.4227 42.983 72.5695 42.9711 72.7021 42.9474C72.8394 42.9238 72.9435 42.9025 73.0146 42.8835L73.4478 44.8935C73.3105 44.9408 73.114 44.9929 72.8583 45.0497C72.6074 45.1065 72.2996 45.1397 71.935 45.1491C71.2911 45.1681 70.7111 45.071 70.195 44.858C69.6789 44.6402 69.2693 44.304 68.9663 43.8494C68.668 43.3949 68.5212 42.8267 68.5259 42.1449V31.4773ZM78.2045 38.608V45H75.6335V30.4545H78.1477V35.9446H78.2756C78.5313 35.3291 78.9266 34.8437 79.4616 34.4886C80.0014 34.1288 80.688 33.9489 81.5213 33.9489C82.2789 33.9489 82.9394 34.1075 83.5028 34.4247C84.0663 34.742 84.5019 35.206 84.8097 35.8168C85.1222 36.4276 85.2784 37.1733 85.2784 38.054V45H82.7074V38.4517C82.7074 37.7178 82.518 37.1473 82.1392 36.7401C81.7652 36.3281 81.2396 36.1222 80.5625 36.1222C80.108 36.1222 79.7008 36.2216 79.3409 36.4205C78.9858 36.6146 78.7064 36.8963 78.5028 37.2656C78.304 37.6349 78.2045 38.0824 78.2045 38.608ZM90.4702 30.4545V45H87.8991V30.4545H90.4702ZM94.712 49.0909C94.3616 49.0909 94.0373 49.0625 93.739 49.0057C93.4454 48.9536 93.2111 48.892 93.0359 48.821L93.6325 46.8182C94.0065 46.9271 94.3403 46.9792 94.6339 46.9744C94.9274 46.9697 95.1855 46.8774 95.408 46.6974C95.6353 46.5223 95.8271 46.2287 95.9833 45.8168L96.2035 45.2273L92.2475 34.0909H94.9748L97.489 42.3295H97.6026L100.124 34.0909H102.858L98.4904 46.321C98.2868 46.8987 98.0169 47.3935 97.6808 47.8054C97.3446 48.2221 96.9326 48.5393 96.445 48.7571C95.962 48.9796 95.3844 49.0909 94.712 49.0909ZM122.162 35.3622H119.506C119.43 34.9266 119.291 34.5407 119.087 34.2045C118.883 33.8636 118.63 33.5748 118.327 33.3381C118.024 33.1013 117.678 32.9238 117.29 32.8054C116.907 32.6823 116.492 32.6207 116.047 32.6207C115.257 32.6207 114.556 32.8196 113.945 33.2173C113.334 33.6103 112.856 34.188 112.51 34.9503C112.165 35.7079 111.992 36.6335 111.992 37.7273C111.992 38.84 112.165 39.7775 112.51 40.5398C112.861 41.2973 113.339 41.8703 113.945 42.2585C114.556 42.642 115.254 42.8338 116.04 42.8338C116.476 42.8338 116.883 42.777 117.262 42.6634C117.645 42.545 117.989 42.3722 118.292 42.1449C118.599 41.9176 118.857 41.6383 119.066 41.3068C119.279 40.9754 119.426 40.5966 119.506 40.1705L122.162 40.1847C122.063 40.8759 121.847 41.5246 121.516 42.1307C121.189 42.7367 120.761 43.2718 120.23 43.7358C119.7 44.1951 119.08 44.5549 118.37 44.8153C117.659 45.071 116.871 45.1989 116.005 45.1989C114.726 45.1989 113.585 44.9029 112.581 44.3111C111.578 43.7192 110.787 42.8646 110.209 41.7472C109.632 40.6297 109.343 39.2898 109.343 37.7273C109.343 36.16 109.634 34.8201 110.216 33.7074C110.799 32.59 111.592 31.7353 112.596 31.1435C113.599 30.5516 114.736 30.2557 116.005 30.2557C116.814 30.2557 117.567 30.3693 118.263 30.5966C118.959 30.8239 119.579 31.1577 120.124 31.598C120.668 32.0336 121.116 32.5687 121.466 33.2031C121.821 33.8329 122.053 34.5526 122.162 35.3622ZM127.601 45.2202C126.91 45.2202 126.287 45.0971 125.733 44.8509C125.184 44.5999 124.748 44.2306 124.426 43.7429C124.109 43.2552 123.95 42.6539 123.95 41.9389C123.95 41.3234 124.064 40.8144 124.291 40.4119C124.518 40.0095 124.829 39.6875 125.222 39.446C125.615 39.2045 126.057 39.0223 126.55 38.8991C127.047 38.7713 127.561 38.679 128.091 38.6222C128.73 38.5559 129.249 38.4967 129.646 38.4446C130.044 38.3878 130.333 38.3026 130.513 38.1889C130.697 38.0705 130.79 37.8883 130.79 37.642V37.5994C130.79 37.0644 130.631 36.6501 130.314 36.3565C129.997 36.063 129.54 35.9162 128.943 35.9162C128.313 35.9162 127.814 36.0535 127.445 36.3281C127.08 36.6027 126.834 36.9271 126.706 37.3011L124.305 36.9602C124.495 36.2973 124.807 35.7434 125.243 35.2983C125.679 34.8485 126.211 34.5123 126.841 34.2898C127.471 34.0625 128.167 33.9489 128.929 33.9489C129.455 33.9489 129.978 34.0104 130.499 34.1335C131.019 34.2566 131.495 34.4602 131.926 34.7443C132.357 35.0237 132.703 35.4048 132.963 35.8878C133.228 36.3707 133.361 36.9744 133.361 37.6989V45H130.889V43.5014H130.804C130.648 43.8045 130.428 44.0885 130.143 44.3537C129.864 44.6141 129.511 44.8248 129.085 44.9858C128.664 45.142 128.169 45.2202 127.601 45.2202ZM128.268 43.331C128.785 43.331 129.232 43.2292 129.611 43.0256C129.99 42.8172 130.281 42.5426 130.484 42.2017C130.693 41.8608 130.797 41.4891 130.797 41.0866V39.8011C130.716 39.8674 130.579 39.929 130.385 39.9858C130.196 40.0426 129.982 40.0923 129.746 40.1349C129.509 40.1776 129.275 40.2154 129.043 40.2486C128.811 40.2817 128.609 40.3101 128.439 40.3338C128.055 40.3859 127.712 40.4711 127.409 40.5895C127.106 40.7079 126.867 40.8736 126.692 41.0866C126.517 41.295 126.429 41.5649 126.429 41.8963C126.429 42.3698 126.602 42.7273 126.947 42.9688C127.293 43.2102 127.733 43.331 128.268 43.331ZM144.568 36.9744L142.224 37.2301C142.158 36.9934 142.042 36.7708 141.876 36.5625C141.715 36.3542 141.498 36.1861 141.223 36.0582C140.948 35.9304 140.612 35.8665 140.214 35.8665C139.679 35.8665 139.23 35.9825 138.865 36.2145C138.505 36.4465 138.328 36.7472 138.332 37.1165C138.328 37.4337 138.444 37.6918 138.68 37.8906C138.922 38.0895 139.32 38.2528 139.874 38.3807L141.734 38.7784C142.767 39.0009 143.534 39.3537 144.036 39.8366C144.542 40.3196 144.798 40.9517 144.803 41.733C144.798 42.4195 144.597 43.0256 144.199 43.5511C143.806 44.072 143.259 44.4792 142.558 44.7727C141.857 45.0663 141.053 45.2131 140.143 45.2131C138.808 45.2131 137.733 44.9337 136.919 44.375C136.105 43.8116 135.619 43.0279 135.463 42.0241L137.97 41.7827C138.084 42.2751 138.325 42.6468 138.695 42.8977C139.064 43.1487 139.545 43.2741 140.136 43.2741C140.747 43.2741 141.237 43.1487 141.607 42.8977C141.981 42.6468 142.168 42.3366 142.168 41.9673C142.168 41.6548 142.047 41.3968 141.805 41.1932C141.569 40.9896 141.199 40.8333 140.697 40.7244L138.837 40.3338C137.79 40.116 137.016 39.7491 136.514 39.233C136.012 38.7121 135.764 38.054 135.768 37.2585C135.764 36.5862 135.946 36.0038 136.315 35.5114C136.689 35.0142 137.208 34.6307 137.871 34.3608C138.538 34.0862 139.308 33.9489 140.179 33.9489C141.457 33.9489 142.464 34.2211 143.197 34.7656C143.936 35.3101 144.393 36.0464 144.568 36.9744ZM151.752 45.2131C150.658 45.2131 149.714 44.9858 148.918 44.5312C148.128 44.072 147.519 43.4233 147.093 42.5852C146.667 41.7424 146.454 40.7505 146.454 39.6094C146.454 38.4872 146.667 37.5024 147.093 36.6548C147.524 35.8026 148.125 35.1397 148.897 34.6662C149.669 34.188 150.576 33.9489 151.617 33.9489C152.29 33.9489 152.924 34.0578 153.521 34.2756C154.122 34.4886 154.652 34.8201 155.112 35.2699C155.576 35.7197 155.94 36.2926 156.205 36.9886C156.47 37.6799 156.603 38.5038 156.603 39.4602V40.2486H147.661V38.5156H154.138C154.134 38.0232 154.027 37.5852 153.819 37.2017C153.611 36.8134 153.319 36.508 152.945 36.2855C152.576 36.063 152.145 35.9517 151.653 35.9517C151.127 35.9517 150.665 36.0795 150.268 36.3352C149.87 36.5862 149.56 36.9176 149.337 37.3295C149.12 37.7367 149.008 38.1842 149.004 38.6719V40.1847C149.004 40.8191 149.12 41.3636 149.352 41.8182C149.584 42.268 149.908 42.6136 150.325 42.8551C150.741 43.0919 151.229 43.2102 151.788 43.2102C152.162 43.2102 152.5 43.1581 152.803 43.054C153.106 42.9451 153.369 42.7865 153.592 42.5781C153.814 42.3698 153.982 42.1117 154.096 41.804L156.496 42.0739C156.345 42.7083 156.056 43.2623 155.63 43.7358C155.209 44.2045 154.669 44.5691 154.011 44.8295C153.353 45.0852 152.6 45.2131 151.752 45.2131ZM163.213 32.6634V30.4545H174.819V32.6634H170.323V45H167.709V32.6634H163.213ZM175.809 45V34.0909H178.302V35.9091H178.416C178.615 35.2794 178.956 34.794 179.439 34.4531C179.926 34.1075 180.483 33.9347 181.108 33.9347C181.25 33.9347 181.408 33.9418 181.583 33.956C181.763 33.9654 181.913 33.982 182.031 34.0057V36.3707C181.922 36.3329 181.749 36.2997 181.512 36.2713C181.28 36.2382 181.056 36.2216 180.838 36.2216C180.369 36.2216 179.948 36.3234 179.574 36.527C179.204 36.7259 178.913 37.0028 178.7 37.358C178.487 37.7131 178.38 38.1226 178.38 38.5866V45H175.809ZM188.119 45.2131C187.026 45.2131 186.081 44.9858 185.286 44.5312C184.495 44.072 183.886 43.4233 183.46 42.5852C183.034 41.7424 182.821 40.7505 182.821 39.6094C182.821 38.4872 183.034 37.5024 183.46 36.6548C183.891 35.8026 184.492 35.1397 185.264 34.6662C186.036 34.188 186.943 33.9489 187.984 33.9489C188.657 33.9489 189.291 34.0578 189.888 34.2756C190.489 34.4886 191.019 34.8201 191.479 35.2699C191.943 35.7197 192.307 36.2926 192.572 36.9886C192.838 37.6799 192.97 38.5038 192.97 39.4602V40.2486H184.028V38.5156H190.506C190.501 38.0232 190.394 37.5852 190.186 37.2017C189.978 36.8134 189.687 36.508 189.312 36.2855C188.943 36.063 188.512 35.9517 188.02 35.9517C187.494 35.9517 187.033 36.0795 186.635 36.3352C186.237 36.5862 185.927 36.9176 185.705 37.3295C185.487 37.7367 185.375 38.1842 185.371 38.6719V40.1847C185.371 40.8191 185.487 41.3636 185.719 41.8182C185.951 42.268 186.275 42.6136 186.692 42.8551C187.108 43.0919 187.596 43.2102 188.155 43.2102C188.529 43.2102 188.867 43.1581 189.17 43.054C189.473 42.9451 189.736 42.7865 189.959 42.5781C190.181 42.3698 190.349 42.1117 190.463 41.804L192.864 42.0739C192.712 42.7083 192.423 43.2623 191.997 43.7358C191.576 44.2045 191.036 44.5691 190.378 44.8295C189.72 45.0852 188.967 45.2131 188.119 45.2131ZM197.716 38.608V45H195.145V34.0909H197.603V35.9446H197.73C197.981 35.3338 198.382 34.8485 198.931 34.4886C199.485 34.1288 200.169 33.9489 200.983 33.9489C201.736 33.9489 202.392 34.1098 202.951 34.4318C203.514 34.7538 203.95 35.2202 204.257 35.831C204.57 36.4418 204.724 37.1828 204.719 38.054V45H202.148V38.4517C202.148 37.7225 201.959 37.152 201.58 36.7401C201.206 36.3281 200.687 36.1222 200.025 36.1222C199.575 36.1222 199.175 36.2216 198.824 36.4205C198.479 36.6146 198.206 36.8963 198.007 37.2656C197.813 37.6349 197.716 38.0824 197.716 38.608ZM211.381 45.1918C210.524 45.1918 209.757 44.9716 209.08 44.5312C208.403 44.0909 207.868 43.4517 207.475 42.6136C207.082 41.7756 206.885 40.7576 206.885 39.5597C206.885 38.3475 207.084 37.3248 207.482 36.4915C207.884 35.6534 208.426 35.0213 209.108 34.5952C209.79 34.1643 210.55 33.9489 211.388 33.9489C212.027 33.9489 212.553 34.0578 212.965 34.2756C213.377 34.4886 213.703 34.7467 213.945 35.0497C214.186 35.348 214.373 35.6297 214.506 35.8949H214.613V30.4545H217.191V45H214.662V43.2812H214.506C214.373 43.5464 214.182 43.8281 213.931 44.1264C213.68 44.42 213.348 44.6709 212.936 44.8793C212.525 45.0876 212.006 45.1918 211.381 45.1918ZM212.098 43.0824C212.643 43.0824 213.107 42.9356 213.49 42.642C213.874 42.3437 214.165 41.9295 214.364 41.3991C214.563 40.8688 214.662 40.2509 214.662 39.5455C214.662 38.84 214.563 38.2268 214.364 37.706C214.17 37.1851 213.881 36.7803 213.498 36.4915C213.119 36.2027 212.652 36.0582 212.098 36.0582C211.525 36.0582 211.047 36.2074 210.664 36.5057C210.28 36.804 209.991 37.2159 209.797 37.7415C209.603 38.267 209.506 38.8684 209.506 39.5455C209.506 40.2273 209.603 40.8357 209.797 41.3707C209.996 41.901 210.287 42.3201 210.671 42.6278C211.059 42.9309 211.535 43.0824 212.098 43.0824Z" fill="#0F172A"/>
<path d="M28.3153 95.1392C27.6326 95.1392 27.0294 95.0182 26.5057 94.7763C25.9853 94.531 25.5793 94.1946 25.2876 93.767C24.996 93.3362 24.8518 92.8456 24.8551 92.2955C24.8518 91.8646 24.9363 91.4669 25.1087 91.1023C25.281 90.7344 25.5163 90.4278 25.8146 90.1825C26.1162 89.9339 26.4527 89.7765 26.8239 89.7102V89.6506C26.3366 89.5246 25.9489 89.2512 25.6605 88.8303C25.3722 88.406 25.2296 87.9238 25.233 87.3835C25.2296 86.8665 25.3606 86.4041 25.6257 85.9964C25.8909 85.5888 26.2554 85.2673 26.7195 85.032C27.1868 84.7966 27.7188 84.679 28.3153 84.679C28.9053 84.679 29.4323 84.7966 29.8963 85.032C30.3603 85.2673 30.7249 85.5888 30.9901 85.9964C31.2585 86.4041 31.3944 86.8665 31.3977 87.3835C31.3944 87.9238 31.2469 88.406 30.9553 88.8303C30.6669 89.2512 30.2841 89.5246 29.8068 89.6506V89.7102C30.1747 89.7765 30.5062 89.9339 30.8011 90.1825C31.0961 90.4278 31.3314 90.7344 31.5071 91.1023C31.6828 91.4669 31.7723 91.8646 31.7756 92.2955C31.7723 92.8456 31.6231 93.3362 31.3281 93.767C31.0365 94.1946 30.6304 94.531 30.1101 94.7763C29.593 95.0182 28.9948 95.1392 28.3153 95.1392ZM28.3153 94.0455C28.776 94.0455 29.1738 93.9709 29.5085 93.8217C29.8433 93.6726 30.1018 93.4621 30.2841 93.1903C30.4664 92.9186 30.5592 92.6004 30.5625 92.2358C30.5592 91.8513 30.4598 91.5116 30.2642 91.2166C30.0687 90.9216 29.8018 90.6896 29.4638 90.5206C29.129 90.3516 28.7462 90.267 28.3153 90.267C27.8812 90.267 27.4934 90.3516 27.152 90.5206C26.8139 90.6896 26.5471 90.9216 26.3516 91.2166C26.1593 91.5116 26.0649 91.8513 26.0682 92.2358C26.0649 92.6004 26.1527 92.9186 26.3317 93.1903C26.514 93.4621 26.7741 93.6726 27.1122 93.8217C27.4503 93.9709 27.8513 94.0455 28.3153 94.0455ZM28.3153 89.2131C28.6799 89.2131 29.0031 89.1402 29.2848 88.9943C29.5698 88.8485 29.7936 88.6446 29.956 88.3828C30.1184 88.121 30.2012 87.8144 30.2045 87.4631C30.2012 87.1184 30.12 86.8184 29.9609 86.5632C29.8018 86.3047 29.5814 86.1058 29.2997 85.9666C29.018 85.8241 28.6899 85.7528 28.3153 85.7528C27.9342 85.7528 27.6011 85.8241 27.3161 85.9666C27.031 86.1058 26.8106 86.3047 26.6548 86.5632C26.4991 86.8184 26.4228 87.1184 26.4261 87.4631C26.4228 87.8144 26.5007 88.121 26.6598 88.3828C26.8222 88.6446 27.0459 88.8485 27.331 88.9943C27.616 89.1402 27.9441 89.2131 28.3153 89.2131ZM37.002 95.1392C36.2529 95.1392 35.6149 94.9354 35.0879 94.5277C34.5609 94.1167 34.1582 93.5218 33.8798 92.7429C33.6014 91.9607 33.4622 91.0161 33.4622 89.9091C33.4622 88.8087 33.6014 87.8691 33.8798 87.0902C34.1615 86.308 34.5659 85.7114 35.0929 85.3004C35.6232 84.8861 36.2595 84.679 37.002 84.679C37.7444 84.679 38.3791 84.8861 38.9061 85.3004C39.4364 85.7114 39.8407 86.308 40.1191 87.0902C40.4009 87.8691 40.5417 88.8087 40.5417 89.9091C40.5417 91.0161 40.4025 91.9607 40.1241 92.7429C39.8457 93.5218 39.443 94.1167 38.916 94.5277C38.389 94.9354 37.751 95.1392 37.002 95.1392ZM37.002 94.0455C37.7444 94.0455 38.3211 93.6875 38.7321 92.9716C39.1431 92.2557 39.3485 91.2348 39.3485 89.9091C39.3485 89.0275 39.2541 88.2768 39.0652 87.657C38.8796 87.0372 38.6111 86.5649 38.2598 86.2401C37.9118 85.9152 37.4925 85.7528 37.002 85.7528C36.2662 85.7528 35.6911 86.1158 35.2768 86.8416C34.8625 87.5642 34.6554 88.5866 34.6554 89.9091C34.6554 90.7907 34.7482 91.5398 34.9338 92.1562C35.1194 92.7727 35.3862 93.2417 35.7342 93.5632C36.0855 93.8847 36.5081 94.0455 37.002 94.0455Z" fill="#475569"/>
<path d="M28.4347 152.139C28.017 152.133 27.5994 152.053 27.1818 151.901C26.7642 151.748 26.383 151.491 26.0384 151.13C25.6937 150.765 25.4169 150.273 25.2081 149.653C24.9993 149.03 24.8949 148.248 24.8949 147.307C24.8949 146.405 24.9794 145.607 25.1484 144.911C25.3175 144.211 25.5627 143.623 25.8842 143.146C26.2057 142.665 26.5935 142.3 27.0476 142.052C27.505 141.803 28.0204 141.679 28.5938 141.679C29.1638 141.679 29.6709 141.793 30.1151 142.022C30.5625 142.247 30.9271 142.562 31.2088 142.967C31.4905 143.371 31.6728 143.837 31.7557 144.364H30.5426C30.4299 143.906 30.2112 143.527 29.8864 143.225C29.5616 142.924 29.1307 142.773 28.5938 142.773C27.8049 142.773 27.1835 143.116 26.7294 143.802C26.2786 144.488 26.0516 145.451 26.0483 146.69H26.1278C26.3134 146.409 26.5339 146.168 26.7891 145.969C27.0476 145.767 27.3326 145.612 27.6442 145.502C27.9557 145.393 28.2855 145.338 28.6335 145.338C29.2169 145.338 29.7505 145.484 30.2344 145.776C30.7183 146.064 31.1061 146.463 31.3977 146.974C31.6894 147.481 31.8352 148.062 31.8352 148.719C31.8352 149.348 31.6944 149.925 31.4126 150.449C31.1309 150.969 30.7348 151.384 30.2244 151.692C29.7173 151.997 29.1207 152.146 28.4347 152.139ZM28.4347 151.045C28.8523 151.045 29.2268 150.941 29.5582 150.732C29.893 150.523 30.1565 150.243 30.3487 149.892C30.5443 149.541 30.642 149.15 30.642 148.719C30.642 148.298 30.5476 147.915 30.3587 147.57C30.1731 147.222 29.9162 146.946 29.5881 146.74C29.2633 146.535 28.892 146.432 28.4744 146.432C28.1596 146.432 27.8662 146.495 27.5945 146.621C27.3227 146.743 27.084 146.912 26.8786 147.128C26.6764 147.343 26.5173 147.59 26.4013 147.869C26.2853 148.144 26.2273 148.434 26.2273 148.739C26.2273 149.143 26.3217 149.521 26.5107 149.872C26.7029 150.223 26.9647 150.507 27.2962 150.722C27.6309 150.938 28.0104 151.045 28.4347 151.045ZM37.1113 152.139C36.3623 152.139 35.7243 151.935 35.1973 151.528C34.6703 151.117 34.2676 150.522 33.9892 149.743C33.7108 148.961 33.5716 148.016 33.5716 146.909C33.5716 145.809 33.7108 144.869 33.9892 144.09C34.2709 143.308 34.6752 142.711 35.2022 142.3C35.7325 141.886 36.3689 141.679 37.1113 141.679C37.8538 141.679 38.4885 141.886 39.0154 142.3C39.5458 142.711 39.9501 143.308 40.2285 144.09C40.5102 144.869 40.6511 145.809 40.6511 146.909C40.6511 148.016 40.5119 148.961 40.2335 149.743C39.9551 150.522 39.5524 151.117 39.0254 151.528C38.4984 151.935 37.8604 152.139 37.1113 152.139ZM37.1113 151.045C37.8538 151.045 38.4305 150.687 38.8414 149.972C39.2524 149.256 39.4579 148.235 39.4579 146.909C39.4579 146.027 39.3635 145.277 39.1745 144.657C38.9889 144.037 38.7205 143.565 38.3691 143.24C38.0211 142.915 37.6019 142.753 37.1113 142.753C36.3755 142.753 35.8005 143.116 35.3862 143.842C34.9719 144.564 34.7647 145.587 34.7647 146.909C34.7647 147.791 34.8575 148.54 35.0431 149.156C35.2288 149.773 35.4956 150.242 35.8436 150.563C36.1949 150.885 36.6175 151.045 37.1113 151.045Z" fill="#475569"/>
<path d="M24.8153 206.912V205.898L29.2898 198.818H30.0256V200.389H29.5284L26.1477 205.739V205.818H32.1733V206.912H24.8153ZM29.608 209V206.604V206.131V198.818H30.7812V209H29.608ZM37.3574 209.139C36.6084 209.139 35.9703 208.935 35.4434 208.528C34.9164 208.117 34.5137 207.522 34.2353 206.743C33.9569 205.961 33.8176 205.016 33.8176 203.909C33.8176 202.809 33.9569 201.869 34.2353 201.09C34.517 200.308 34.9213 199.711 35.4483 199.3C35.9786 198.886 36.615 198.679 37.3574 198.679C38.0998 198.679 38.7346 198.886 39.2615 199.3C39.7918 199.711 40.1962 200.308 40.4746 201.09C40.7563 201.869 40.8972 202.809 40.8972 203.909C40.8972 205.016 40.758 205.961 40.4796 206.743C40.2012 207.522 39.7985 208.117 39.2715 208.528C38.7445 208.935 38.1065 209.139 37.3574 209.139ZM37.3574 208.045C38.0998 208.045 38.6766 207.687 39.0875 206.972C39.4985 206.256 39.704 205.235 39.704 203.909C39.704 203.027 39.6096 202.277 39.4206 201.657C39.235 201.037 38.9666 200.565 38.6152 200.24C38.2672 199.915 37.848 199.753 37.3574 199.753C36.6216 199.753 36.0466 200.116 35.6323 200.842C35.218 201.564 35.0108 202.587 35.0108 203.909C35.0108 204.791 35.1036 205.54 35.2892 206.156C35.4748 206.773 35.7417 207.242 36.0897 207.563C36.441 207.885 36.8636 208.045 37.3574 208.045Z" fill="#475569"/>
<path d="M25.054 266V265.105L28.4148 261.426C28.8092 260.995 29.134 260.621 29.3892 260.303C29.6444 259.981 29.8333 259.679 29.956 259.398C30.0819 259.113 30.1449 258.814 30.1449 258.503C30.1449 258.145 30.0587 257.835 29.8864 257.573C29.7173 257.311 29.4853 257.109 29.1903 256.967C28.8954 256.824 28.5639 256.753 28.196 256.753C27.8049 256.753 27.4635 256.834 27.1719 256.996C26.8835 257.156 26.6598 257.379 26.5007 257.668C26.3449 257.956 26.267 258.294 26.267 258.682H25.0938C25.0938 258.085 25.2313 257.562 25.5064 257.111C25.7815 256.66 26.156 256.309 26.63 256.057C27.1072 255.805 27.6425 255.679 28.2358 255.679C28.8324 255.679 29.361 255.805 29.8217 256.057C30.2824 256.309 30.6437 256.648 30.9055 257.076C31.1674 257.504 31.2983 257.979 31.2983 258.503C31.2983 258.877 31.2304 259.244 31.0945 259.602C30.9619 259.956 30.7299 260.352 30.3984 260.79C30.0703 261.224 29.6146 261.754 29.0312 262.381L26.7443 264.827V264.906H31.4773V266H25.054ZM36.8516 266.139C36.1025 266.139 35.4645 265.935 34.9375 265.528C34.4105 265.117 34.0078 264.522 33.7294 263.743C33.451 262.961 33.3118 262.016 33.3118 260.909C33.3118 259.809 33.451 258.869 33.7294 258.09C34.0111 257.308 34.4155 256.711 34.9425 256.3C35.4728 255.886 36.1091 255.679 36.8516 255.679C37.594 255.679 38.2287 255.886 38.7557 256.3C39.286 256.711 39.6903 257.308 39.9688 258.09C40.2505 258.869 40.3913 259.809 40.3913 260.909C40.3913 262.016 40.2521 262.961 39.9737 263.743C39.6953 264.522 39.2926 265.117 38.7656 265.528C38.2386 265.935 37.6006 266.139 36.8516 266.139ZM36.8516 265.045C37.594 265.045 38.1707 264.687 38.5817 263.972C38.9927 263.256 39.1982 262.235 39.1982 260.909C39.1982 260.027 39.1037 259.277 38.9148 258.657C38.7292 258.037 38.4607 257.565 38.1094 257.24C37.7614 256.915 37.3421 256.753 36.8516 256.753C36.1158 256.753 35.5407 257.116 35.1264 257.842C34.7121 258.564 34.505 259.587 34.505 260.909C34.505 261.791 34.5978 262.54 34.7834 263.156C34.969 263.773 35.2358 264.242 35.5838 264.563C35.9351 264.885 36.3577 265.045 36.8516 265.045Z" fill="#475569"/>
<path d="M37.375 323.139C36.6259 323.139 35.9879 322.935 35.4609 322.528C34.9339 322.117 34.5313 321.522 34.2528 320.743C33.9744 319.961 33.8352 319.016 33.8352 317.909C33.8352 316.809 33.9744 315.869 34.2528 315.09C34.5346 314.308 34.9389 313.711 35.4659 313.3C35.9962 312.886 36.6326 312.679 37.375 312.679C38.1174 312.679 38.7521 312.886 39.2791 313.3C39.8094 313.711 40.2138 314.308 40.4922 315.09C40.7739 315.869 40.9148 316.809 40.9148 317.909C40.9148 319.016 40.7756 319.961 40.4972 320.743C40.2188 321.522 39.8161 322.117 39.2891 322.528C38.7621 322.935 38.1241 323.139 37.375 323.139ZM37.375 322.045C38.1174 322.045 38.6941 321.687 39.1051 320.972C39.5161 320.256 39.7216 319.235 39.7216 317.909C39.7216 317.027 39.6271 316.277 39.4382 315.657C39.2526 315.037 38.9841 314.565 38.6328 314.24C38.2848 313.915 37.8655 313.753 37.375 313.753C36.6392 313.753 36.0642 314.116 35.6499 314.842C35.2356 315.564 35.0284 316.587 35.0284 317.909C35.0284 318.791 35.1212 319.54 35.3068 320.156C35.4924 320.773 35.7592 321.242 36.1072 321.563C36.4586 321.885 36.8812 322.045 37.375 322.045Z" fill="#475569"/>
<rect width="56" height="190" transform="translate(74 138)" fill="white"/>
<rect x="74" y="155" width="56" height="141" rx="16" fill="url(#paint0_linear_7041_19185)"/>
<path d="M95.1307 312.818H96.3636V320.097C96.3636 320.746 96.2443 321.298 96.0057 321.752C95.767 322.206 95.4306 322.551 94.9964 322.786C94.5623 323.022 94.0502 323.139 93.4602 323.139C92.9034 323.139 92.4079 323.038 91.9737 322.836C91.5395 322.63 91.1982 322.339 90.9496 321.961C90.701 321.583 90.5767 321.134 90.5767 320.614H91.7898C91.7898 320.902 91.861 321.154 92.0036 321.369C92.1494 321.581 92.3482 321.747 92.6001 321.866C92.852 321.986 93.1387 322.045 93.4602 322.045C93.8149 322.045 94.1165 321.971 94.3651 321.822C94.6136 321.673 94.8026 321.454 94.9318 321.165C95.0644 320.874 95.1307 320.518 95.1307 320.097V312.818ZM100.923 323.179C100.439 323.179 99.9995 323.088 99.6051 322.906C99.2107 322.72 98.8975 322.453 98.6655 322.105C98.4335 321.754 98.3175 321.33 98.3175 320.832C98.3175 320.395 98.4036 320.04 98.576 319.768C98.7483 319.493 98.9787 319.278 99.267 319.122C99.5554 318.966 99.8736 318.85 100.222 318.774C100.573 318.695 100.926 318.632 101.281 318.585C101.745 318.526 102.121 318.481 102.409 318.451C102.701 318.418 102.913 318.363 103.045 318.287C103.181 318.211 103.249 318.078 103.249 317.889V317.849C103.249 317.359 103.115 316.978 102.847 316.706C102.581 316.434 102.179 316.298 101.638 316.298C101.078 316.298 100.639 316.421 100.321 316.666C100.003 316.911 99.7791 317.173 99.6499 317.452L98.5362 317.054C98.7351 316.59 99.0002 316.229 99.3317 315.97C99.6664 315.708 100.031 315.526 100.425 315.423C100.823 315.317 101.214 315.264 101.599 315.264C101.844 315.264 102.126 315.294 102.444 315.354C102.765 315.41 103.075 315.528 103.374 315.707C103.675 315.886 103.925 316.156 104.124 316.517C104.323 316.878 104.423 317.362 104.423 317.969V323H103.249V321.966H103.19C103.11 322.132 102.978 322.309 102.792 322.498C102.606 322.687 102.359 322.848 102.051 322.98C101.743 323.113 101.367 323.179 100.923 323.179ZM101.102 322.125C101.566 322.125 101.957 322.034 102.275 321.852C102.596 321.669 102.838 321.434 103.001 321.146C103.166 320.857 103.249 320.554 103.249 320.236V319.162C103.2 319.222 103.09 319.276 102.921 319.326C102.755 319.372 102.563 319.414 102.344 319.45C102.129 319.483 101.919 319.513 101.713 319.54C101.511 319.563 101.347 319.583 101.221 319.599C100.916 319.639 100.631 319.704 100.366 319.793C100.104 319.879 99.8918 320.01 99.7294 320.186C99.5703 320.358 99.4908 320.594 99.4908 320.892C99.4908 321.3 99.6416 321.608 99.9432 321.817C100.248 322.022 100.634 322.125 101.102 322.125ZM107.737 318.406V323H106.564V315.364H107.698V316.557H107.797C107.976 316.169 108.248 315.857 108.612 315.622C108.977 315.384 109.448 315.264 110.024 315.264C110.541 315.264 110.994 315.37 111.382 315.582C111.769 315.791 112.071 316.109 112.286 316.537C112.502 316.961 112.61 317.498 112.61 318.148V323H111.436V318.227C111.436 317.627 111.28 317.16 110.969 316.825C110.657 316.487 110.23 316.318 109.686 316.318C109.312 316.318 108.977 316.399 108.682 316.562C108.39 316.724 108.16 316.961 107.991 317.273C107.822 317.584 107.737 317.962 107.737 318.406Z" fill="#475569"/>
<rect width="56" height="190" transform="translate(186.801 138)" fill="white"/>
<rect x="186.801" y="100" width="56" height="196" rx="16" fill="url(#paint1_linear_7041_19185)"/>
<path d="M203.534 323V312.818H209.639V313.912H204.767V317.352H209.181V318.446H204.767V323H203.534ZM214.233 323.159C213.497 323.159 212.862 322.997 212.328 322.672C211.798 322.344 211.389 321.886 211.1 321.3C210.815 320.71 210.673 320.024 210.673 319.241C210.673 318.459 210.815 317.77 211.1 317.173C211.389 316.573 211.79 316.106 212.304 315.771C212.821 315.433 213.424 315.264 214.113 315.264C214.511 315.264 214.904 315.33 215.292 315.463C215.679 315.596 216.032 315.811 216.35 316.109C216.669 316.404 216.922 316.795 217.111 317.283C217.3 317.77 217.395 318.37 217.395 319.082V319.58H211.508V318.565H216.201C216.201 318.134 216.115 317.75 215.943 317.412C215.774 317.074 215.532 316.807 215.217 316.612C214.905 316.416 214.538 316.318 214.113 316.318C213.646 316.318 213.242 316.434 212.9 316.666C212.562 316.895 212.302 317.193 212.12 317.561C211.937 317.929 211.846 318.323 211.846 318.744V319.42C211.846 319.997 211.946 320.486 212.145 320.887C212.347 321.285 212.627 321.588 212.985 321.797C213.343 322.002 213.759 322.105 214.233 322.105C214.541 322.105 214.819 322.062 215.068 321.976C215.32 321.886 215.537 321.754 215.719 321.578C215.901 321.399 216.042 321.177 216.142 320.912L217.275 321.23C217.156 321.615 216.955 321.953 216.674 322.244C216.392 322.533 216.044 322.758 215.63 322.92C215.215 323.08 214.75 323.159 214.233 323.159ZM219.338 323V312.818H220.512V316.577H220.611C220.697 316.444 220.817 316.275 220.969 316.07C221.125 315.861 221.347 315.675 221.635 315.513C221.927 315.347 222.321 315.264 222.819 315.264C223.462 315.264 224.028 315.425 224.519 315.746C225.009 316.068 225.392 316.524 225.667 317.114C225.942 317.704 226.08 318.4 226.08 319.202C226.08 320.01 225.942 320.711 225.667 321.305C225.392 321.895 225.011 322.352 224.524 322.677C224.037 322.998 223.475 323.159 222.838 323.159C222.348 323.159 221.955 323.078 221.66 322.915C221.365 322.75 221.138 322.562 220.979 322.354C220.82 322.142 220.697 321.966 220.611 321.827H220.472V323H219.338ZM220.492 319.182C220.492 319.759 220.576 320.267 220.745 320.708C220.914 321.146 221.161 321.489 221.486 321.737C221.811 321.982 222.209 322.105 222.679 322.105C223.17 322.105 223.579 321.976 223.907 321.717C224.239 321.455 224.487 321.104 224.653 320.663C224.822 320.219 224.907 319.725 224.907 319.182C224.907 318.645 224.824 318.161 224.658 317.73C224.496 317.296 224.249 316.953 223.917 316.701C223.589 316.446 223.176 316.318 222.679 316.318C222.202 316.318 221.801 316.439 221.476 316.681C221.151 316.92 220.906 317.254 220.74 317.685C220.575 318.113 220.492 318.612 220.492 319.182Z" fill="#475569"/>
<rect width="56" height="190" transform="translate(299.602 138)" fill="white"/>
<rect x="299.602" y="155" width="56" height="141" rx="16" fill="url(#paint2_linear_7041_19185)"/>
<path d="M315.835 312.818H317.306L320.766 321.27H320.886L324.346 312.818H325.817V323H324.664V315.264H324.565L321.383 323H320.269L317.087 315.264H316.988V323H315.835V312.818ZM330.378 323.179C329.894 323.179 329.455 323.088 329.06 322.906C328.666 322.72 328.353 322.453 328.121 322.105C327.889 321.754 327.773 321.33 327.773 320.832C327.773 320.395 327.859 320.04 328.031 319.768C328.203 319.493 328.434 319.278 328.722 319.122C329.01 318.966 329.329 318.85 329.677 318.774C330.028 318.695 330.381 318.632 330.736 318.585C331.2 318.526 331.576 318.481 331.864 318.451C332.156 318.418 332.368 318.363 332.501 318.287C332.636 318.211 332.704 318.078 332.704 317.889V317.849C332.704 317.359 332.57 316.978 332.302 316.706C332.037 316.434 331.634 316.298 331.094 316.298C330.533 316.298 330.094 316.421 329.776 316.666C329.458 316.911 329.234 317.173 329.105 317.452L327.991 317.054C328.19 316.59 328.455 316.229 328.787 315.97C329.122 315.708 329.486 315.526 329.881 315.423C330.278 315.317 330.669 315.264 331.054 315.264C331.299 315.264 331.581 315.294 331.899 315.354C332.22 315.41 332.53 315.528 332.829 315.707C333.13 315.886 333.381 316.156 333.579 316.517C333.778 316.878 333.878 317.362 333.878 317.969V323H332.704V321.966H332.645C332.565 322.132 332.433 322.309 332.247 322.498C332.061 322.687 331.814 322.848 331.506 322.98C331.198 323.113 330.822 323.179 330.378 323.179ZM330.557 322.125C331.021 322.125 331.412 322.034 331.73 321.852C332.051 321.669 332.293 321.434 332.456 321.146C332.622 320.857 332.704 320.554 332.704 320.236V319.162C332.655 319.222 332.545 319.276 332.376 319.326C332.211 319.372 332.018 319.414 331.8 319.45C331.584 319.483 331.374 319.513 331.168 319.54C330.966 319.563 330.802 319.583 330.676 319.599C330.371 319.639 330.086 319.704 329.821 319.793C329.559 319.879 329.347 320.01 329.184 320.186C329.025 320.358 328.946 320.594 328.946 320.892C328.946 321.3 329.097 321.608 329.398 321.817C329.703 322.022 330.089 322.125 330.557 322.125ZM336.019 323V315.364H337.153V316.517H337.232C337.371 316.139 337.623 315.833 337.988 315.597C338.353 315.362 338.763 315.244 339.221 315.244C339.307 315.244 339.415 315.246 339.544 315.249C339.673 315.253 339.771 315.258 339.837 315.264V316.457C339.798 316.447 339.706 316.433 339.564 316.413C339.425 316.389 339.277 316.378 339.121 316.378C338.75 316.378 338.419 316.456 338.127 316.612C337.839 316.764 337.61 316.976 337.441 317.248C337.275 317.516 337.192 317.823 337.192 318.168V323H336.019Z" fill="#475569"/>
<rect width="56" height="190" transform="translate(412.398 138)" fill="white"/>
<rect x="412.398" y="125" width="56" height="171" rx="16" fill="url(#paint3_linear_7041_19185)"/>
<path d="M430.049 323H428.756L432.495 312.818H433.768L437.506 323H436.214L433.171 314.429H433.092L430.049 323ZM430.526 319.023H435.737V320.116H430.526V319.023ZM438.933 325.864V315.364H440.067V316.577H440.206C440.292 316.444 440.411 316.275 440.564 316.07C440.72 315.861 440.942 315.675 441.23 315.513C441.522 315.347 441.916 315.264 442.413 315.264C443.056 315.264 443.623 315.425 444.114 315.746C444.604 316.068 444.987 316.524 445.262 317.114C445.537 317.704 445.675 318.4 445.675 319.202C445.675 320.01 445.537 320.711 445.262 321.305C444.987 321.895 444.606 322.352 444.119 322.677C443.631 322.998 443.07 323.159 442.433 323.159C441.943 323.159 441.55 323.078 441.255 322.915C440.96 322.75 440.733 322.562 440.574 322.354C440.415 322.142 440.292 321.966 440.206 321.827H440.107V325.864H438.933ZM440.087 319.182C440.087 319.759 440.171 320.267 440.34 320.708C440.509 321.146 440.756 321.489 441.081 321.737C441.406 321.982 441.804 322.105 442.274 322.105C442.765 322.105 443.174 321.976 443.502 321.717C443.834 321.455 444.082 321.104 444.248 320.663C444.417 320.219 444.501 319.725 444.501 319.182C444.501 318.645 444.419 318.161 444.253 317.73C444.09 317.296 443.844 316.953 443.512 316.701C443.184 316.446 442.771 316.318 442.274 316.318C441.797 316.318 441.396 316.439 441.071 316.681C440.746 316.92 440.501 317.254 440.335 317.685C440.17 318.113 440.087 318.612 440.087 319.182ZM447.464 323V315.364H448.598V316.517H448.678C448.817 316.139 449.069 315.833 449.433 315.597C449.798 315.362 450.209 315.244 450.666 315.244C450.752 315.244 450.86 315.246 450.989 315.249C451.119 315.253 451.216 315.258 451.283 315.264V316.457C451.243 316.447 451.152 316.433 451.009 316.413C450.87 316.389 450.723 316.378 450.567 316.378C450.196 316.378 449.864 316.456 449.572 316.612C449.284 316.764 449.055 316.976 448.886 317.248C448.721 317.516 448.638 317.823 448.638 318.168V323H447.464Z" fill="#475569"/>
<rect width="56" height="190" transform="translate(525.199 138)" fill="white"/>
<rect x="525.199" y="84" width="56" height="212" rx="16" fill="#0052CC"/>
<path d="M539.703 312.818H541.961L544.983 320.196H545.103L548.125 312.818H550.382V323H548.613V316.005H548.518L545.704 322.97H544.382L541.568 315.99H541.473V323H539.703V312.818ZM554.509 323.154C554.025 323.154 553.589 323.068 553.201 322.896C552.817 322.72 552.512 322.461 552.287 322.12C552.065 321.779 551.953 321.358 551.953 320.857C551.953 320.426 552.033 320.07 552.192 319.788C552.351 319.507 552.568 319.281 552.843 319.112C553.118 318.943 553.428 318.816 553.773 318.729C554.121 318.64 554.481 318.575 554.852 318.536C555.299 318.489 555.662 318.448 555.941 318.411C556.219 318.371 556.421 318.312 556.547 318.232C556.676 318.149 556.741 318.022 556.741 317.849V317.82C556.741 317.445 556.63 317.155 556.408 316.95C556.186 316.744 555.866 316.641 555.449 316.641C555.008 316.641 554.658 316.737 554.4 316.93C554.144 317.122 553.972 317.349 553.882 317.611L552.202 317.372C552.335 316.908 552.553 316.52 552.858 316.209C553.163 315.894 553.536 315.659 553.977 315.503C554.418 315.344 554.905 315.264 555.439 315.264C555.806 315.264 556.173 315.307 556.537 315.393C556.902 315.48 557.235 315.622 557.537 315.821C557.838 316.017 558.08 316.283 558.262 316.621C558.448 316.96 558.541 317.382 558.541 317.889V323H556.811V321.951H556.751C556.642 322.163 556.488 322.362 556.289 322.548C556.093 322.73 555.846 322.877 555.548 322.99C555.253 323.099 554.907 323.154 554.509 323.154ZM554.976 321.832C555.337 321.832 555.651 321.76 555.916 321.618C556.181 321.472 556.385 321.28 556.527 321.041C556.673 320.803 556.746 320.542 556.746 320.261V319.361C556.69 319.407 556.594 319.45 556.458 319.49C556.325 319.53 556.176 319.565 556.01 319.594C555.845 319.624 555.681 319.651 555.518 319.674C555.356 319.697 555.215 319.717 555.096 319.734C554.827 319.77 554.587 319.83 554.375 319.913C554.163 319.996 553.995 320.112 553.873 320.261C553.75 320.406 553.689 320.595 553.689 320.827C553.689 321.159 553.81 321.409 554.051 321.578C554.293 321.747 554.602 321.832 554.976 321.832ZM561.196 325.864C560.95 325.864 560.723 325.844 560.515 325.804C560.309 325.768 560.145 325.724 560.022 325.675L560.44 324.273C560.702 324.349 560.935 324.385 561.141 324.382C561.346 324.379 561.527 324.314 561.683 324.188C561.842 324.066 561.976 323.86 562.086 323.572L562.24 323.159L559.471 315.364H561.38L563.14 321.131H563.219L564.984 315.364H566.898L563.841 323.925C563.698 324.329 563.509 324.675 563.274 324.964C563.038 325.255 562.75 325.478 562.409 325.63C562.071 325.786 561.666 325.864 561.196 325.864Z" fill="#475569"/>
<rect width="56" height="190" transform="translate(638 138)" fill="white"/>
<rect x="638" y="152" width="56" height="144" rx="16" fill="url(#paint4_linear_7041_19185)"/>
<path d="M659.131 312.818H660.364V320.097C660.364 320.746 660.244 321.298 660.006 321.752C659.767 322.206 659.431 322.551 658.996 322.786C658.562 323.022 658.05 323.139 657.46 323.139C656.903 323.139 656.408 323.038 655.974 322.836C655.54 322.63 655.198 322.339 654.95 321.961C654.701 321.583 654.577 321.134 654.577 320.614H655.79C655.79 320.902 655.861 321.154 656.004 321.369C656.149 321.581 656.348 321.747 656.6 321.866C656.852 321.986 657.139 322.045 657.46 322.045C657.815 322.045 658.116 321.971 658.365 321.822C658.614 321.673 658.803 321.454 658.932 321.165C659.064 320.874 659.131 320.518 659.131 320.097V312.818ZM667.488 319.878V315.364H668.661V323H667.488V321.707H667.408C667.229 322.095 666.951 322.425 666.573 322.697C666.195 322.965 665.718 323.099 665.141 323.099C664.664 323.099 664.24 322.995 663.869 322.786C663.497 322.574 663.206 322.256 662.994 321.832C662.781 321.404 662.675 320.866 662.675 320.216V315.364H663.849V320.136C663.849 320.693 664.004 321.137 664.316 321.469C664.631 321.8 665.032 321.966 665.519 321.966C665.811 321.966 666.107 321.891 666.409 321.742C666.714 321.593 666.969 321.364 667.175 321.056C667.384 320.748 667.488 320.355 667.488 319.878ZM671.983 318.406V323H670.81V315.364H671.944V316.557H672.043C672.222 316.169 672.494 315.857 672.858 315.622C673.223 315.384 673.694 315.264 674.27 315.264C674.787 315.264 675.24 315.37 675.628 315.582C676.015 315.791 676.317 316.109 676.532 316.537C676.748 316.961 676.856 317.498 676.856 318.148V323H675.682V318.227C675.682 317.627 675.527 317.16 675.215 316.825C674.903 316.487 674.476 316.318 673.932 316.318C673.558 316.318 673.223 316.399 672.928 316.562C672.636 316.724 672.406 316.961 672.237 317.273C672.068 317.584 671.983 317.962 671.983 318.406Z" fill="#475569"/>
<defs>
<linearGradient id="paint0_linear_7041_19185" x1="102" y1="155" x2="102" y2="296" gradientUnits="userSpaceOnUse">
<stop stop-color="#BDCAFF"/>
<stop offset="1" stop-color="white"/>
</linearGradient>
<linearGradient id="paint1_linear_7041_19185" x1="214.801" y1="100" x2="214.801" y2="296" gradientUnits="userSpaceOnUse">
<stop stop-color="#BDCAFF"/>
<stop offset="1" stop-color="white"/>
</linearGradient>
<linearGradient id="paint2_linear_7041_19185" x1="327.602" y1="155" x2="327.602" y2="296" gradientUnits="userSpaceOnUse">
<stop stop-color="#BDCAFF"/>
<stop offset="1" stop-color="white"/>
</linearGradient>
<linearGradient id="paint3_linear_7041_19185" x1="440.398" y1="125" x2="440.398" y2="296" gradientUnits="userSpaceOnUse">
<stop stop-color="#BDCAFF"/>
<stop offset="1" stop-color="white"/>
</linearGradient>
<linearGradient id="paint4_linear_7041_19185" x1="666" y1="152" x2="666" y2="296" gradientUnits="userSpaceOnUse">
<stop stop-color="#BDCAFF"/>
<stop offset="1" stop-color="white"/>
</linearGradient>
</defs>
</svg>
