<svg width="367" height="368" viewBox="0 0 367 368" fill="none" xmlns="http://www.w3.org/2000/svg">
<rect x="0.5" y="0.5" width="365.667" height="367" rx="15.5" fill="white"/>
<rect x="0.5" y="0.5" width="365.667" height="367" rx="15.5" stroke="#E6ECF4"/>
<path d="M25.4347 45V30.4545H30.8892C32.0066 30.4545 32.9441 30.6629 33.7017 31.0795C34.464 31.4962 35.0393 32.0691 35.4276 32.7983C35.8205 33.5227 36.017 34.3466 36.017 35.2699C36.017 36.2027 35.8205 37.0312 35.4276 37.7557C35.0346 38.4801 34.4545 39.0507 33.6875 39.4673C32.9205 39.8793 31.9759 40.0852 30.8537 40.0852H27.2386V37.919H30.4986C31.152 37.919 31.687 37.8054 32.1037 37.5781C32.5204 37.3509 32.8281 37.0384 33.027 36.6406C33.2306 36.2429 33.3324 35.786 33.3324 35.2699C33.3324 34.7538 33.2306 34.2992 33.027 33.9062C32.8281 33.5133 32.518 33.2079 32.0966 32.9901C31.6799 32.7675 31.1425 32.6562 30.4844 32.6562H28.0696V45H25.4347ZM41.136 45.2202C40.4447 45.2202 39.8221 45.0971 39.2681 44.8509C38.7189 44.5999 38.2833 44.2306 37.9613 43.7429C37.6441 43.2552 37.4854 42.6539 37.4854 41.9389C37.4854 41.3234 37.5991 40.8144 37.8263 40.4119C38.0536 40.0095 38.3638 39.6875 38.7567 39.446C39.1497 39.2045 39.5924 39.0223 40.0849 38.8991C40.582 38.7713 41.0958 38.679 41.6261 38.6222C42.2653 38.5559 42.7837 38.4967 43.1815 38.4446C43.5792 38.3878 43.868 38.3026 44.0479 38.1889C44.2326 38.0705 44.3249 37.8883 44.3249 37.642V37.5994C44.3249 37.0644 44.1663 36.6501 43.8491 36.3565C43.5318 36.063 43.0749 35.9162 42.4783 35.9162C41.8486 35.9162 41.3491 36.0535 40.9798 36.3281C40.6152 36.6027 40.369 36.9271 40.2411 37.3011L37.8406 36.9602C38.0299 36.2973 38.3424 35.7434 38.7781 35.2983C39.2137 34.8485 39.7463 34.5123 40.3761 34.2898C41.0058 34.0625 41.7018 33.9489 42.4641 33.9489C42.9897 33.9489 43.5129 34.0104 44.0337 34.1335C44.5546 34.2566 45.0304 34.4602 45.4613 34.7443C45.8922 35.0237 46.2378 35.4048 46.4982 35.8878C46.7634 36.3707 46.896 36.9744 46.896 37.6989V45H44.4244V43.5014H44.3391C44.1829 43.8045 43.9627 44.0885 43.6786 44.3537C43.3993 44.6141 43.0465 44.8248 42.6204 44.9858C42.199 45.142 41.7042 45.2202 41.136 45.2202ZM41.8036 43.331C42.3197 43.331 42.7672 43.2292 43.146 43.0256C43.5247 42.8172 43.8159 42.5426 44.0195 42.2017C44.2279 41.8608 44.332 41.4891 44.332 41.0866V39.8011C44.2515 39.8674 44.1142 39.929 43.9201 39.9858C43.7307 40.0426 43.5176 40.0923 43.2809 40.1349C43.0442 40.1776 42.8098 40.2154 42.5778 40.2486C42.3458 40.2817 42.1445 40.3101 41.9741 40.3338C41.5906 40.3859 41.2473 40.4711 40.9442 40.5895C40.6412 40.7079 40.4021 40.8736 40.2269 41.0866C40.0517 41.295 39.9641 41.5649 39.9641 41.8963C39.9641 42.3698 40.137 42.7273 40.4826 42.9688C40.8282 43.2102 41.2686 43.331 41.8036 43.331Z" fill="#0F172A"/>
<circle cx="183.332" cy="180.5" r="108.5" fill="#548BDD"/>
<path d="M183.332 72C167.537 72 151.932 75.4487 137.607 82.1053C123.283 88.7619 110.585 98.4657 100.4 110.539C90.2153 122.612 82.7892 136.763 78.6408 152.004C74.4925 167.245 73.7218 183.208 76.3826 198.778L183.332 180.5V72Z" fill="#D55459"/>
<path d="M74.832 180.5C74.832 197.202 78.6881 213.679 86.0997 228.647C93.5114 243.615 104.279 256.669 117.562 266.794C130.846 276.918 146.288 283.839 162.686 287.017C179.083 290.196 195.992 289.546 212.097 285.118L183.332 180.5L74.832 180.5Z" fill="#A784FF"/>
<path d="M288.62 154.294C282.746 130.695 269.114 109.753 249.912 94.8299C230.71 79.9066 207.051 71.8671 182.732 72.0017L183.332 180.5L288.62 154.294Z" fill="#FFBB69"/>
<path d="M228.274 234C228.166 234 228.076 233.964 228.004 233.892C227.932 233.808 227.896 233.712 227.896 233.604C227.896 233.556 227.908 233.502 227.932 233.442L232.27 223.542H226.618C226.486 223.542 226.378 223.5 226.294 223.416C226.222 223.332 226.186 223.23 226.186 223.11V221.85C226.186 221.718 226.222 221.61 226.294 221.526C226.378 221.442 226.486 221.4 226.618 221.4H234.52C234.652 221.4 234.754 221.442 234.826 221.526C234.91 221.61 234.952 221.718 234.952 221.85V222.966C234.952 223.134 234.934 223.278 234.898 223.398C234.874 223.506 234.838 223.62 234.79 223.74L230.488 233.568C230.452 233.652 230.386 233.748 230.29 233.856C230.206 233.952 230.08 234 229.912 234H228.274ZM241.342 234.18C240.49 234.18 239.764 234.054 239.164 233.802C238.564 233.55 238.072 233.202 237.688 232.758C237.304 232.314 237.016 231.804 236.824 231.228C236.632 230.64 236.518 230.016 236.482 229.356C236.47 229.032 236.458 228.678 236.446 228.294C236.446 227.898 236.446 227.502 236.446 227.106C236.458 226.71 236.47 226.344 236.482 226.008C236.506 225.348 236.62 224.73 236.824 224.154C237.028 223.566 237.322 223.056 237.706 222.624C238.102 222.192 238.6 221.85 239.2 221.598C239.8 221.346 240.514 221.22 241.342 221.22C242.182 221.22 242.902 221.346 243.502 221.598C244.102 221.85 244.594 222.192 244.978 222.624C245.374 223.056 245.668 223.566 245.86 224.154C246.064 224.73 246.178 225.348 246.202 226.008C246.226 226.344 246.238 226.71 246.238 227.106C246.238 227.502 246.238 227.898 246.238 228.294C246.238 228.678 246.226 229.032 246.202 229.356C246.178 230.016 246.07 230.64 245.878 231.228C245.686 231.804 245.398 232.314 245.014 232.758C244.63 233.202 244.132 233.55 243.52 233.802C242.92 234.054 242.194 234.18 241.342 234.18ZM241.342 232.11C242.122 232.11 242.692 231.858 243.052 231.354C243.424 230.838 243.616 230.142 243.628 229.266C243.652 228.918 243.664 228.57 243.664 228.222C243.664 227.862 243.664 227.502 243.664 227.142C243.664 226.782 243.652 226.44 243.628 226.116C243.616 225.264 243.424 224.58 243.052 224.064C242.692 223.536 242.122 223.272 241.342 223.272C240.574 223.272 240.004 223.536 239.632 224.064C239.272 224.58 239.08 225.264 239.056 226.116C239.056 226.44 239.05 226.782 239.038 227.142C239.038 227.502 239.038 227.862 239.038 228.222C239.05 228.57 239.056 228.918 239.056 229.266C239.08 230.142 239.278 230.838 239.65 231.354C240.022 231.858 240.586 232.11 241.342 232.11ZM249.248 234C248.996 234 248.87 233.88 248.87 233.64C248.87 233.568 248.894 233.502 248.942 233.442L257.816 221.742C257.9 221.634 257.984 221.55 258.068 221.49C258.152 221.43 258.272 221.4 258.428 221.4H259.382C259.634 221.4 259.76 221.52 259.76 221.76C259.76 221.832 259.736 221.898 259.688 221.958L250.814 233.658C250.73 233.766 250.646 233.85 250.562 233.91C250.49 233.97 250.37 234 250.202 234H249.248ZM257.906 234.108C257.102 234.108 256.466 233.886 255.998 233.442C255.53 232.998 255.272 232.416 255.224 231.696C255.212 231.384 255.206 231.114 255.206 230.886C255.206 230.658 255.212 230.376 255.224 230.04C255.272 229.32 255.518 228.738 255.962 228.294C256.418 227.85 257.066 227.628 257.906 227.628C258.758 227.628 259.406 227.85 259.85 228.294C260.306 228.738 260.552 229.32 260.588 230.04C260.612 230.376 260.624 230.658 260.624 230.886C260.624 231.114 260.612 231.384 260.588 231.696C260.552 232.416 260.294 232.998 259.814 233.442C259.346 233.886 258.71 234.108 257.906 234.108ZM257.906 232.704C258.17 232.704 258.374 232.65 258.518 232.542C258.674 232.434 258.788 232.296 258.86 232.128C258.932 231.96 258.968 231.792 258.968 231.624C258.992 231.324 259.004 231.072 259.004 230.868C259.004 230.652 258.992 230.406 258.968 230.13C258.956 229.854 258.872 229.602 258.716 229.374C258.56 229.134 258.29 229.014 257.906 229.014C257.534 229.014 257.27 229.134 257.114 229.374C256.958 229.602 256.868 229.854 256.844 230.13C256.832 230.406 256.826 230.652 256.826 230.868C256.826 231.072 256.832 231.324 256.844 231.624C256.868 231.792 256.91 231.96 256.97 232.128C257.042 232.296 257.15 232.434 257.294 232.542C257.45 232.65 257.654 232.704 257.906 232.704ZM250.724 227.736C249.92 227.736 249.284 227.526 248.816 227.106C248.348 226.686 248.09 226.116 248.042 225.396C248.03 225.084 248.024 224.814 248.024 224.586C248.024 224.346 248.03 224.058 248.042 223.722C248.09 223.002 248.336 222.42 248.78 221.976C249.236 221.532 249.884 221.31 250.724 221.31C251.576 221.31 252.224 221.532 252.668 221.976C253.124 222.42 253.37 223.002 253.406 223.722C253.43 224.058 253.442 224.346 253.442 224.586C253.442 224.814 253.43 225.084 253.406 225.396C253.37 226.116 253.112 226.686 252.632 227.106C252.164 227.526 251.528 227.736 250.724 227.736ZM250.724 226.404C250.988 226.404 251.192 226.35 251.336 226.242C251.492 226.134 251.606 225.996 251.678 225.828C251.75 225.66 251.786 225.486 251.786 225.306C251.81 225.006 251.822 224.754 251.822 224.55C251.822 224.334 251.81 224.088 251.786 223.812C251.774 223.536 251.69 223.284 251.534 223.056C251.378 222.828 251.108 222.714 250.724 222.714C250.352 222.714 250.088 222.828 249.932 223.056C249.776 223.284 249.692 223.536 249.68 223.812C249.668 224.088 249.662 224.334 249.662 224.55C249.662 224.754 249.668 225.006 249.68 225.306C249.692 225.486 249.728 225.66 249.788 225.828C249.86 225.996 249.968 226.134 250.112 226.242C250.268 226.35 250.472 226.404 250.724 226.404Z" fill="white"/>
<path d="M208.274 144C208.166 144 208.076 143.964 208.004 143.892C207.932 143.808 207.896 143.712 207.896 143.604C207.896 143.556 207.908 143.502 207.932 143.442L212.27 133.542H206.618C206.486 133.542 206.378 133.5 206.294 133.416C206.222 133.332 206.186 133.23 206.186 133.11V131.85C206.186 131.718 206.222 131.61 206.294 131.526C206.378 131.442 206.486 131.4 206.618 131.4H214.52C214.652 131.4 214.754 131.442 214.826 131.526C214.91 131.61 214.952 131.718 214.952 131.85V132.966C214.952 133.134 214.934 133.278 214.898 133.398C214.874 133.506 214.838 133.62 214.79 133.74L210.488 143.568C210.452 143.652 210.386 143.748 210.29 143.856C210.206 143.952 210.08 144 209.912 144H208.274ZM221.342 144.18C220.49 144.18 219.764 144.054 219.164 143.802C218.564 143.55 218.072 143.202 217.688 142.758C217.304 142.314 217.016 141.804 216.824 141.228C216.632 140.64 216.518 140.016 216.482 139.356C216.47 139.032 216.458 138.678 216.446 138.294C216.446 137.898 216.446 137.502 216.446 137.106C216.458 136.71 216.47 136.344 216.482 136.008C216.506 135.348 216.62 134.73 216.824 134.154C217.028 133.566 217.322 133.056 217.706 132.624C218.102 132.192 218.6 131.85 219.2 131.598C219.8 131.346 220.514 131.22 221.342 131.22C222.182 131.22 222.902 131.346 223.502 131.598C224.102 131.85 224.594 132.192 224.978 132.624C225.374 133.056 225.668 133.566 225.86 134.154C226.064 134.73 226.178 135.348 226.202 136.008C226.226 136.344 226.238 136.71 226.238 137.106C226.238 137.502 226.238 137.898 226.238 138.294C226.238 138.678 226.226 139.032 226.202 139.356C226.178 140.016 226.07 140.64 225.878 141.228C225.686 141.804 225.398 142.314 225.014 142.758C224.63 143.202 224.132 143.55 223.52 143.802C222.92 144.054 222.194 144.18 221.342 144.18ZM221.342 142.11C222.122 142.11 222.692 141.858 223.052 141.354C223.424 140.838 223.616 140.142 223.628 139.266C223.652 138.918 223.664 138.57 223.664 138.222C223.664 137.862 223.664 137.502 223.664 137.142C223.664 136.782 223.652 136.44 223.628 136.116C223.616 135.264 223.424 134.58 223.052 134.064C222.692 133.536 222.122 133.272 221.342 133.272C220.574 133.272 220.004 133.536 219.632 134.064C219.272 134.58 219.08 135.264 219.056 136.116C219.056 136.44 219.05 136.782 219.038 137.142C219.038 137.502 219.038 137.862 219.038 138.222C219.05 138.57 219.056 138.918 219.056 139.266C219.08 140.142 219.278 140.838 219.65 141.354C220.022 141.858 220.586 142.11 221.342 142.11ZM229.248 144C228.996 144 228.87 143.88 228.87 143.64C228.87 143.568 228.894 143.502 228.942 143.442L237.816 131.742C237.9 131.634 237.984 131.55 238.068 131.49C238.152 131.43 238.272 131.4 238.428 131.4H239.382C239.634 131.4 239.76 131.52 239.76 131.76C239.76 131.832 239.736 131.898 239.688 131.958L230.814 143.658C230.73 143.766 230.646 143.85 230.562 143.91C230.49 143.97 230.37 144 230.202 144H229.248ZM237.906 144.108C237.102 144.108 236.466 143.886 235.998 143.442C235.53 142.998 235.272 142.416 235.224 141.696C235.212 141.384 235.206 141.114 235.206 140.886C235.206 140.658 235.212 140.376 235.224 140.04C235.272 139.32 235.518 138.738 235.962 138.294C236.418 137.85 237.066 137.628 237.906 137.628C238.758 137.628 239.406 137.85 239.85 138.294C240.306 138.738 240.552 139.32 240.588 140.04C240.612 140.376 240.624 140.658 240.624 140.886C240.624 141.114 240.612 141.384 240.588 141.696C240.552 142.416 240.294 142.998 239.814 143.442C239.346 143.886 238.71 144.108 237.906 144.108ZM237.906 142.704C238.17 142.704 238.374 142.65 238.518 142.542C238.674 142.434 238.788 142.296 238.86 142.128C238.932 141.96 238.968 141.792 238.968 141.624C238.992 141.324 239.004 141.072 239.004 140.868C239.004 140.652 238.992 140.406 238.968 140.13C238.956 139.854 238.872 139.602 238.716 139.374C238.56 139.134 238.29 139.014 237.906 139.014C237.534 139.014 237.27 139.134 237.114 139.374C236.958 139.602 236.868 139.854 236.844 140.13C236.832 140.406 236.826 140.652 236.826 140.868C236.826 141.072 236.832 141.324 236.844 141.624C236.868 141.792 236.91 141.96 236.97 142.128C237.042 142.296 237.15 142.434 237.294 142.542C237.45 142.65 237.654 142.704 237.906 142.704ZM230.724 137.736C229.92 137.736 229.284 137.526 228.816 137.106C228.348 136.686 228.09 136.116 228.042 135.396C228.03 135.084 228.024 134.814 228.024 134.586C228.024 134.346 228.03 134.058 228.042 133.722C228.09 133.002 228.336 132.42 228.78 131.976C229.236 131.532 229.884 131.31 230.724 131.31C231.576 131.31 232.224 131.532 232.668 131.976C233.124 132.42 233.37 133.002 233.406 133.722C233.43 134.058 233.442 134.346 233.442 134.586C233.442 134.814 233.43 135.084 233.406 135.396C233.37 136.116 233.112 136.686 232.632 137.106C232.164 137.526 231.528 137.736 230.724 137.736ZM230.724 136.404C230.988 136.404 231.192 136.35 231.336 136.242C231.492 136.134 231.606 135.996 231.678 135.828C231.75 135.66 231.786 135.486 231.786 135.306C231.81 135.006 231.822 134.754 231.822 134.55C231.822 134.334 231.81 134.088 231.786 133.812C231.774 133.536 231.69 133.284 231.534 133.056C231.378 132.828 231.108 132.714 230.724 132.714C230.352 132.714 230.088 132.828 229.932 133.056C229.776 133.284 229.692 133.536 229.68 133.812C229.668 134.088 229.662 134.334 229.662 134.55C229.662 134.754 229.668 135.006 229.68 135.306C229.692 135.486 229.728 135.66 229.788 135.828C229.86 135.996 229.968 136.134 230.112 136.242C230.268 136.35 230.472 136.404 230.724 136.404Z" fill="white"/>
<path d="M126.697 144.449C126.565 144.449 126.457 144.407 126.373 144.323C126.301 144.239 126.265 144.137 126.265 144.017V134.693L123.529 136.799C123.421 136.871 123.313 136.901 123.205 136.889C123.097 136.865 123.001 136.799 122.917 136.691L122.161 135.719C122.089 135.611 122.059 135.497 122.071 135.377C122.095 135.257 122.161 135.161 122.269 135.089L126.301 131.975C126.373 131.915 126.445 131.879 126.517 131.867C126.589 131.855 126.667 131.849 126.751 131.849H128.335C128.455 131.849 128.557 131.891 128.641 131.975C128.725 132.059 128.767 132.161 128.767 132.281V144.017C128.767 144.137 128.725 144.239 128.641 144.323C128.557 144.407 128.455 144.449 128.335 144.449H126.697ZM135.641 144.629C134.801 144.629 134.075 144.527 133.463 144.323C132.851 144.119 132.341 143.855 131.933 143.531C131.537 143.195 131.237 142.835 131.033 142.451C130.829 142.055 130.721 141.665 130.709 141.281C130.709 141.173 130.745 141.089 130.817 141.029C130.901 140.957 130.997 140.921 131.105 140.921H132.725C132.845 140.921 132.947 140.945 133.031 140.993C133.115 141.041 133.187 141.137 133.247 141.281C133.355 141.605 133.529 141.863 133.769 142.055C134.021 142.247 134.309 142.385 134.633 142.469C134.957 142.541 135.299 142.577 135.659 142.577C136.379 142.577 136.949 142.409 137.369 142.073C137.801 141.725 138.017 141.233 138.017 140.597C138.017 139.961 137.819 139.505 137.423 139.229C137.027 138.941 136.475 138.797 135.767 138.797H133.913C133.781 138.797 133.673 138.761 133.589 138.689C133.505 138.605 133.463 138.497 133.463 138.365V137.609C133.463 137.489 133.487 137.387 133.535 137.303C133.595 137.207 133.655 137.129 133.715 137.069L136.937 133.919H131.789C131.657 133.919 131.549 133.877 131.465 133.793C131.393 133.709 131.357 133.607 131.357 133.487V132.299C131.357 132.167 131.393 132.059 131.465 131.975C131.549 131.891 131.657 131.849 131.789 131.849H139.511C139.643 131.849 139.751 131.891 139.835 131.975C139.919 132.059 139.961 132.167 139.961 132.299V133.379C139.961 133.487 139.937 133.583 139.889 133.667C139.841 133.751 139.787 133.823 139.727 133.883L136.613 137.087L136.829 137.105C137.561 137.165 138.209 137.333 138.773 137.609C139.349 137.873 139.793 138.263 140.105 138.779C140.429 139.295 140.591 139.943 140.591 140.723C140.591 141.539 140.375 142.241 139.943 142.829C139.523 143.405 138.941 143.849 138.197 144.161C137.453 144.473 136.601 144.629 135.641 144.629ZM143.361 144.449C143.109 144.449 142.983 144.329 142.983 144.089C142.983 144.017 143.007 143.951 143.055 143.891L151.929 132.191C152.013 132.083 152.097 131.999 152.181 131.939C152.265 131.879 152.385 131.849 152.541 131.849H153.495C153.747 131.849 153.873 131.969 153.873 132.209C153.873 132.281 153.849 132.347 153.801 132.407L144.927 144.107C144.843 144.215 144.759 144.299 144.675 144.359C144.603 144.419 144.483 144.449 144.315 144.449H143.361ZM152.019 144.557C151.215 144.557 150.579 144.335 150.111 143.891C149.643 143.447 149.385 142.865 149.337 142.145C149.325 141.833 149.319 141.563 149.319 141.335C149.319 141.107 149.325 140.825 149.337 140.489C149.385 139.769 149.631 139.187 150.075 138.743C150.531 138.299 151.179 138.077 152.019 138.077C152.871 138.077 153.519 138.299 153.963 138.743C154.419 139.187 154.665 139.769 154.701 140.489C154.725 140.825 154.737 141.107 154.737 141.335C154.737 141.563 154.725 141.833 154.701 142.145C154.665 142.865 154.407 143.447 153.927 143.891C153.459 144.335 152.823 144.557 152.019 144.557ZM152.019 143.153C152.283 143.153 152.487 143.099 152.631 142.991C152.787 142.883 152.901 142.745 152.973 142.577C153.045 142.409 153.081 142.241 153.081 142.073C153.105 141.773 153.117 141.521 153.117 141.317C153.117 141.101 153.105 140.855 153.081 140.579C153.069 140.303 152.985 140.051 152.829 139.823C152.673 139.583 152.403 139.463 152.019 139.463C151.647 139.463 151.383 139.583 151.227 139.823C151.071 140.051 150.981 140.303 150.957 140.579C150.945 140.855 150.939 141.101 150.939 141.317C150.939 141.521 150.945 141.773 150.957 142.073C150.981 142.241 151.023 142.409 151.083 142.577C151.155 142.745 151.263 142.883 151.407 142.991C151.563 143.099 151.767 143.153 152.019 143.153ZM144.837 138.185C144.033 138.185 143.397 137.975 142.929 137.555C142.461 137.135 142.203 136.565 142.155 135.845C142.143 135.533 142.137 135.263 142.137 135.035C142.137 134.795 142.143 134.507 142.155 134.171C142.203 133.451 142.449 132.869 142.893 132.425C143.349 131.981 143.997 131.759 144.837 131.759C145.689 131.759 146.337 131.981 146.781 132.425C147.237 132.869 147.483 133.451 147.519 134.171C147.543 134.507 147.555 134.795 147.555 135.035C147.555 135.263 147.543 135.533 147.519 135.845C147.483 136.565 147.225 137.135 146.745 137.555C146.277 137.975 145.641 138.185 144.837 138.185ZM144.837 136.853C145.101 136.853 145.305 136.799 145.449 136.691C145.605 136.583 145.719 136.445 145.791 136.277C145.863 136.109 145.899 135.935 145.899 135.755C145.923 135.455 145.935 135.203 145.935 134.999C145.935 134.783 145.923 134.537 145.899 134.261C145.887 133.985 145.803 133.733 145.647 133.505C145.491 133.277 145.221 133.163 144.837 133.163C144.465 133.163 144.201 133.277 144.045 133.505C143.889 133.733 143.805 133.985 143.793 134.261C143.781 134.537 143.775 134.783 143.775 134.999C143.775 135.203 143.781 135.455 143.793 135.755C143.805 135.935 143.841 136.109 143.901 136.277C143.973 136.445 144.081 136.583 144.225 136.691C144.381 136.799 144.585 136.853 144.837 136.853Z" fill="white"/>
<path d="M134.701 233.504C134.569 233.504 134.461 233.462 134.377 233.378C134.305 233.294 134.269 233.192 134.269 233.072V223.748L131.533 225.854C131.425 225.926 131.317 225.956 131.209 225.944C131.101 225.92 131.005 225.854 130.921 225.746L130.165 224.774C130.093 224.666 130.063 224.552 130.075 224.432C130.099 224.312 130.165 224.216 130.273 224.144L134.305 221.03C134.377 220.97 134.449 220.934 134.521 220.922C134.593 220.91 134.671 220.904 134.755 220.904H136.339C136.459 220.904 136.561 220.946 136.645 221.03C136.729 221.114 136.771 221.216 136.771 221.336V233.072C136.771 233.192 136.729 233.294 136.645 233.378C136.561 233.462 136.459 233.504 136.339 233.504H134.701ZM140.657 233.504C140.549 233.504 140.459 233.468 140.387 233.396C140.315 233.312 140.279 233.216 140.279 233.108C140.279 233.06 140.291 233.006 140.315 232.946L144.653 223.046H139.001C138.869 223.046 138.761 223.004 138.677 222.92C138.605 222.836 138.569 222.734 138.569 222.614V221.354C138.569 221.222 138.605 221.114 138.677 221.03C138.761 220.946 138.869 220.904 139.001 220.904H146.903C147.035 220.904 147.137 220.946 147.209 221.03C147.293 221.114 147.335 221.222 147.335 221.354V222.47C147.335 222.638 147.317 222.782 147.281 222.902C147.257 223.01 147.221 223.124 147.173 223.244L142.871 233.072C142.835 233.156 142.769 233.252 142.673 233.36C142.589 233.456 142.463 233.504 142.295 233.504H140.657ZM149.8 233.504C149.548 233.504 149.422 233.384 149.422 233.144C149.422 233.072 149.446 233.006 149.494 232.946L158.368 221.246C158.452 221.138 158.536 221.054 158.62 220.994C158.704 220.934 158.824 220.904 158.98 220.904H159.934C160.186 220.904 160.312 221.024 160.312 221.264C160.312 221.336 160.288 221.402 160.24 221.462L151.366 233.162C151.282 233.27 151.198 233.354 151.114 233.414C151.042 233.474 150.922 233.504 150.754 233.504H149.8ZM158.458 233.612C157.654 233.612 157.018 233.39 156.55 232.946C156.082 232.502 155.824 231.92 155.776 231.2C155.764 230.888 155.758 230.618 155.758 230.39C155.758 230.162 155.764 229.88 155.776 229.544C155.824 228.824 156.07 228.242 156.514 227.798C156.97 227.354 157.618 227.132 158.458 227.132C159.31 227.132 159.958 227.354 160.402 227.798C160.858 228.242 161.104 228.824 161.14 229.544C161.164 229.88 161.176 230.162 161.176 230.39C161.176 230.618 161.164 230.888 161.14 231.2C161.104 231.92 160.846 232.502 160.366 232.946C159.898 233.39 159.262 233.612 158.458 233.612ZM158.458 232.208C158.722 232.208 158.926 232.154 159.07 232.046C159.226 231.938 159.34 231.8 159.412 231.632C159.484 231.464 159.52 231.296 159.52 231.128C159.544 230.828 159.556 230.576 159.556 230.372C159.556 230.156 159.544 229.91 159.52 229.634C159.508 229.358 159.424 229.106 159.268 228.878C159.112 228.638 158.842 228.518 158.458 228.518C158.086 228.518 157.822 228.638 157.666 228.878C157.51 229.106 157.42 229.358 157.396 229.634C157.384 229.91 157.378 230.156 157.378 230.372C157.378 230.576 157.384 230.828 157.396 231.128C157.42 231.296 157.462 231.464 157.522 231.632C157.594 231.8 157.702 231.938 157.846 232.046C158.002 232.154 158.206 232.208 158.458 232.208ZM151.276 227.24C150.472 227.24 149.836 227.03 149.368 226.61C148.9 226.19 148.642 225.62 148.594 224.9C148.582 224.588 148.576 224.318 148.576 224.09C148.576 223.85 148.582 223.562 148.594 223.226C148.642 222.506 148.888 221.924 149.332 221.48C149.788 221.036 150.436 220.814 151.276 220.814C152.128 220.814 152.776 221.036 153.22 221.48C153.676 221.924 153.922 222.506 153.958 223.226C153.982 223.562 153.994 223.85 153.994 224.09C153.994 224.318 153.982 224.588 153.958 224.9C153.922 225.62 153.664 226.19 153.184 226.61C152.716 227.03 152.08 227.24 151.276 227.24ZM151.276 225.908C151.54 225.908 151.744 225.854 151.888 225.746C152.044 225.638 152.158 225.5 152.23 225.332C152.302 225.164 152.338 224.99 152.338 224.81C152.362 224.51 152.374 224.258 152.374 224.054C152.374 223.838 152.362 223.592 152.338 223.316C152.326 223.04 152.242 222.788 152.086 222.56C151.93 222.332 151.66 222.218 151.276 222.218C150.904 222.218 150.64 222.332 150.484 222.56C150.328 222.788 150.244 223.04 150.232 223.316C150.22 223.592 150.214 223.838 150.214 224.054C150.214 224.258 150.22 224.51 150.232 224.81C150.244 224.99 150.28 225.164 150.34 225.332C150.412 225.5 150.52 225.638 150.664 225.746C150.82 225.854 151.024 225.908 151.276 225.908Z" fill="white"/>
<rect x="124.332" y="325" width="9" height="18" rx="4.5" fill="#A784FF"/>
<path d="M142.983 339H141.69L145.429 328.818H146.701L150.44 339H149.147L146.105 330.429H146.025L142.983 339ZM143.46 335.023H148.67V336.116H143.46V335.023ZM157.276 333.074L156.222 333.372C156.156 333.196 156.058 333.026 155.929 332.86C155.803 332.691 155.63 332.552 155.412 332.442C155.193 332.333 154.913 332.278 154.571 332.278C154.104 332.278 153.715 332.386 153.403 332.602C153.095 332.814 152.941 333.084 152.941 333.412C152.941 333.704 153.047 333.934 153.259 334.103C153.471 334.272 153.802 334.413 154.253 334.526L155.387 334.804C156.069 334.97 156.578 335.223 156.913 335.565C157.248 335.903 157.415 336.339 157.415 336.872C157.415 337.31 157.289 337.701 157.037 338.045C156.789 338.39 156.441 338.662 155.993 338.861C155.546 339.06 155.025 339.159 154.432 339.159C153.653 339.159 153.009 338.99 152.498 338.652C151.988 338.314 151.665 337.82 151.529 337.17L152.642 336.892C152.748 337.303 152.949 337.611 153.244 337.817C153.542 338.022 153.932 338.125 154.412 338.125C154.959 338.125 155.393 338.009 155.715 337.777C156.04 337.542 156.202 337.26 156.202 336.932C156.202 336.667 156.109 336.445 155.924 336.266C155.738 336.083 155.453 335.947 155.069 335.858L153.796 335.56C153.096 335.394 152.583 335.137 152.255 334.789C151.93 334.438 151.767 333.999 151.767 333.472C151.767 333.041 151.888 332.66 152.13 332.328C152.376 331.997 152.709 331.737 153.13 331.548C153.554 331.359 154.034 331.264 154.571 331.264C155.327 331.264 155.92 331.43 156.351 331.761C156.785 332.093 157.094 332.53 157.276 333.074ZM159.181 339V331.364H160.355V339H159.181ZM159.778 330.091C159.549 330.091 159.352 330.013 159.186 329.857C159.024 329.701 158.943 329.514 158.943 329.295C158.943 329.077 159.024 328.889 159.186 328.734C159.352 328.578 159.549 328.5 159.778 328.5C160.007 328.5 160.202 328.578 160.365 328.734C160.53 328.889 160.613 329.077 160.613 329.295C160.613 329.514 160.53 329.701 160.365 329.857C160.202 330.013 160.007 330.091 159.778 330.091ZM164.751 339.179C164.267 339.179 163.828 339.088 163.433 338.906C163.039 338.72 162.726 338.453 162.494 338.105C162.262 337.754 162.146 337.33 162.146 336.832C162.146 336.395 162.232 336.04 162.404 335.768C162.576 335.493 162.807 335.278 163.095 335.122C163.384 334.966 163.702 334.85 164.05 334.774C164.401 334.695 164.754 334.632 165.109 334.585C165.573 334.526 165.949 334.481 166.237 334.451C166.529 334.418 166.741 334.363 166.874 334.287C167.009 334.211 167.077 334.078 167.077 333.889V333.849C167.077 333.359 166.943 332.978 166.675 332.706C166.41 332.434 166.007 332.298 165.467 332.298C164.906 332.298 164.467 332.421 164.149 332.666C163.831 332.911 163.607 333.173 163.478 333.452L162.364 333.054C162.563 332.59 162.828 332.229 163.16 331.97C163.495 331.708 163.859 331.526 164.254 331.423C164.651 331.317 165.042 331.264 165.427 331.264C165.672 331.264 165.954 331.294 166.272 331.354C166.594 331.41 166.903 331.528 167.202 331.707C167.503 331.886 167.754 332.156 167.952 332.517C168.151 332.878 168.251 333.362 168.251 333.969V339H167.077V337.966H167.018C166.938 338.132 166.806 338.309 166.62 338.498C166.434 338.687 166.188 338.848 165.879 338.98C165.571 339.113 165.195 339.179 164.751 339.179ZM164.93 338.125C165.394 338.125 165.785 338.034 166.103 337.852C166.424 337.669 166.666 337.434 166.829 337.146C166.995 336.857 167.077 336.554 167.077 336.236V335.162C167.028 335.222 166.918 335.276 166.749 335.326C166.584 335.372 166.391 335.414 166.173 335.45C165.957 335.483 165.747 335.513 165.541 335.54C165.339 335.563 165.175 335.583 165.049 335.599C164.744 335.639 164.459 335.704 164.194 335.793C163.932 335.879 163.72 336.01 163.558 336.186C163.398 336.358 163.319 336.594 163.319 336.892C163.319 337.3 163.47 337.608 163.771 337.817C164.076 338.022 164.462 338.125 164.93 338.125Z" fill="#475569"/>
<rect x="283.332" y="325" width="9" height="18" rx="4.5" fill="#FFBB69"/>
<path d="M301.983 339H300.69L304.429 328.818H305.701L309.44 339H308.147L305.105 330.429H305.025L301.983 339ZM302.46 335.023H307.67V336.116H302.46V335.023ZM314.267 331.364V332.358H310.151V331.364H314.267ZM311.384 339V330.31C311.384 329.872 311.487 329.508 311.692 329.216C311.898 328.924 312.164 328.705 312.493 328.56C312.821 328.414 313.167 328.341 313.532 328.341C313.82 328.341 314.055 328.364 314.238 328.411C314.42 328.457 314.556 328.5 314.645 328.54L314.307 329.554C314.248 329.534 314.165 329.509 314.059 329.479C313.956 329.45 313.82 329.435 313.651 329.435C313.263 329.435 312.983 329.532 312.811 329.728C312.642 329.924 312.557 330.21 312.557 330.588V339H311.384ZM315.912 339V331.364H317.045V332.517H317.125C317.264 332.139 317.516 331.833 317.881 331.597C318.245 331.362 318.656 331.244 319.113 331.244C319.2 331.244 319.307 331.246 319.437 331.249C319.566 331.253 319.664 331.258 319.73 331.264V332.457C319.69 332.447 319.599 332.433 319.456 332.413C319.317 332.389 319.17 332.378 319.014 332.378C318.643 332.378 318.311 332.456 318.02 332.612C317.731 332.764 317.503 332.976 317.334 333.248C317.168 333.516 317.085 333.823 317.085 334.168V339H315.912ZM321.121 339V331.364H322.294V339H321.121ZM321.717 330.091C321.489 330.091 321.291 330.013 321.126 329.857C320.963 329.701 320.882 329.514 320.882 329.295C320.882 329.077 320.963 328.889 321.126 328.734C321.291 328.578 321.489 328.5 321.717 328.5C321.946 328.5 322.142 328.578 322.304 328.734C322.47 328.889 322.553 329.077 322.553 329.295C322.553 329.514 322.47 329.701 322.304 329.857C322.142 330.013 321.946 330.091 321.717 330.091ZM327.545 339.159C326.829 339.159 326.213 338.99 325.696 338.652C325.179 338.314 324.781 337.848 324.503 337.255C324.224 336.662 324.085 335.984 324.085 335.222C324.085 334.446 324.228 333.762 324.513 333.168C324.801 332.572 325.202 332.106 325.716 331.771C326.233 331.433 326.836 331.264 327.525 331.264C328.062 331.264 328.546 331.364 328.977 331.562C329.408 331.761 329.761 332.04 330.036 332.398C330.311 332.756 330.482 333.173 330.548 333.651H329.375C329.285 333.303 329.086 332.994 328.778 332.726C328.473 332.454 328.062 332.318 327.545 332.318C327.088 332.318 326.687 332.437 326.342 332.676C326.001 332.911 325.734 333.245 325.542 333.675C325.353 334.103 325.258 334.605 325.258 335.182C325.258 335.772 325.351 336.286 325.537 336.723C325.726 337.161 325.991 337.5 326.332 337.742C326.677 337.984 327.081 338.105 327.545 338.105C327.85 338.105 328.127 338.052 328.376 337.946C328.624 337.84 328.835 337.688 329.007 337.489C329.179 337.29 329.302 337.051 329.375 336.773H330.548C330.482 337.223 330.318 337.629 330.056 337.991C329.797 338.349 329.454 338.634 329.027 338.846C328.603 339.055 328.109 339.159 327.545 339.159ZM334.51 339.179C334.027 339.179 333.587 339.088 333.193 338.906C332.799 338.72 332.485 338.453 332.253 338.105C332.021 337.754 331.905 337.33 331.905 336.832C331.905 336.395 331.992 336.04 332.164 335.768C332.336 335.493 332.567 335.278 332.855 335.122C333.143 334.966 333.461 334.85 333.809 334.774C334.161 334.695 334.514 334.632 334.868 334.585C335.332 334.526 335.709 334.481 335.997 334.451C336.289 334.418 336.501 334.363 336.633 334.287C336.769 334.211 336.837 334.078 336.837 333.889V333.849C336.837 333.359 336.703 332.978 336.434 332.706C336.169 332.434 335.767 332.298 335.226 332.298C334.666 332.298 334.227 332.421 333.909 332.666C333.591 332.911 333.367 333.173 333.238 333.452L332.124 333.054C332.323 332.59 332.588 332.229 332.92 331.97C333.254 331.708 333.619 331.526 334.013 331.423C334.411 331.317 334.802 331.264 335.187 331.264C335.432 331.264 335.714 331.294 336.032 331.354C336.353 331.41 336.663 331.528 336.961 331.707C337.263 331.886 337.513 332.156 337.712 332.517C337.911 332.878 338.01 333.362 338.01 333.969V339H336.837V337.966H336.778C336.698 338.132 336.565 338.309 336.38 338.498C336.194 338.687 335.947 338.848 335.639 338.98C335.331 339.113 334.955 339.179 334.51 339.179ZM334.689 338.125C335.153 338.125 335.545 338.034 335.863 337.852C336.184 337.669 336.426 337.434 336.589 337.146C336.754 336.857 336.837 336.554 336.837 336.236V335.162C336.787 335.222 336.678 335.276 336.509 335.326C336.343 335.372 336.151 335.414 335.932 335.45C335.717 335.483 335.506 335.513 335.301 335.54C335.099 335.563 334.935 335.583 334.809 335.599C334.504 335.639 334.219 335.704 333.954 335.793C333.692 335.879 333.48 336.01 333.317 336.186C333.158 336.358 333.079 336.594 333.079 336.892C333.079 337.3 333.229 337.608 333.531 337.817C333.836 338.022 334.222 338.125 334.689 338.125Z" fill="#475569"/>
<rect x="195.332" y="325" width="9" height="18" rx="4.5" fill="#D55459"/>
<path d="M213.565 339V328.818H219.71V329.912H214.798V333.352H219.392V334.446H214.798V337.906H219.789V339H213.565ZM226.586 335.878V331.364H227.759V339H226.586V337.707H226.506C226.327 338.095 226.049 338.425 225.671 338.697C225.293 338.965 224.816 339.099 224.239 339.099C223.762 339.099 223.337 338.995 222.966 338.786C222.595 338.574 222.303 338.256 222.091 337.832C221.879 337.404 221.773 336.866 221.773 336.216V331.364H222.946V336.136C222.946 336.693 223.102 337.137 223.414 337.469C223.729 337.8 224.13 337.966 224.617 337.966C224.908 337.966 225.205 337.891 225.507 337.742C225.812 337.593 226.067 337.364 226.272 337.056C226.481 336.748 226.586 336.355 226.586 335.878ZM229.908 339V331.364H231.041V332.517H231.121C231.26 332.139 231.512 331.833 231.877 331.597C232.241 331.362 232.652 331.244 233.11 331.244C233.196 331.244 233.303 331.246 233.433 331.249C233.562 331.253 233.66 331.258 233.726 331.264V332.457C233.686 332.447 233.595 332.433 233.453 332.413C233.313 332.389 233.166 332.378 233.01 332.378C232.639 332.378 232.307 332.456 232.016 332.612C231.727 332.764 231.499 332.976 231.33 333.248C231.164 333.516 231.081 333.823 231.081 334.168V339H229.908ZM237.987 339.159C237.297 339.159 236.692 338.995 236.172 338.667C235.655 338.339 235.251 337.88 234.959 337.29C234.671 336.7 234.526 336.01 234.526 335.222C234.526 334.426 234.671 333.732 234.959 333.138C235.251 332.545 235.655 332.085 236.172 331.756C236.692 331.428 237.297 331.264 237.987 331.264C238.676 331.264 239.279 331.428 239.796 331.756C240.317 332.085 240.721 332.545 241.009 333.138C241.301 333.732 241.447 334.426 241.447 335.222C241.447 336.01 241.301 336.7 241.009 337.29C240.721 337.88 240.317 338.339 239.796 338.667C239.279 338.995 238.676 339.159 237.987 339.159ZM237.987 338.105C238.51 338.105 238.941 337.971 239.279 337.702C239.617 337.434 239.868 337.081 240.03 336.643C240.192 336.206 240.274 335.732 240.274 335.222C240.274 334.711 240.192 334.236 240.03 333.795C239.868 333.354 239.617 332.998 239.279 332.726C238.941 332.454 238.51 332.318 237.987 332.318C237.463 332.318 237.032 332.454 236.694 332.726C236.356 332.998 236.106 333.354 235.943 333.795C235.781 334.236 235.7 334.711 235.7 335.222C235.7 335.732 235.781 336.206 235.943 336.643C236.106 337.081 236.356 337.434 236.694 337.702C237.032 337.971 237.463 338.105 237.987 338.105ZM243.238 341.864V331.364H244.371V332.577H244.511C244.597 332.444 244.716 332.275 244.869 332.07C245.024 331.861 245.246 331.675 245.535 331.513C245.826 331.347 246.221 331.264 246.718 331.264C247.361 331.264 247.928 331.425 248.418 331.746C248.909 332.068 249.292 332.524 249.567 333.114C249.842 333.704 249.979 334.4 249.979 335.202C249.979 336.01 249.842 336.711 249.567 337.305C249.292 337.895 248.911 338.352 248.423 338.677C247.936 338.998 247.374 339.159 246.738 339.159C246.247 339.159 245.855 339.078 245.56 338.915C245.265 338.75 245.038 338.562 244.879 338.354C244.719 338.142 244.597 337.966 244.511 337.827H244.411V341.864H243.238ZM244.391 335.182C244.391 335.759 244.476 336.267 244.645 336.708C244.814 337.146 245.061 337.489 245.386 337.737C245.71 337.982 246.108 338.105 246.579 338.105C247.069 338.105 247.479 337.976 247.807 337.717C248.138 337.455 248.387 337.104 248.553 336.663C248.722 336.219 248.806 335.725 248.806 335.182C248.806 334.645 248.723 334.161 248.558 333.73C248.395 333.296 248.148 332.953 247.817 332.701C247.489 332.446 247.076 332.318 246.579 332.318C246.102 332.318 245.701 332.439 245.376 332.681C245.051 332.92 244.806 333.254 244.64 333.685C244.474 334.113 244.391 334.612 244.391 335.182ZM254.971 339.159C254.235 339.159 253.6 338.997 253.067 338.672C252.536 338.344 252.127 337.886 251.839 337.3C251.554 336.71 251.411 336.024 251.411 335.241C251.411 334.459 251.554 333.77 251.839 333.173C252.127 332.573 252.528 332.106 253.042 331.771C253.559 331.433 254.162 331.264 254.852 331.264C255.249 331.264 255.642 331.33 256.03 331.463C256.418 331.596 256.771 331.811 257.089 332.109C257.407 332.404 257.661 332.795 257.849 333.283C258.038 333.77 258.133 334.37 258.133 335.082V335.58H252.246V334.565H256.94C256.94 334.134 256.853 333.75 256.681 333.412C256.512 333.074 256.27 332.807 255.955 332.612C255.644 332.416 255.276 332.318 254.852 332.318C254.384 332.318 253.98 332.434 253.638 332.666C253.3 332.895 253.04 333.193 252.858 333.561C252.676 333.929 252.585 334.323 252.585 334.744V335.42C252.585 335.997 252.684 336.486 252.883 336.887C253.085 337.285 253.365 337.588 253.723 337.797C254.081 338.002 254.497 338.105 254.971 338.105C255.279 338.105 255.558 338.062 255.806 337.976C256.058 337.886 256.275 337.754 256.457 337.578C256.64 337.399 256.781 337.177 256.88 336.912L258.013 337.23C257.894 337.615 257.694 337.953 257.412 338.244C257.13 338.533 256.782 338.758 256.368 338.92C255.954 339.08 255.488 339.159 254.971 339.159Z" fill="#475569"/>
<rect x="28.332" y="325" width="9" height="18" rx="4.5" fill="#54AB78"/>
<path d="M46.9826 339H45.69L49.4286 328.818H50.7013L54.44 339H53.1474L50.1048 330.429H50.0252L46.9826 339ZM47.4599 335.023H52.6701V336.116H47.4599V335.023ZM55.8668 339V331.364H57.0004V332.557H57.0998C57.2589 332.149 57.5157 331.833 57.8704 331.607C58.225 331.379 58.6509 331.264 59.1481 331.264C59.6519 331.264 60.0711 331.379 60.4059 331.607C60.744 331.833 61.0075 332.149 61.1964 332.557H61.2759C61.4715 332.162 61.7648 331.849 62.1559 331.617C62.547 331.382 63.016 331.264 63.5629 331.264C64.2456 331.264 64.8041 331.478 65.2383 331.906C65.6725 332.33 65.8896 332.991 65.8896 333.889V339H64.7163V333.889C64.7163 333.326 64.5621 332.923 64.2539 332.681C63.9457 332.439 63.5827 332.318 63.1651 332.318C62.6282 332.318 62.2122 332.481 61.9173 332.805C61.6223 333.127 61.4748 333.535 61.4748 334.028V339H60.2816V333.77C60.2816 333.336 60.1407 332.986 59.859 332.721C59.5773 332.452 59.2144 332.318 58.7702 332.318C58.4653 332.318 58.1803 332.399 57.9151 332.562C57.6533 332.724 57.4412 332.95 57.2788 333.238C57.1197 333.523 57.0401 333.853 57.0401 334.227V339H55.8668ZM71.2365 339.159C70.5007 339.159 69.866 338.997 69.3324 338.672C68.8021 338.344 68.3928 337.886 68.1044 337.3C67.8194 336.71 67.6768 336.024 67.6768 335.241C67.6768 334.459 67.8194 333.77 68.1044 333.173C68.3928 332.573 68.7938 332.106 69.3075 331.771C69.8246 331.433 70.4278 331.264 71.1172 331.264C71.5149 331.264 71.9077 331.33 72.2955 331.463C72.6832 331.596 73.0362 331.811 73.3544 332.109C73.6726 332.404 73.9261 332.795 74.1151 333.283C74.304 333.77 74.3984 334.37 74.3984 335.082V335.58H68.5121V334.565H73.2053C73.2053 334.134 73.1191 333.75 72.9467 333.412C72.7777 333.074 72.5357 332.807 72.2209 332.612C71.9093 332.416 71.5414 332.318 71.1172 332.318C70.6499 332.318 70.2455 332.434 69.9041 332.666C69.5661 332.895 69.3059 333.193 69.1236 333.561C68.9413 333.929 68.8501 334.323 68.8501 334.744V335.42C68.8501 335.997 68.9496 336.486 69.1484 336.887C69.3506 337.285 69.6307 337.588 69.9886 337.797C70.3466 338.002 70.7625 338.105 71.2365 338.105C71.5447 338.105 71.8232 338.062 72.0717 337.976C72.3236 337.886 72.5407 337.754 72.723 337.578C72.9053 337.399 73.0462 337.177 73.1456 336.912L74.2791 337.23C74.1598 337.615 73.9593 337.953 73.6776 338.244C73.3958 338.533 73.0478 338.758 72.6335 338.92C72.2192 339.08 71.7536 339.159 71.2365 339.159ZM76.1832 339V331.364H77.3168V332.517H77.3963C77.5355 332.139 77.7874 331.833 78.152 331.597C78.5166 331.362 78.9276 331.244 79.3849 331.244C79.4711 331.244 79.5788 331.246 79.7081 331.249C79.8374 331.253 79.9351 331.258 80.0014 331.264V332.457C79.9616 332.447 79.8705 332.433 79.728 332.413C79.5888 332.389 79.4413 332.378 79.2855 332.378C78.9143 332.378 78.5829 332.456 78.2912 332.612C78.0028 332.764 77.7741 332.976 77.6051 333.248C77.4394 333.516 77.3565 333.823 77.3565 334.168V339H76.1832ZM81.3922 339V331.364H82.5655V339H81.3922ZM81.9888 330.091C81.7601 330.091 81.5629 330.013 81.3972 329.857C81.2348 329.701 81.1536 329.514 81.1536 329.295C81.1536 329.077 81.2348 328.889 81.3972 328.734C81.5629 328.578 81.7601 328.5 81.9888 328.5C82.2175 328.5 82.4131 328.578 82.5755 328.734C82.7412 328.889 82.824 329.077 82.824 329.295C82.824 329.514 82.7412 329.701 82.5755 329.857C82.4131 330.013 82.2175 330.091 81.9888 330.091ZM87.8168 339.159C87.1009 339.159 86.4844 338.99 85.9673 338.652C85.4503 338.314 85.0526 337.848 84.7741 337.255C84.4957 336.662 84.3565 335.984 84.3565 335.222C84.3565 334.446 84.4991 333.762 84.7841 333.168C85.0724 332.572 85.4735 332.106 85.9872 331.771C86.5043 331.433 87.1075 331.264 87.7969 331.264C88.3338 331.264 88.8177 331.364 89.2486 331.562C89.6795 331.761 90.0324 332.04 90.3075 332.398C90.5826 332.756 90.7533 333.173 90.8196 333.651H89.6463C89.5568 333.303 89.358 332.994 89.0497 332.726C88.7448 332.454 88.3338 332.318 87.8168 332.318C87.3594 332.318 86.9583 332.437 86.6136 332.676C86.2723 332.911 86.0054 333.245 85.8132 333.675C85.6243 334.103 85.5298 334.605 85.5298 335.182C85.5298 335.772 85.6226 336.286 85.8082 336.723C85.9972 337.161 86.2623 337.5 86.6037 337.742C86.9484 337.984 87.3527 338.105 87.8168 338.105C88.1217 338.105 88.3984 338.052 88.647 337.946C88.8956 337.84 89.1061 337.688 89.2784 337.489C89.4508 337.29 89.5734 337.051 89.6463 336.773H90.8196C90.7533 337.223 90.5893 337.629 90.3274 337.991C90.0689 338.349 89.7259 338.634 89.2983 338.846C88.8741 339.055 88.3802 339.159 87.8168 339.159ZM94.782 339.179C94.2981 339.179 93.8589 339.088 93.4645 338.906C93.0701 338.72 92.7569 338.453 92.5249 338.105C92.2929 337.754 92.1768 337.33 92.1768 336.832C92.1768 336.395 92.263 336.04 92.4354 335.768C92.6077 335.493 92.8381 335.278 93.1264 335.122C93.4148 334.966 93.733 334.85 94.081 334.774C94.4323 334.695 94.7853 334.632 95.1399 334.585C95.6039 334.526 95.9801 334.481 96.2685 334.451C96.5601 334.418 96.7723 334.363 96.9048 334.287C97.0407 334.211 97.1087 334.078 97.1087 333.889V333.849C97.1087 333.359 96.9744 332.978 96.706 332.706C96.4408 332.434 96.0381 332.298 95.4979 332.298C94.9377 332.298 94.4986 332.421 94.1804 332.666C93.8622 332.911 93.6385 333.173 93.5092 333.452L92.3956 333.054C92.5945 332.59 92.8596 332.229 93.1911 331.97C93.5258 331.708 93.8904 331.526 94.2848 331.423C94.6825 331.317 95.0736 331.264 95.4581 331.264C95.7034 331.264 95.9851 331.294 96.3033 331.354C96.6248 331.41 96.9347 331.528 97.233 331.707C97.5346 331.886 97.7848 332.156 97.9837 332.517C98.1825 332.878 98.282 333.362 98.282 333.969V339H97.1087V337.966H97.049C96.9695 338.132 96.8369 338.309 96.6513 338.498C96.4657 338.687 96.2188 338.848 95.9105 338.98C95.6023 339.113 95.2261 339.179 94.782 339.179ZM94.9609 338.125C95.425 338.125 95.8161 338.034 96.1342 337.852C96.4557 337.669 96.6977 337.434 96.8601 337.146C97.0258 336.857 97.1087 336.554 97.1087 336.236V335.162C97.0589 335.222 96.9496 335.276 96.7805 335.326C96.6148 335.372 96.4226 335.414 96.2038 335.45C95.9884 335.483 95.7779 335.513 95.5724 335.54C95.3703 335.563 95.2062 335.583 95.0803 335.599C94.7753 335.639 94.4903 335.704 94.2251 335.793C93.9633 335.879 93.7512 336.01 93.5888 336.186C93.4297 336.358 93.3501 336.594 93.3501 336.892C93.3501 337.3 93.5009 337.608 93.8026 337.817C94.1075 338.022 94.4936 338.125 94.9609 338.125Z" fill="#475569"/>
</svg>
