<svg width="367" height="368" viewBox="0 0 367 368" fill="none" xmlns="http://www.w3.org/2000/svg">
<rect x="0.5" y="0.5" width="365.667" height="367" rx="15.5" fill="white"/>
<rect x="0.5" y="0.5" width="365.667" height="367" rx="15.5" stroke="#E6ECF4"/>
<path d="M37.8849 35.3622H35.2287C35.1529 34.9266 35.0133 34.5407 34.8097 34.2045C34.6061 33.8636 34.3527 33.5748 34.0497 33.3381C33.7467 33.1013 33.401 32.9238 33.0128 32.8054C32.6293 32.6823 32.215 32.6207 31.7699 32.6207C30.9792 32.6207 30.2784 32.8196 29.6676 33.2173C29.0568 33.6103 28.5786 34.188 28.233 34.9503C27.8873 35.7079 27.7145 36.6335 27.7145 37.7273C27.7145 38.84 27.8873 39.7775 28.233 40.5398C28.5833 41.2973 29.0616 41.8703 29.6676 42.2585C30.2784 42.642 30.9768 42.8338 31.7628 42.8338C32.1984 42.8338 32.6056 42.777 32.9844 42.6634C33.3679 42.545 33.7112 42.3722 34.0142 42.1449C34.322 41.9176 34.58 41.6383 34.7884 41.3068C35.0014 40.9754 35.1482 40.5966 35.2287 40.1705L37.8849 40.1847C37.7855 40.8759 37.5701 41.5246 37.2386 42.1307C36.9119 42.7367 36.4834 43.2718 35.9531 43.7358C35.4228 44.1951 34.8026 44.5549 34.0923 44.8153C33.3821 45.071 32.5938 45.1989 31.7273 45.1989C30.4489 45.1989 29.3078 44.9029 28.304 44.3111C27.3002 43.7192 26.5095 42.8646 25.9318 41.7472C25.3542 40.6297 25.0653 39.2898 25.0653 37.7273C25.0653 36.16 25.3565 34.8201 25.9389 33.7074C26.5213 32.59 27.3144 31.7353 28.3182 31.1435C29.322 30.5516 30.4583 30.2557 31.7273 30.2557C32.5369 30.2557 33.2898 30.3693 33.9858 30.5966C34.6818 30.8239 35.3021 31.1577 35.8466 31.598C36.3911 32.0336 36.8385 32.5687 37.1889 33.2031C37.544 33.8329 37.776 34.5526 37.8849 35.3622ZM40.1843 45V34.0909H42.6772V35.9091H42.7908C42.9897 35.2794 43.3306 34.794 43.8136 34.4531C44.3013 34.1075 44.8576 33.9347 45.4826 33.9347C45.6246 33.9347 45.7833 33.9418 45.9585 33.956C46.1384 33.9654 46.2875 33.982 46.4059 34.0057V36.3707C46.297 36.3329 46.1242 36.2997 45.8874 36.2713C45.6554 36.2382 45.4305 36.2216 45.2127 36.2216C44.744 36.2216 44.3226 36.3234 43.9485 36.527C43.5792 36.7259 43.288 37.0028 43.0749 37.358C42.8619 37.7131 42.7553 38.1226 42.7553 38.5866V45H40.1843ZM52.4943 45.2131C51.4006 45.2131 50.456 44.9858 49.6605 44.5312C48.8698 44.072 48.2614 43.4233 47.8352 42.5852C47.4091 41.7424 47.196 40.7505 47.196 39.6094C47.196 38.4872 47.4091 37.5024 47.8352 36.6548C48.2661 35.8026 48.8674 35.1397 49.6392 34.6662C50.411 34.188 51.3177 33.9489 52.3594 33.9489C53.0317 33.9489 53.6662 34.0578 54.2628 34.2756C54.8641 34.4886 55.3944 34.8201 55.8537 35.2699C56.3177 35.7197 56.6823 36.2926 56.9474 36.9886C57.2126 37.6799 57.3452 38.5038 57.3452 39.4602V40.2486H48.4034V38.5156H54.8807C54.8759 38.0232 54.7694 37.5852 54.5611 37.2017C54.3527 36.8134 54.0616 36.508 53.6875 36.2855C53.3182 36.063 52.8873 35.9517 52.3949 35.9517C51.8693 35.9517 51.4077 36.0795 51.0099 36.3352C50.6122 36.5862 50.3021 36.9176 50.0795 37.3295C49.8617 37.7367 49.7505 38.1842 49.7457 38.6719V40.1847C49.7457 40.8191 49.8617 41.3636 50.0938 41.8182C50.3258 42.268 50.6501 42.6136 51.0668 42.8551C51.4834 43.0919 51.9711 43.2102 52.5298 43.2102C52.9039 43.2102 53.2424 43.1581 53.5455 43.054C53.8485 42.9451 54.1113 42.7865 54.3338 42.5781C54.5563 42.3698 54.7244 42.1117 54.8381 41.804L57.2386 42.0739C57.0871 42.7083 56.7983 43.2623 56.3722 43.7358C55.9508 44.2045 55.411 44.5691 54.7528 44.8295C54.0947 45.0852 53.3419 45.2131 52.4943 45.2131ZM63.5685 45.1918C62.7115 45.1918 61.9445 44.9716 61.2674 44.5312C60.5903 44.0909 60.0553 43.4517 59.6623 42.6136C59.2693 41.7756 59.0728 40.7576 59.0728 39.5597C59.0728 38.3475 59.2717 37.3248 59.6694 36.4915C60.0719 35.6534 60.614 35.0213 61.2958 34.5952C61.9776 34.1643 62.7376 33.9489 63.5756 33.9489C64.2148 33.9489 64.7404 34.0578 65.1523 34.2756C65.5643 34.4886 65.891 34.7467 66.1325 35.0497C66.3739 35.348 66.561 35.6297 66.6935 35.8949H66.8001V30.4545H69.3782V45H66.8498V43.2812H66.6935C66.561 43.5464 66.3692 43.8281 66.1183 44.1264C65.8673 44.42 65.5359 44.6709 65.1239 44.8793C64.712 45.0876 64.1935 45.1918 63.5685 45.1918ZM64.2859 43.0824C64.8304 43.0824 65.2944 42.9356 65.6779 42.642C66.0614 42.3437 66.3526 41.9295 66.5515 41.3991C66.7504 40.8688 66.8498 40.2509 66.8498 39.5455C66.8498 38.84 66.7504 38.2268 66.5515 37.706C66.3574 37.1851 66.0685 36.7803 65.685 36.4915C65.3062 36.2027 64.8398 36.0582 64.2859 36.0582C63.713 36.0582 63.2347 36.2074 62.8512 36.5057C62.4677 36.804 62.1789 37.2159 61.9847 37.7415C61.7906 38.267 61.6935 38.8684 61.6935 39.5455C61.6935 40.2273 61.7906 40.8357 61.9847 41.3707C62.1836 41.901 62.4748 42.3201 62.8583 42.6278C63.2466 42.9309 63.7224 43.0824 64.2859 43.0824ZM72.1179 45V34.0909H74.6889V45H72.1179ZM73.4105 32.5426C73.0033 32.5426 72.6529 32.4077 72.3594 32.1378C72.0658 31.8632 71.919 31.5341 71.919 31.1506C71.919 30.7623 72.0658 30.4332 72.3594 30.1634C72.6529 29.8887 73.0033 29.7514 73.4105 29.7514C73.8224 29.7514 74.1728 29.8887 74.4616 30.1634C74.7552 30.4332 74.902 30.7623 74.902 31.1506C74.902 31.5341 74.7552 31.8632 74.4616 32.1378C74.1728 32.4077 73.8224 32.5426 73.4105 32.5426ZM82.7802 34.0909V36.0795H76.5089V34.0909H82.7802ZM78.0572 31.4773H80.6282V41.7188C80.6282 42.0644 80.6803 42.3295 80.7844 42.5142C80.8933 42.6941 81.0354 42.8172 81.2106 42.8835C81.3858 42.9498 81.5799 42.983 81.793 42.983C81.954 42.983 82.1007 42.9711 82.2333 42.9474C82.3706 42.9238 82.4748 42.9025 82.5458 42.8835L82.979 44.8935C82.8417 44.9408 82.6452 44.9929 82.3896 45.0497C82.1386 45.1065 81.8308 45.1397 81.4663 45.1491C80.8223 45.1681 80.2423 45.071 79.7262 44.858C79.2101 44.6402 78.8005 44.304 78.4975 43.8494C78.1992 43.3949 78.0524 42.8267 78.0572 42.1449V31.4773ZM97.9098 34.4531C97.8435 33.8329 97.5642 33.3499 97.0717 33.0043C96.584 32.6586 95.9496 32.4858 95.1683 32.4858C94.6191 32.4858 94.148 32.5687 93.755 32.7344C93.362 32.9001 93.0613 33.125 92.853 33.4091C92.6446 33.6932 92.5381 34.0175 92.5334 34.3821C92.5334 34.6851 92.602 34.9479 92.7393 35.1705C92.8814 35.393 93.0732 35.5824 93.3146 35.7386C93.5561 35.8902 93.8236 36.018 94.1172 36.1222C94.4107 36.2263 94.7067 36.3139 95.005 36.3849L96.3686 36.7259C96.9179 36.8537 97.4458 37.0265 97.9524 37.2443C98.4638 37.4621 98.9207 37.7367 99.3232 38.0682C99.7304 38.3996 100.052 38.7997 100.289 39.2685C100.526 39.7372 100.644 40.2865 100.644 40.9162C100.644 41.7685 100.426 42.5189 99.9908 43.1676C99.5552 43.8116 98.9254 44.3158 98.1016 44.6804C97.2824 45.0402 96.2905 45.2202 95.1257 45.2202C93.9941 45.2202 93.0116 45.045 92.1783 44.6946C91.3497 44.3442 90.701 43.8329 90.2322 43.1605C89.7682 42.4882 89.5173 41.669 89.4794 40.7031H92.0717C92.1096 41.2098 92.2659 41.6312 92.5405 41.9673C92.8151 42.3035 93.1726 42.5545 93.6129 42.7202C94.058 42.8859 94.5552 42.9688 95.1044 42.9688C95.6773 42.9688 96.1792 42.8835 96.6101 42.7131C97.0457 42.5379 97.3866 42.2964 97.6328 41.9886C97.879 41.6761 98.0045 41.3116 98.0092 40.8949C98.0045 40.5161 97.8932 40.2036 97.6754 39.9574C97.4576 39.7064 97.1522 39.4981 96.7592 39.3324C96.371 39.1619 95.9164 39.0104 95.3956 38.8778L93.7408 38.4517C92.5429 38.1439 91.5959 37.6776 90.8999 37.0526C90.2086 36.4228 89.8629 35.5871 89.8629 34.5455C89.8629 33.6884 90.0949 32.938 90.5589 32.294C91.0277 31.6501 91.6645 31.1506 92.4695 30.7955C93.2744 30.4356 94.1858 30.2557 95.2038 30.2557C96.236 30.2557 97.1404 30.4356 97.9169 30.7955C98.6982 31.1506 99.3113 31.6454 99.7564 32.2798C100.201 32.9096 100.431 33.634 100.445 34.4531H97.9098ZM108.327 34.0909V36.0795H102.056V34.0909H108.327ZM103.604 31.4773H106.175V41.7188C106.175 42.0644 106.227 42.3295 106.331 42.5142C106.44 42.6941 106.582 42.8172 106.757 42.8835C106.933 42.9498 107.127 42.983 107.34 42.983C107.501 42.983 107.648 42.9711 107.78 42.9474C107.917 42.9238 108.022 42.9025 108.093 42.8835L108.526 44.8935C108.389 44.9408 108.192 44.9929 107.936 45.0497C107.685 45.1065 107.378 45.1397 107.013 45.1491C106.369 45.1681 105.789 45.071 105.273 44.858C104.757 44.6402 104.347 44.304 104.044 43.8494C103.746 43.3949 103.599 42.8267 103.604 42.1449V31.4773ZM113.616 45.2202C112.925 45.2202 112.303 45.0971 111.749 44.8509C111.199 44.5999 110.764 44.2306 110.442 43.7429C110.125 43.2552 109.966 42.6539 109.966 41.9389C109.966 41.3234 110.08 40.8144 110.307 40.4119C110.534 40.0095 110.844 39.6875 111.237 39.446C111.63 39.2045 112.073 39.0223 112.565 38.8991C113.063 38.7713 113.576 38.679 114.107 38.6222C114.746 38.5559 115.264 38.4967 115.662 38.4446C116.06 38.3878 116.348 38.3026 116.528 38.1889C116.713 38.0705 116.805 37.8883 116.805 37.642V37.5994C116.805 37.0644 116.647 36.6501 116.33 36.3565C116.012 36.063 115.555 35.9162 114.959 35.9162C114.329 35.9162 113.83 36.0535 113.46 36.3281C113.096 36.6027 112.849 36.9271 112.722 37.3011L110.321 36.9602C110.51 36.2973 110.823 35.7434 111.259 35.2983C111.694 34.8485 112.227 34.5123 112.857 34.2898C113.486 34.0625 114.182 33.9489 114.945 33.9489C115.47 33.9489 115.993 34.0104 116.514 34.1335C117.035 34.2566 117.511 34.4602 117.942 34.7443C118.373 35.0237 118.718 35.4048 118.979 35.8878C119.244 36.3707 119.376 36.9744 119.376 37.6989V45H116.905V43.5014H116.82C116.663 43.8045 116.443 44.0885 116.159 44.3537C115.88 44.6141 115.527 44.8248 115.101 44.9858C114.679 45.142 114.185 45.2202 113.616 45.2202ZM114.284 43.331C114.8 43.331 115.248 43.2292 115.626 43.0256C116.005 42.8172 116.296 42.5426 116.5 42.2017C116.708 41.8608 116.812 41.4891 116.812 41.0866V39.8011C116.732 39.8674 116.595 39.929 116.401 39.9858C116.211 40.0426 115.998 40.0923 115.761 40.1349C115.525 40.1776 115.29 40.2154 115.058 40.2486C114.826 40.2817 114.625 40.3101 114.455 40.3338C114.071 40.3859 113.728 40.4711 113.425 40.5895C113.122 40.7079 112.883 40.8736 112.707 41.0866C112.532 41.295 112.445 41.5649 112.445 41.8963C112.445 42.3698 112.617 42.7273 112.963 42.9688C113.309 43.2102 113.749 43.331 114.284 43.331ZM127.409 34.0909V36.0795H121.138V34.0909H127.409ZM122.686 31.4773H125.257V41.7188C125.257 42.0644 125.309 42.3295 125.413 42.5142C125.522 42.6941 125.664 42.8172 125.839 42.8835C126.015 42.9498 126.209 42.983 126.422 42.983C126.583 42.983 126.73 42.9711 126.862 42.9474C127 42.9238 127.104 42.9025 127.175 42.8835L127.608 44.8935C127.471 44.9408 127.274 44.9929 127.018 45.0497C126.768 45.1065 126.46 45.1397 126.095 45.1491C125.451 45.1681 124.871 45.071 124.355 44.858C123.839 44.6402 123.429 44.304 123.126 43.8494C122.828 43.3949 122.681 42.8267 122.686 42.1449V31.4773ZM136.512 40.4119V34.0909H139.083V45H136.591V43.0611H136.477C136.231 43.6719 135.826 44.1714 135.262 44.5597C134.704 44.9479 134.015 45.142 133.196 45.142C132.481 45.142 131.849 44.9834 131.299 44.6662C130.755 44.3442 130.329 43.8778 130.021 43.267C129.713 42.6515 129.559 41.9081 129.559 41.0369V34.0909H132.13V40.6392C132.13 41.3305 132.32 41.8797 132.699 42.2869C133.077 42.6941 133.574 42.8977 134.19 42.8977C134.569 42.8977 134.936 42.8054 135.291 42.6207C135.646 42.4361 135.937 42.1615 136.164 41.7969C136.396 41.4276 136.512 40.9659 136.512 40.4119ZM150.349 36.9744L148.006 37.2301C147.939 36.9934 147.823 36.7708 147.658 36.5625C147.497 36.3542 147.279 36.1861 147.004 36.0582C146.73 35.9304 146.393 35.8665 145.996 35.8665C145.461 35.8665 145.011 35.9825 144.646 36.2145C144.286 36.4465 144.109 36.7472 144.114 37.1165C144.109 37.4337 144.225 37.6918 144.462 37.8906C144.703 38.0895 145.101 38.2528 145.655 38.3807L147.516 38.7784C148.548 39.0009 149.315 39.3537 149.817 39.8366C150.323 40.3196 150.579 40.9517 150.584 41.733C150.579 42.4195 150.378 43.0256 149.98 43.5511C149.587 44.072 149.04 44.4792 148.339 44.7727C147.639 45.0663 146.834 45.2131 145.925 45.2131C144.589 45.2131 143.515 44.9337 142.7 44.375C141.886 43.8116 141.401 43.0279 141.244 42.0241L143.751 41.7827C143.865 42.2751 144.107 42.6468 144.476 42.8977C144.845 43.1487 145.326 43.2741 145.918 43.2741C146.528 43.2741 147.018 43.1487 147.388 42.8977C147.762 42.6468 147.949 42.3366 147.949 41.9673C147.949 41.6548 147.828 41.3968 147.587 41.1932C147.35 40.9896 146.981 40.8333 146.479 40.7244L144.618 40.3338C143.571 40.116 142.797 39.7491 142.295 39.233C141.794 38.7121 141.545 38.054 141.55 37.2585C141.545 36.5862 141.727 36.0038 142.097 35.5114C142.471 35.0142 142.989 34.6307 143.652 34.3608C144.32 34.0862 145.089 33.9489 145.96 33.9489C147.239 33.9489 148.245 34.2211 148.979 34.7656C149.717 35.3101 150.174 36.0464 150.349 36.9744Z" fill="#0F172A"/>
<path d="M80.4627 323.818H81.6957V331.097C81.6957 331.746 81.5763 332.298 81.3377 332.752C81.0991 333.206 80.7627 333.551 80.3285 333.786C79.8943 334.022 79.3822 334.139 78.7923 334.139C78.2354 334.139 77.7399 334.038 77.3058 333.836C76.8716 333.63 76.5302 333.339 76.2816 332.961C76.033 332.583 75.9087 332.134 75.9087 331.614H77.1218C77.1218 331.902 77.1931 332.154 77.3356 332.369C77.4814 332.581 77.6803 332.747 77.9322 332.866C78.1841 332.986 78.4708 333.045 78.7923 333.045C79.1469 333.045 79.4485 332.971 79.6971 332.822C79.9457 332.673 80.1346 332.454 80.2638 332.165C80.3964 331.874 80.4627 331.518 80.4627 331.097V323.818ZM86.2546 334.179C85.7707 334.179 85.3316 334.088 84.9371 333.906C84.5427 333.72 84.2295 333.453 83.9975 333.105C83.7655 332.754 83.6495 332.33 83.6495 331.832C83.6495 331.395 83.7357 331.04 83.908 330.768C84.0804 330.493 84.3107 330.278 84.5991 330.122C84.8874 329.966 85.2056 329.85 85.5536 329.774C85.9049 329.695 86.2579 329.632 86.6126 329.585C87.0766 329.526 87.4528 329.481 87.7411 329.451C88.0328 329.418 88.2449 329.363 88.3775 329.287C88.5134 329.211 88.5813 329.078 88.5813 328.889V328.849C88.5813 328.359 88.4471 327.978 88.1786 327.706C87.9135 327.434 87.5108 327.298 86.9705 327.298C86.4104 327.298 85.9712 327.421 85.6531 327.666C85.3349 327.911 85.1112 328.173 84.9819 328.452L83.8683 328.054C84.0671 327.59 84.3323 327.229 84.6637 326.97C84.9985 326.708 85.363 326.526 85.7575 326.423C86.1552 326.317 86.5463 326.264 86.9308 326.264C87.176 326.264 87.4577 326.294 87.7759 326.354C88.0974 326.41 88.4073 326.528 88.7056 326.707C89.0072 326.886 89.2575 327.156 89.4563 327.517C89.6552 327.878 89.7546 328.362 89.7546 328.969V334H88.5813V332.966H88.5217C88.4421 333.132 88.3095 333.309 88.1239 333.498C87.9383 333.687 87.6914 333.848 87.3832 333.98C87.0749 334.113 86.6987 334.179 86.2546 334.179ZM86.4336 333.125C86.8976 333.125 87.2887 333.034 87.6069 332.852C87.9284 332.669 88.1703 332.434 88.3327 332.146C88.4985 331.857 88.5813 331.554 88.5813 331.236V330.162C88.5316 330.222 88.4222 330.276 88.2532 330.326C88.0875 330.372 87.8952 330.414 87.6765 330.45C87.4611 330.483 87.2506 330.513 87.0451 330.54C86.8429 330.563 86.6789 330.583 86.5529 330.599C86.248 330.639 85.9629 330.704 85.6978 330.793C85.436 330.879 85.2238 331.01 85.0614 331.186C84.9023 331.358 84.8228 331.594 84.8228 331.892C84.8228 332.3 84.9736 332.608 85.2752 332.817C85.5801 333.022 85.9663 333.125 86.4336 333.125ZM93.0694 329.406V334H91.8961V326.364H93.0297V327.557H93.1291C93.3081 327.169 93.5798 326.857 93.9444 326.622C94.309 326.384 94.7797 326.264 95.3564 326.264C95.8734 326.264 96.3258 326.37 96.7136 326.582C97.1014 326.791 97.403 327.109 97.6184 327.537C97.8339 327.961 97.9416 328.498 97.9416 329.148V334H96.7683V329.227C96.7683 328.627 96.6125 328.16 96.301 327.825C95.9894 327.487 95.5618 327.318 95.0183 327.318C94.6438 327.318 94.309 327.399 94.014 327.562C93.7224 327.724 93.492 327.961 93.323 328.273C93.1539 328.584 93.0694 328.962 93.0694 329.406Z" fill="#475569"/>
<path d="M134.315 334V323.818H140.42V324.912H135.548V328.352H139.963V329.446H135.548V334H134.315ZM145.014 334.159C144.278 334.159 143.643 333.997 143.11 333.672C142.579 333.344 142.17 332.886 141.882 332.3C141.597 331.71 141.454 331.024 141.454 330.241C141.454 329.459 141.597 328.77 141.882 328.173C142.17 327.573 142.571 327.106 143.085 326.771C143.602 326.433 144.205 326.264 144.895 326.264C145.292 326.264 145.685 326.33 146.073 326.463C146.461 326.596 146.814 326.811 147.132 327.109C147.45 327.404 147.703 327.795 147.892 328.283C148.081 328.77 148.176 329.37 148.176 330.082V330.58H142.289V329.565H146.983C146.983 329.134 146.896 328.75 146.724 328.412C146.555 328.074 146.313 327.807 145.998 327.612C145.687 327.416 145.319 327.318 144.895 327.318C144.427 327.318 144.023 327.434 143.681 327.666C143.343 327.895 143.083 328.193 142.901 328.561C142.719 328.929 142.627 329.323 142.627 329.744V330.42C142.627 330.997 142.727 331.486 142.926 331.887C143.128 332.285 143.408 332.588 143.766 332.797C144.124 333.002 144.54 333.105 145.014 333.105C145.322 333.105 145.6 333.062 145.849 332.976C146.101 332.886 146.318 332.754 146.5 332.578C146.683 332.399 146.824 332.177 146.923 331.912L148.056 332.23C147.937 332.615 147.737 332.953 147.455 333.244C147.173 333.533 146.825 333.758 146.411 333.92C145.997 334.08 145.531 334.159 145.014 334.159ZM150.12 334V323.818H151.293V327.577H151.392C151.479 327.444 151.598 327.275 151.75 327.07C151.906 326.861 152.128 326.675 152.417 326.513C152.708 326.347 153.103 326.264 153.6 326.264C154.243 326.264 154.81 326.425 155.3 326.746C155.791 327.068 156.173 327.524 156.449 328.114C156.724 328.704 156.861 329.4 156.861 330.202C156.861 331.01 156.724 331.711 156.449 332.305C156.173 332.895 155.792 333.352 155.305 333.677C154.818 333.998 154.256 334.159 153.62 334.159C153.129 334.159 152.736 334.078 152.441 333.915C152.146 333.75 151.919 333.562 151.76 333.354C151.601 333.142 151.479 332.966 151.392 332.827H151.253V334H150.12ZM151.273 330.182C151.273 330.759 151.358 331.267 151.527 331.708C151.696 332.146 151.943 332.489 152.267 332.737C152.592 332.982 152.99 333.105 153.461 333.105C153.951 333.105 154.36 332.976 154.689 332.717C155.02 332.455 155.269 332.104 155.434 331.663C155.603 331.219 155.688 330.725 155.688 330.182C155.688 329.645 155.605 329.161 155.439 328.73C155.277 328.296 155.03 327.953 154.699 327.701C154.37 327.446 153.958 327.318 153.461 327.318C152.983 327.318 152.582 327.439 152.257 327.681C151.933 327.92 151.687 328.254 151.522 328.685C151.356 329.113 151.273 329.612 151.273 330.182Z" fill="#475569"/>
<path d="M193.065 323.818H194.537L197.997 332.27H198.116L201.576 323.818H203.048V334H201.895V326.264H201.795L198.613 334H197.5L194.318 326.264H194.218V334H193.065V323.818ZM207.608 334.179C207.124 334.179 206.685 334.088 206.291 333.906C205.896 333.72 205.583 333.453 205.351 333.105C205.119 332.754 205.003 332.33 205.003 331.832C205.003 331.395 205.089 331.04 205.262 330.768C205.434 330.493 205.664 330.278 205.953 330.122C206.241 329.966 206.559 329.85 206.907 329.774C207.258 329.695 207.611 329.632 207.966 329.585C208.43 329.526 208.806 329.481 209.095 329.451C209.386 329.418 209.598 329.363 209.731 329.287C209.867 329.211 209.935 329.078 209.935 328.889V328.849C209.935 328.359 209.801 327.978 209.532 327.706C209.267 327.434 208.864 327.298 208.324 327.298C207.764 327.298 207.325 327.421 207.007 327.666C206.688 327.911 206.465 328.173 206.335 328.452L205.222 328.054C205.421 327.59 205.686 327.229 206.017 326.97C206.352 326.708 206.717 326.526 207.111 326.423C207.509 326.317 207.9 326.264 208.284 326.264C208.53 326.264 208.811 326.294 209.129 326.354C209.451 326.41 209.761 326.528 210.059 326.707C210.361 326.886 210.611 327.156 210.81 327.517C211.009 327.878 211.108 328.362 211.108 328.969V334H209.935V332.966H209.875C209.796 333.132 209.663 333.309 209.477 333.498C209.292 333.687 209.045 333.848 208.737 333.98C208.428 334.113 208.052 334.179 207.608 334.179ZM207.787 333.125C208.251 333.125 208.642 333.034 208.96 332.852C209.282 332.669 209.524 332.434 209.686 332.146C209.852 331.857 209.935 331.554 209.935 331.236V330.162C209.885 330.222 209.776 330.276 209.607 330.326C209.441 330.372 209.249 330.414 209.03 330.45C208.815 330.483 208.604 330.513 208.399 330.54C208.196 330.563 208.032 330.583 207.906 330.599C207.602 330.639 207.316 330.704 207.051 330.793C206.789 330.879 206.577 331.01 206.415 331.186C206.256 331.358 206.176 331.594 206.176 331.892C206.176 332.3 206.327 332.608 206.629 332.817C206.934 333.022 207.32 333.125 207.787 333.125ZM213.25 334V326.364H214.383V327.517H214.463C214.602 327.139 214.854 326.833 215.218 326.597C215.583 326.362 215.994 326.244 216.451 326.244C216.538 326.244 216.645 326.246 216.775 326.249C216.904 326.253 217.002 326.258 217.068 326.264V327.457C217.028 327.447 216.937 327.433 216.794 327.413C216.655 327.389 216.508 327.378 216.352 327.378C215.981 327.378 215.649 327.456 215.358 327.612C215.069 327.764 214.841 327.976 214.672 328.248C214.506 328.516 214.423 328.823 214.423 329.168V334H213.25Z" fill="#475569"/>
<path d="M253.233 334H251.94L255.679 323.818H256.951L260.69 334H259.397L256.355 325.429H256.275L253.233 334ZM253.71 330.023H258.92V331.116H253.71V330.023ZM262.117 336.864V326.364H263.25V327.577H263.39C263.476 327.444 263.595 327.275 263.748 327.07C263.903 326.861 264.125 326.675 264.414 326.513C264.705 326.347 265.1 326.264 265.597 326.264C266.24 326.264 266.807 326.425 267.297 326.746C267.788 327.068 268.171 327.524 268.446 328.114C268.721 328.704 268.858 329.4 268.858 330.202C268.858 331.01 268.721 331.711 268.446 332.305C268.171 332.895 267.789 333.352 267.302 333.677C266.815 333.998 266.253 334.159 265.617 334.159C265.126 334.159 264.734 334.078 264.439 333.915C264.144 333.75 263.917 333.562 263.757 333.354C263.598 333.142 263.476 332.966 263.39 332.827H263.29V336.864H262.117ZM263.27 330.182C263.27 330.759 263.355 331.267 263.524 331.708C263.693 332.146 263.94 332.489 264.265 332.737C264.589 332.982 264.987 333.105 265.458 333.105C265.948 333.105 266.358 332.976 266.686 332.717C267.017 332.455 267.266 332.104 267.431 331.663C267.6 331.219 267.685 330.725 267.685 330.182C267.685 329.645 267.602 329.161 267.436 328.73C267.274 328.296 267.027 327.953 266.696 327.701C266.368 327.446 265.955 327.318 265.458 327.318C264.98 327.318 264.579 327.439 264.255 327.681C263.93 327.92 263.685 328.254 263.519 328.685C263.353 329.113 263.27 329.612 263.27 330.182ZM270.648 334V326.364H271.782V327.517H271.861C272 327.139 272.252 326.833 272.617 326.597C272.981 326.362 273.392 326.244 273.85 326.244C273.936 326.244 274.044 326.246 274.173 326.249C274.302 326.253 274.4 326.258 274.466 326.264V327.457C274.426 327.447 274.335 327.433 274.193 327.413C274.054 327.389 273.906 327.378 273.75 327.378C273.379 327.378 273.048 327.456 272.756 327.612C272.468 327.764 272.239 327.976 272.07 328.248C271.904 328.516 271.821 328.823 271.821 329.168V334H270.648Z" fill="#475569"/>
<path d="M310.565 323.818H312.037L315.497 332.27H315.616L319.076 323.818H320.548V334H319.395V326.264H319.295L316.113 334H315L311.818 326.264H311.718V334H310.565V323.818ZM325.108 334.179C324.624 334.179 324.185 334.088 323.791 333.906C323.396 333.72 323.083 333.453 322.851 333.105C322.619 332.754 322.503 332.33 322.503 331.832C322.503 331.395 322.589 331.04 322.762 330.768C322.934 330.493 323.164 330.278 323.453 330.122C323.741 329.966 324.059 329.85 324.407 329.774C324.758 329.695 325.111 329.632 325.466 329.585C325.93 329.526 326.306 329.481 326.595 329.451C326.886 329.418 327.098 329.363 327.231 329.287C327.367 329.211 327.435 329.078 327.435 328.889V328.849C327.435 328.359 327.301 327.978 327.032 327.706C326.767 327.434 326.364 327.298 325.824 327.298C325.264 327.298 324.825 327.421 324.507 327.666C324.188 327.911 323.965 328.173 323.835 328.452L322.722 328.054C322.921 327.59 323.186 327.229 323.517 326.97C323.852 326.708 324.217 326.526 324.611 326.423C325.009 326.317 325.4 326.264 325.784 326.264C326.03 326.264 326.311 326.294 326.629 326.354C326.951 326.41 327.261 326.528 327.559 326.707C327.861 326.886 328.111 327.156 328.31 327.517C328.509 327.878 328.608 328.362 328.608 328.969V334H327.435V332.966H327.375C327.296 333.132 327.163 333.309 326.977 333.498C326.792 333.687 326.545 333.848 326.237 333.98C325.928 334.113 325.552 334.179 325.108 334.179ZM325.287 333.125C325.751 333.125 326.142 333.034 326.46 332.852C326.782 332.669 327.024 332.434 327.186 332.146C327.352 331.857 327.435 331.554 327.435 331.236V330.162C327.385 330.222 327.276 330.276 327.107 330.326C326.941 330.372 326.749 330.414 326.53 330.45C326.315 330.483 326.104 330.513 325.899 330.54C325.696 330.563 325.532 330.583 325.406 330.599C325.102 330.639 324.816 330.704 324.551 330.793C324.289 330.879 324.077 331.01 323.915 331.186C323.756 331.358 323.676 331.594 323.676 331.892C323.676 332.3 323.827 332.608 324.129 332.817C324.434 333.022 324.82 333.125 325.287 333.125ZM331.232 336.864C331.033 336.864 330.856 336.847 330.7 336.814C330.544 336.784 330.436 336.754 330.377 336.724L330.675 335.69C330.96 335.763 331.212 335.79 331.431 335.77C331.65 335.75 331.843 335.652 332.012 335.477C332.185 335.304 332.342 335.024 332.485 334.636L332.703 334.04L329.88 326.364H331.152L333.26 332.449H333.34L335.448 326.364H336.721L333.479 335.114C333.333 335.508 333.153 335.835 332.937 336.093C332.722 336.355 332.471 336.549 332.186 336.675C331.905 336.801 331.587 336.864 331.232 336.864Z" fill="#475569"/>
<line x1="63.8359" y1="77.5" x2="343.333" y2="77.5" stroke="#C6CAD1" stroke-dasharray="2 2"/>
<line x1="63.8359" y1="136.25" x2="343.333" y2="136.25" stroke="#C6CAD1" stroke-dasharray="2 2"/>
<line x1="63.8359" y1="195" x2="343.333" y2="195" stroke="#C6CAD1" stroke-dasharray="2 2"/>
<line x1="63.8359" y1="253.75" x2="343.333" y2="253.75" stroke="#C6CAD1" stroke-dasharray="2 2"/>
<line x1="63.8359" y1="312.5" x2="343.333" y2="312.5" stroke="#C6CAD1" stroke-dasharray="2 2"/>
<path d="M80.332 128.71C80.332 124.452 83.784 121 88.0423 121C92.3006 121 95.7526 124.452 95.7526 128.71V305.29C95.7526 309.548 92.3006 313 88.0423 313C83.784 313 80.332 309.548 80.332 305.29V128.71Z" fill="#0052CC"/>
<path d="M138.449 165.71C138.449 161.452 141.901 158 146.159 158C150.418 158 153.87 161.452 153.87 165.71V304.29C153.87 308.548 150.418 312 146.159 312C141.901 312 138.449 308.548 138.449 304.29V165.71Z" fill="#0052CC"/>
<path d="M197.242 148.156C197.242 143.897 200.694 140.445 204.952 140.445C209.211 140.445 212.663 143.897 212.663 148.156V306.288C212.663 310.547 209.211 313.999 204.952 313.999C200.694 313.999 197.242 310.547 197.242 306.288V148.156Z" fill="#0052CC"/>
<path d="M256.031 105.71C256.031 101.452 259.483 98 263.742 98C268 98 271.452 101.452 271.452 105.71V304.29C271.452 308.548 268 312 263.742 312C259.483 312 256.031 308.548 256.031 304.29V105.71Z" fill="#0052CC"/>
<path d="M311.824 125.909C311.824 121.651 315.276 118.199 319.534 118.199C323.793 118.199 327.245 121.651 327.245 125.909V304.367C327.245 308.626 323.793 312.078 319.534 312.078C315.276 312.078 311.824 308.626 311.824 304.367V125.909Z" fill="#0052CC"/>
<path d="M28.6335 82.8182V93H27.4006V84.1108H27.3409L24.8551 85.7614V84.5085L27.4006 82.8182H28.6335ZM34.8828 93.1392C34.1338 93.1392 33.4957 92.9354 32.9688 92.5277C32.4418 92.1167 32.0391 91.5218 31.7607 90.7429C31.4822 89.9607 31.343 89.0161 31.343 87.9091C31.343 86.8087 31.4822 85.8691 31.7607 85.0902C32.0424 84.308 32.4467 83.7114 32.9737 83.3004C33.504 82.8861 34.1404 82.679 34.8828 82.679C35.6252 82.679 36.2599 82.8861 36.7869 83.3004C37.3172 83.7114 37.7216 84.308 38 85.0902C38.2817 85.8691 38.4226 86.8087 38.4226 87.9091C38.4226 89.0161 38.2834 89.9607 38.005 90.7429C37.7266 91.5218 37.3239 92.1167 36.7969 92.5277C36.2699 92.9354 35.6319 93.1392 34.8828 93.1392ZM34.8828 92.0455C35.6252 92.0455 36.2019 91.6875 36.6129 90.9716C37.0239 90.2557 37.2294 89.2348 37.2294 87.9091C37.2294 87.0275 37.1349 86.2768 36.946 85.657C36.7604 85.0372 36.492 84.5649 36.1406 84.2401C35.7926 83.9152 35.3733 83.7528 34.8828 83.7528C34.147 83.7528 33.572 84.1158 33.1577 84.8416C32.7434 85.5642 32.5362 86.5866 32.5362 87.9091C32.5362 88.7907 32.629 89.5398 32.8146 90.1562C33.0002 90.7727 33.267 91.2417 33.6151 91.5632C33.9664 91.8847 34.389 92.0455 34.8828 92.0455ZM43.6328 93.1392C42.8838 93.1392 42.2457 92.9354 41.7188 92.5277C41.1918 92.1167 40.7891 91.5218 40.5107 90.7429C40.2322 89.9607 40.093 89.0161 40.093 87.9091C40.093 86.8087 40.2322 85.8691 40.5107 85.0902C40.7924 84.308 41.1967 83.7114 41.7237 83.3004C42.254 82.8861 42.8904 82.679 43.6328 82.679C44.3752 82.679 45.0099 82.8861 45.5369 83.3004C46.0672 83.7114 46.4716 84.308 46.75 85.0902C47.0317 85.8691 47.1726 86.8087 47.1726 87.9091C47.1726 89.0161 47.0334 89.9607 46.755 90.7429C46.4766 91.5218 46.0739 92.1167 45.5469 92.5277C45.0199 92.9354 44.3819 93.1392 43.6328 93.1392ZM43.6328 92.0455C44.3752 92.0455 44.9519 91.6875 45.3629 90.9716C45.7739 90.2557 45.9794 89.2348 45.9794 87.9091C45.9794 87.0275 45.8849 86.2768 45.696 85.657C45.5104 85.0372 45.242 84.5649 44.8906 84.2401C44.5426 83.9152 44.1233 83.7528 43.6328 83.7528C42.897 83.7528 42.322 84.1158 41.9077 84.8416C41.4934 85.5642 41.2862 86.5866 41.2862 87.9091C41.2862 88.7907 41.379 89.5398 41.5646 90.1562C41.7502 90.7727 42.017 91.2417 42.3651 91.5632C42.7164 91.8847 43.139 92.0455 43.6328 92.0455Z" fill="#475569"/>
<path d="M25.3722 147L29.9261 137.991V137.912H24.6761V136.818H31.1989V137.972L26.6648 147H25.3722ZM36.0971 147.139C35.5138 147.139 34.9885 147.023 34.5211 146.791C34.0538 146.559 33.6793 146.241 33.3975 145.837C33.1158 145.432 32.9617 144.972 32.9352 144.455H34.1284C34.1748 144.915 34.3836 145.296 34.7548 145.598C35.1293 145.896 35.5768 146.045 36.0971 146.045C36.5147 146.045 36.8859 145.948 37.2108 145.752C37.5389 145.557 37.7958 145.288 37.9814 144.947C38.1703 144.602 38.2647 144.213 38.2647 143.778C38.2647 143.334 38.167 142.938 37.9714 142.59C37.7792 142.239 37.514 141.962 37.176 141.76C36.8379 141.558 36.4518 141.455 36.0176 141.452C35.706 141.448 35.3862 141.496 35.0581 141.596C34.7299 141.692 34.4598 141.816 34.2477 141.969L33.0943 141.83L33.7108 136.818H39.0005V137.912H34.7449L34.3869 140.915H34.4466C34.6554 140.749 34.9172 140.612 35.2321 140.502C35.5469 140.393 35.8751 140.338 36.2164 140.338C36.8395 140.338 37.3947 140.487 37.8819 140.786C38.3725 141.08 38.7569 141.485 39.0353 141.999C39.3171 142.512 39.4579 143.099 39.4579 143.759C39.4579 144.408 39.3121 144.988 39.0204 145.499C38.7321 146.006 38.3343 146.407 37.8272 146.702C37.3201 146.993 36.7434 147.139 36.0971 147.139Z" fill="#475569"/>
<path d="M28.2358 201.139C27.6525 201.139 27.1271 201.023 26.6598 200.791C26.1925 200.559 25.8179 200.241 25.5362 199.837C25.2545 199.432 25.1004 198.972 25.0739 198.455H26.267C26.3134 198.915 26.5223 199.296 26.8935 199.598C27.268 199.896 27.7154 200.045 28.2358 200.045C28.6534 200.045 29.0246 199.948 29.3494 199.752C29.6776 199.557 29.9344 199.288 30.12 198.947C30.3089 198.602 30.4034 198.213 30.4034 197.778C30.4034 197.334 30.3056 196.938 30.1101 196.59C29.9179 196.239 29.6527 195.962 29.3146 195.76C28.9766 195.558 28.5904 195.455 28.1562 195.452C27.8447 195.448 27.5249 195.496 27.1967 195.596C26.8686 195.692 26.5985 195.816 26.3864 195.969L25.233 195.83L25.8494 190.818H31.1392V191.912H26.8835L26.5256 194.915H26.5852C26.794 194.749 27.0559 194.612 27.3707 194.502C27.6856 194.393 28.0137 194.338 28.3551 194.338C28.9782 194.338 29.5334 194.487 30.0206 194.786C30.5111 195.08 30.8956 195.485 31.174 195.999C31.4557 196.512 31.5966 197.099 31.5966 197.759C31.5966 198.408 31.4508 198.988 31.1591 199.499C30.8707 200.006 30.473 200.407 29.9659 200.702C29.4588 200.993 28.8821 201.139 28.2358 201.139ZM36.8926 201.139C36.1435 201.139 35.5055 200.935 34.9785 200.528C34.4515 200.117 34.0488 199.522 33.7704 198.743C33.492 197.961 33.3528 197.016 33.3528 195.909C33.3528 194.809 33.492 193.869 33.7704 193.09C34.0521 192.308 34.4565 191.711 34.9835 191.3C35.5138 190.886 36.1502 190.679 36.8926 190.679C37.635 190.679 38.2697 190.886 38.7967 191.3C39.327 191.711 39.7314 192.308 40.0098 193.09C40.2915 193.869 40.4324 194.809 40.4324 195.909C40.4324 197.016 40.2931 197.961 40.0147 198.743C39.7363 199.522 39.3336 200.117 38.8066 200.528C38.2797 200.935 37.6416 201.139 36.8926 201.139ZM36.8926 200.045C37.635 200.045 38.2117 199.687 38.6227 198.972C39.0337 198.256 39.2392 197.235 39.2392 195.909C39.2392 195.027 39.1447 194.277 38.9558 193.657C38.7702 193.037 38.5017 192.565 38.1504 192.24C37.8024 191.915 37.3831 191.753 36.8926 191.753C36.1568 191.753 35.5817 192.116 35.1674 192.842C34.7531 193.564 34.546 194.587 34.546 195.909C34.546 196.791 34.6388 197.54 34.8244 198.156C35.01 198.773 35.2768 199.242 35.6248 199.563C35.9761 199.885 36.3987 200.045 36.8926 200.045Z" fill="#475569"/>
<path d="M25.054 255V254.105L28.4148 250.426C28.8092 249.995 29.134 249.621 29.3892 249.303C29.6444 248.981 29.8333 248.679 29.956 248.398C30.0819 248.113 30.1449 247.814 30.1449 247.503C30.1449 247.145 30.0587 246.835 29.8864 246.573C29.7173 246.311 29.4853 246.109 29.1903 245.967C28.8954 245.824 28.5639 245.753 28.196 245.753C27.8049 245.753 27.4635 245.834 27.1719 245.996C26.8835 246.156 26.6598 246.379 26.5007 246.668C26.3449 246.956 26.267 247.294 26.267 247.682H25.0938C25.0938 247.085 25.2313 246.562 25.5064 246.111C25.7815 245.66 26.156 245.309 26.63 245.057C27.1072 244.805 27.6425 244.679 28.2358 244.679C28.8324 244.679 29.361 244.805 29.8217 245.057C30.2824 245.309 30.6437 245.648 30.9055 246.076C31.1674 246.504 31.2983 246.979 31.2983 247.503C31.2983 247.877 31.2304 248.244 31.0945 248.602C30.9619 248.956 30.7299 249.352 30.3984 249.79C30.0703 250.224 29.6146 250.754 29.0312 251.381L26.7443 253.827V253.906H31.4773V255H25.054ZM36.7124 255.139C36.129 255.139 35.6037 255.023 35.1364 254.791C34.669 254.559 34.2945 254.241 34.0128 253.837C33.7311 253.432 33.5769 252.972 33.5504 252.455H34.7436C34.79 252.915 34.9988 253.296 35.37 253.598C35.7446 253.896 36.192 254.045 36.7124 254.045C37.13 254.045 37.5012 253.948 37.826 253.752C38.1541 253.557 38.411 253.288 38.5966 252.947C38.7855 252.602 38.88 252.213 38.88 251.778C38.88 251.334 38.7822 250.938 38.5866 250.59C38.3944 250.239 38.1293 249.962 37.7912 249.76C37.4531 249.558 37.067 249.455 36.6328 249.452C36.3213 249.448 36.0014 249.496 35.6733 249.596C35.3452 249.692 35.075 249.816 34.8629 249.969L33.7095 249.83L34.326 244.818H39.6158V245.912H35.3601L35.0021 248.915H35.0618C35.2706 248.749 35.5324 248.612 35.8473 248.502C36.1622 248.393 36.4903 248.338 36.8317 248.338C37.4548 248.338 38.0099 248.487 38.4972 248.786C38.9877 249.08 39.3722 249.485 39.6506 249.999C39.9323 250.512 40.0732 251.099 40.0732 251.759C40.0732 252.408 39.9273 252.988 39.6357 253.499C39.3473 254.006 38.9496 254.407 38.4425 254.702C37.9354 254.993 37.3587 255.139 36.7124 255.139Z" fill="#475569"/>
<path d="M28.375 309.139C27.6259 309.139 26.9879 308.935 26.4609 308.528C25.9339 308.117 25.5313 307.522 25.2528 306.743C24.9744 305.961 24.8352 305.016 24.8352 303.909C24.8352 302.809 24.9744 301.869 25.2528 301.09C25.5346 300.308 25.9389 299.711 26.4659 299.3C26.9962 298.886 27.6326 298.679 28.375 298.679C29.1174 298.679 29.7521 298.886 30.2791 299.3C30.8094 299.711 31.2138 300.308 31.4922 301.09C31.7739 301.869 31.9148 302.809 31.9148 303.909C31.9148 305.016 31.7756 305.961 31.4972 306.743C31.2188 307.522 30.8161 308.117 30.2891 308.528C29.7621 308.935 29.1241 309.139 28.375 309.139ZM28.375 308.045C29.1174 308.045 29.6941 307.687 30.1051 306.972C30.5161 306.256 30.7216 305.235 30.7216 303.909C30.7216 303.027 30.6271 302.277 30.4382 301.657C30.2526 301.037 29.9841 300.565 29.6328 300.24C29.2848 299.915 28.8655 299.753 28.375 299.753C27.6392 299.753 27.0642 300.116 26.6499 300.842C26.2356 301.564 26.0284 302.587 26.0284 303.909C26.0284 304.791 26.1212 305.54 26.3068 306.156C26.4924 306.773 26.7592 307.242 27.1072 307.563C27.4586 307.885 27.8812 308.045 28.375 308.045Z" fill="#475569"/>
</svg>
