<svg width="150" height="150" viewBox="0 0 150 150" fill="none" xmlns="http://www.w3.org/2000/svg">
<g clip-path="url(#clip0_7041_10777)">
<path d="M75 150C116.421 150 150 116.421 150 75C150 33.5786 116.421 0 75 0C33.5786 0 0 33.5786 0 75C0 116.421 33.5786 150 75 150Z" fill="#32BA7C"/>
<path d="M55.8359 108.833L94.4006 147.398C126.341 138.881 150 109.78 150 75.0004C150 74.2907 150 73.5809 150 72.8711L119.716 44.9531L55.8359 108.833Z" fill="#0AA06E"/>
<path d="M76.8909 91.7974C80.2032 95.1097 80.2032 100.788 76.8909 104.1L70.0297 110.961C66.7174 114.274 61.0392 114.274 57.7269 110.961L27.6795 80.6776C24.3672 77.3653 24.3672 71.687 27.6795 68.3747L34.5407 61.5135C37.853 58.2012 43.5313 58.2012 46.8436 61.5135L76.8909 91.7974Z" fill="white"/>
<path d="M103.152 39.5106C106.464 36.1983 112.142 36.1983 115.455 39.5106L122.316 46.3718C125.628 49.6841 125.628 55.3623 122.316 58.6746L70.2655 110.489C66.9531 113.801 61.2749 113.801 57.9626 110.489L51.1014 103.627C47.7891 100.315 47.7891 94.6368 51.1014 91.3245L103.152 39.5106Z" fill="white"/>
</g>
<defs>
<clipPath id="clip0_7041_10777">
<rect width="150" height="150" fill="white"/>
</clipPath>
</defs>
</svg>
