<svg width="398" height="368" viewBox="0 0 398 368" fill="none" xmlns="http://www.w3.org/2000/svg">
<rect x="0.5" y="0.5" width="397" height="367" rx="15.5" fill="white"/>
<rect x="0.5" y="0.5" width="397" height="367" rx="15.5" stroke="#E6ECF4"/>
<path d="M33.3395 34.4531C33.2732 33.8329 32.9938 33.3499 32.5014 33.0043C32.0137 32.6586 31.3793 32.4858 30.598 32.4858C30.0488 32.4858 29.5777 32.5687 29.1847 32.7344C28.7917 32.9001 28.491 33.125 28.2827 33.4091C28.0743 33.6932 27.9678 34.0175 27.9631 34.3821C27.9631 34.6851 28.0317 34.9479 28.169 35.1705C28.3111 35.393 28.5028 35.5824 28.7443 35.7386C28.9858 35.8902 29.2533 36.018 29.5469 36.1222C29.8404 36.2263 30.1364 36.3139 30.4347 36.3849L31.7983 36.7259C32.3475 36.8537 32.8755 37.0265 33.3821 37.2443C33.8935 37.4621 34.3504 37.7367 34.7528 38.0682C35.16 38.3996 35.482 38.7997 35.7188 39.2685C35.9555 39.7372 36.0739 40.2865 36.0739 40.9162C36.0739 41.7685 35.8561 42.5189 35.4205 43.1676C34.9848 43.8116 34.3551 44.3158 33.5312 44.6804C32.7121 45.0402 31.7202 45.2202 30.5554 45.2202C29.4238 45.2202 28.4413 45.045 27.608 44.6946C26.7794 44.3442 26.1307 43.8329 25.6619 43.1605C25.1979 42.4882 24.947 41.669 24.9091 40.7031H27.5014C27.5393 41.2098 27.6955 41.6312 27.9702 41.9673C28.2448 42.3035 28.6023 42.5545 29.0426 42.7202C29.4877 42.8859 29.9848 42.9688 30.5341 42.9688C31.107 42.9688 31.6089 42.8835 32.0398 42.7131C32.4754 42.5379 32.8163 42.2964 33.0625 41.9886C33.3087 41.6761 33.4342 41.3116 33.4389 40.8949C33.4342 40.5161 33.3229 40.2036 33.1051 39.9574C32.8873 39.7064 32.5819 39.4981 32.1889 39.3324C31.8007 39.1619 31.3461 39.0104 30.8253 38.8778L29.1705 38.4517C27.9725 38.1439 27.0256 37.6776 26.3295 37.0526C25.6383 36.4228 25.2926 35.5871 25.2926 34.5455C25.2926 33.6884 25.5246 32.938 25.9886 32.294C26.4574 31.6501 27.0942 31.1506 27.8991 30.7955C28.7041 30.4356 29.6155 30.2557 30.6335 30.2557C31.6657 30.2557 32.5701 30.4356 33.3466 30.7955C34.1278 31.1506 34.741 31.6454 35.1861 32.2798C35.6312 32.9096 35.8608 33.634 35.875 34.4531H33.3395ZM38.3093 45V34.0909H40.8803V45H38.3093ZM39.6019 32.5426C39.1947 32.5426 38.8443 32.4077 38.5508 32.1378C38.2572 31.8632 38.1104 31.5341 38.1104 31.1506C38.1104 30.7623 38.2572 30.4332 38.5508 30.1634C38.8443 29.8887 39.1947 29.7514 39.6019 29.7514C40.0138 29.7514 40.3642 29.8887 40.6531 30.1634C40.9466 30.4332 41.0934 30.7623 41.0934 31.1506C41.0934 31.5341 40.9466 31.8632 40.6531 32.1378C40.3642 32.4077 40.0138 32.5426 39.6019 32.5426ZM43.5241 45V34.0909H45.9815V35.9446H46.1094C46.3366 35.3196 46.7131 34.8319 47.2386 34.4815C47.7642 34.1264 48.3916 33.9489 49.1207 33.9489C49.8594 33.9489 50.482 34.1288 50.9886 34.4886C51.5 34.8437 51.8598 35.3291 52.0682 35.9446H52.1818C52.4233 35.3385 52.8305 34.8556 53.4034 34.4957C53.9811 34.1312 54.6652 33.9489 55.456 33.9489C56.4598 33.9489 57.2789 34.2661 57.9134 34.9006C58.5478 35.535 58.8651 36.4607 58.8651 37.6776V45H56.2869V38.0753C56.2869 37.3982 56.107 36.9034 55.7472 36.5909C55.3873 36.2737 54.947 36.1151 54.4261 36.1151C53.8059 36.1151 53.3205 36.3092 52.9702 36.6974C52.6245 37.081 52.4517 37.5805 52.4517 38.196V45H49.9304V37.9688C49.9304 37.4053 49.7599 36.9555 49.419 36.6193C49.0829 36.2831 48.6425 36.1151 48.098 36.1151C47.7287 36.1151 47.3925 36.2098 47.0895 36.3991C46.7865 36.5838 46.545 36.8466 46.3651 37.1875C46.1851 37.5237 46.0952 37.9167 46.0952 38.3665V45H43.5241ZM68.4265 40.4119V34.0909H70.9975V45H68.5046V43.0611H68.391C68.1448 43.6719 67.7399 44.1714 67.1765 44.5597C66.6178 44.9479 65.9289 45.142 65.1097 45.142C64.3948 45.142 63.7627 44.9834 63.2134 44.6662C62.6689 44.3442 62.2428 43.8778 61.935 43.267C61.6272 42.6515 61.4734 41.9081 61.4734 41.0369V34.0909H64.0444V40.6392C64.0444 41.3305 64.2338 41.8797 64.6126 42.2869C64.9914 42.6941 65.4885 42.8977 66.104 42.8977C66.4828 42.8977 66.8498 42.8054 67.2049 42.6207C67.56 42.4361 67.8512 42.1615 68.0785 41.7969C68.3105 41.4276 68.4265 40.9659 68.4265 40.4119ZM76.2124 30.4545V45H73.6413V30.4545H76.2124ZM81.9954 45.2202C81.3041 45.2202 80.6815 45.0971 80.1275 44.8509C79.5782 44.5999 79.1426 44.2306 78.8207 43.7429C78.5034 43.2552 78.3448 42.6539 78.3448 41.9389C78.3448 41.3234 78.4585 40.8144 78.6857 40.4119C78.913 40.0095 79.2231 39.6875 79.6161 39.446C80.0091 39.2045 80.4518 39.0223 80.9442 38.8991C81.4414 38.7713 81.9551 38.679 82.4854 38.6222C83.1246 38.5559 83.6431 38.4967 84.0408 38.4446C84.4386 38.3878 84.7274 38.3026 84.9073 38.1889C85.092 38.0705 85.1843 37.8883 85.1843 37.642V37.5994C85.1843 37.0644 85.0257 36.6501 84.7085 36.3565C84.3912 36.063 83.9343 35.9162 83.3377 35.9162C82.708 35.9162 82.2085 36.0535 81.8391 36.3281C81.4746 36.6027 81.2283 36.9271 81.1005 37.3011L78.6999 36.9602C78.8893 36.2973 79.2018 35.7434 79.6374 35.2983C80.073 34.8485 80.6057 34.5123 81.2354 34.2898C81.8652 34.0625 82.5612 33.9489 83.3235 33.9489C83.8491 33.9489 84.3723 34.0104 84.8931 34.1335C85.4139 34.2566 85.8898 34.4602 86.3207 34.7443C86.7515 35.0237 87.0972 35.4048 87.3576 35.8878C87.6228 36.3707 87.7553 36.9744 87.7553 37.6989V45H85.2837V43.5014H85.1985C85.0423 43.8045 84.8221 44.0885 84.538 44.3537C84.2586 44.6141 83.9059 44.8248 83.4798 44.9858C83.0584 45.142 82.5636 45.2202 81.9954 45.2202ZM82.663 43.331C83.1791 43.331 83.6265 43.2292 84.0053 43.0256C84.3841 42.8172 84.6753 42.5426 84.8789 42.2017C85.0872 41.8608 85.1914 41.4891 85.1914 41.0866V39.8011C85.1109 39.8674 84.9736 39.929 84.7795 39.9858C84.5901 40.0426 84.377 40.0923 84.1403 40.1349C83.9035 40.1776 83.6692 40.2154 83.4371 40.2486C83.2051 40.2817 83.0039 40.3101 82.8335 40.3338C82.4499 40.3859 82.1067 40.4711 81.8036 40.5895C81.5006 40.7079 81.2615 40.8736 81.0863 41.0866C80.9111 41.295 80.8235 41.5649 80.8235 41.8963C80.8235 42.3698 80.9963 42.7273 81.342 42.9688C81.6876 43.2102 82.128 43.331 82.663 43.331ZM95.788 34.0909V36.0795H89.5167V34.0909H95.788ZM91.065 31.4773H93.636V41.7188C93.636 42.0644 93.6881 42.3295 93.7923 42.5142C93.9012 42.6941 94.0432 42.8172 94.2184 42.8835C94.3936 42.9498 94.5877 42.983 94.8008 42.983C94.9618 42.983 95.1085 42.9711 95.2411 42.9474C95.3784 42.9238 95.4826 42.9025 95.5536 42.8835L95.9869 44.8935C95.8496 44.9408 95.6531 44.9929 95.3974 45.0497C95.1464 45.1065 94.8387 45.1397 94.4741 45.1491C93.8301 45.1681 93.2501 45.071 92.734 44.858C92.2179 44.6402 91.8084 44.304 91.5053 43.8494C91.207 43.3949 91.0603 42.8267 91.065 42.1449V31.4773ZM97.9382 45V34.0909H100.509V45H97.9382ZM99.2308 32.5426C98.8236 32.5426 98.4732 32.4077 98.1797 32.1378C97.8861 31.8632 97.7393 31.5341 97.7393 31.1506C97.7393 30.7623 97.8861 30.4332 98.1797 30.1634C98.4732 29.8887 98.8236 29.7514 99.2308 29.7514C99.6428 29.7514 99.9931 29.8887 100.282 30.1634C100.576 30.4332 100.722 30.7623 100.722 31.1506C100.722 31.5341 100.576 31.8632 100.282 32.1378C99.9931 32.4077 99.6428 32.5426 99.2308 32.5426ZM107.912 45.2131C106.846 45.2131 105.923 44.9787 105.142 44.5099C104.36 44.0412 103.754 43.3854 103.324 42.5426C102.897 41.6998 102.684 40.715 102.684 39.5881C102.684 38.4612 102.897 37.474 103.324 36.6264C103.754 35.7789 104.36 35.1207 105.142 34.652C105.923 34.1832 106.846 33.9489 107.912 33.9489C108.977 33.9489 109.9 34.1832 110.681 34.652C111.463 35.1207 112.066 35.7789 112.493 36.6264C112.923 37.474 113.139 38.4612 113.139 39.5881C113.139 40.715 112.923 41.6998 112.493 42.5426C112.066 43.3854 111.463 44.0412 110.681 44.5099C109.9 44.9787 108.977 45.2131 107.912 45.2131ZM107.926 43.1534C108.503 43.1534 108.986 42.9948 109.375 42.6776C109.763 42.3556 110.052 41.9247 110.241 41.3849C110.435 40.8452 110.532 40.2438 110.532 39.581C110.532 38.9134 110.435 38.3097 110.241 37.7699C110.052 37.2254 109.763 36.7921 109.375 36.4702C108.986 36.1482 108.503 35.9872 107.926 35.9872C107.334 35.9872 106.842 36.1482 106.449 36.4702C106.06 36.7921 105.769 37.2254 105.575 37.7699C105.386 38.3097 105.291 38.9134 105.291 39.581C105.291 40.2438 105.386 40.8452 105.575 41.3849C105.769 41.9247 106.06 42.3556 106.449 42.6776C106.842 42.9948 107.334 43.1534 107.926 43.1534ZM117.892 38.608V45H115.321V34.0909H117.778V35.9446H117.906C118.157 35.3338 118.557 34.8485 119.107 34.4886C119.661 34.1288 120.345 33.9489 121.159 33.9489C121.912 33.9489 122.568 34.1098 123.126 34.4318C123.69 34.7538 124.125 35.2202 124.433 35.831C124.746 36.4418 124.9 37.1828 124.895 38.054V45H122.324V38.4517C122.324 37.7225 122.134 37.152 121.756 36.7401C121.382 36.3281 120.863 36.1222 120.2 36.1222C119.75 36.1222 119.35 36.2216 119 36.4205C118.654 36.6146 118.382 36.8963 118.183 37.2656C117.989 37.6349 117.892 38.0824 117.892 38.608ZM145.033 35.3622H142.377C142.301 34.9266 142.162 34.5407 141.958 34.2045C141.754 33.8636 141.501 33.5748 141.198 33.3381C140.895 33.1013 140.549 32.9238 140.161 32.8054C139.778 32.6823 139.363 32.6207 138.918 32.6207C138.128 32.6207 137.427 32.8196 136.816 33.2173C136.205 33.6103 135.727 34.188 135.381 34.9503C135.036 35.7079 134.863 36.6335 134.863 37.7273C134.863 38.84 135.036 39.7775 135.381 40.5398C135.732 41.2973 136.21 41.8703 136.816 42.2585C137.427 42.642 138.125 42.8338 138.911 42.8338C139.347 42.8338 139.754 42.777 140.133 42.6634C140.516 42.545 140.86 42.3722 141.163 42.1449C141.47 41.9176 141.728 41.6383 141.937 41.3068C142.15 40.9754 142.297 40.5966 142.377 40.1705L145.033 40.1847C144.934 40.8759 144.719 41.5246 144.387 42.1307C144.06 42.7367 143.632 43.2718 143.102 43.7358C142.571 44.1951 141.951 44.5549 141.241 44.8153C140.531 45.071 139.742 45.1989 138.876 45.1989C137.597 45.1989 136.456 44.9029 135.452 44.3111C134.449 43.7192 133.658 42.8646 133.08 41.7472C132.503 40.6297 132.214 39.2898 132.214 37.7273C132.214 36.16 132.505 34.8201 133.087 33.7074C133.67 32.59 134.463 31.7353 135.467 31.1435C136.47 30.5516 137.607 30.2557 138.876 30.2557C139.685 30.2557 140.438 30.3693 141.134 30.5966C141.83 30.8239 142.451 31.1577 142.995 31.598C143.54 32.0336 143.987 32.5687 144.337 33.2031C144.692 33.8329 144.924 34.5526 145.033 35.3622ZM152.091 45.2131C151.026 45.2131 150.103 44.9787 149.321 44.5099C148.54 44.0412 147.934 43.3854 147.503 42.5426C147.077 41.6998 146.864 40.715 146.864 39.5881C146.864 38.4612 147.077 37.474 147.503 36.6264C147.934 35.7789 148.54 35.1207 149.321 34.652C150.103 34.1832 151.026 33.9489 152.091 33.9489C153.157 33.9489 154.08 34.1832 154.861 34.652C155.642 35.1207 156.246 35.7789 156.672 36.6264C157.103 37.474 157.319 38.4612 157.319 39.5881C157.319 40.715 157.103 41.6998 156.672 42.5426C156.246 43.3854 155.642 44.0412 154.861 44.5099C154.08 44.9787 153.157 45.2131 152.091 45.2131ZM152.105 43.1534C152.683 43.1534 153.166 42.9948 153.554 42.6776C153.943 42.3556 154.231 41.9247 154.421 41.3849C154.615 40.8452 154.712 40.2438 154.712 39.581C154.712 38.9134 154.615 38.3097 154.421 37.7699C154.231 37.2254 153.943 36.7921 153.554 36.4702C153.166 36.1482 152.683 35.9872 152.105 35.9872C151.514 35.9872 151.021 36.1482 150.628 36.4702C150.24 36.7921 149.949 37.2254 149.755 37.7699C149.565 38.3097 149.471 38.9134 149.471 39.581C149.471 40.2438 149.565 40.8452 149.755 41.3849C149.949 41.9247 150.24 42.3556 150.628 42.6776C151.021 42.9948 151.514 43.1534 152.105 43.1534ZM162.072 38.608V45H159.501V34.0909H161.958V35.9446H162.086C162.337 35.3338 162.737 34.8485 163.286 34.4886C163.84 34.1288 164.524 33.9489 165.339 33.9489C166.092 33.9489 166.747 34.1098 167.306 34.4318C167.87 34.7538 168.305 35.2202 168.613 35.831C168.925 36.4418 169.079 37.1828 169.075 38.054V45H166.504V38.4517C166.504 37.7225 166.314 37.152 165.935 36.7401C165.561 36.3281 165.043 36.1222 164.38 36.1222C163.93 36.1222 163.53 36.2216 163.18 36.4205C162.834 36.6146 162.562 36.8963 162.363 37.2656C162.169 37.6349 162.072 38.0824 162.072 38.608ZM181.042 34.0909L177.157 45H174.316L170.431 34.0909H173.173L175.68 42.1946H175.793L178.308 34.0909H181.042ZM187.279 45.2131C186.186 45.2131 185.241 44.9858 184.446 44.5312C183.655 44.072 183.047 43.4233 182.62 42.5852C182.194 41.7424 181.981 40.7505 181.981 39.6094C181.981 38.4872 182.194 37.5024 182.62 36.6548C183.051 35.8026 183.653 35.1397 184.424 34.6662C185.196 34.188 186.103 33.9489 187.145 33.9489C187.817 33.9489 188.451 34.0578 189.048 34.2756C189.649 34.4886 190.18 34.8201 190.639 35.2699C191.103 35.7197 191.467 36.2926 191.733 36.9886C191.998 37.6799 192.13 38.5038 192.13 39.4602V40.2486H183.189V38.5156H189.666C189.661 38.0232 189.555 37.5852 189.346 37.2017C189.138 36.8134 188.847 36.508 188.473 36.2855C188.103 36.063 187.672 35.9517 187.18 35.9517C186.654 35.9517 186.193 36.0795 185.795 36.3352C185.397 36.5862 185.087 36.9176 184.865 37.3295C184.647 37.7367 184.536 38.1842 184.531 38.6719V40.1847C184.531 40.8191 184.647 41.3636 184.879 41.8182C185.111 42.268 185.435 42.6136 185.852 42.8551C186.269 43.0919 186.756 43.2102 187.315 43.2102C187.689 43.2102 188.028 43.1581 188.331 43.054C188.634 42.9451 188.896 42.7865 189.119 42.5781C189.342 42.3698 189.51 42.1117 189.623 41.804L192.024 42.0739C191.872 42.7083 191.583 43.2623 191.157 43.7358C190.736 44.2045 190.196 44.5691 189.538 44.8295C188.88 45.0852 188.127 45.2131 187.279 45.2131ZM194.305 45V34.0909H196.798V35.9091H196.912C197.111 35.2794 197.452 34.794 197.935 34.4531C198.422 34.1075 198.979 33.9347 199.604 33.9347C199.746 33.9347 199.904 33.9418 200.08 33.956C200.259 33.9654 200.409 33.982 200.527 34.0057V36.3707C200.418 36.3329 200.245 36.2997 200.009 36.2713C199.777 36.2382 199.552 36.2216 199.334 36.2216C198.865 36.2216 198.444 36.3234 198.07 36.527C197.7 36.7259 197.409 37.0028 197.196 37.358C196.983 37.7131 196.876 38.1226 196.876 38.5866V45H194.305ZM210.857 36.9744L208.513 37.2301C208.447 36.9934 208.331 36.7708 208.165 36.5625C208.004 36.3542 207.787 36.1861 207.512 36.0582C207.237 35.9304 206.901 35.8665 206.504 35.8665C205.969 35.8665 205.519 35.9825 205.154 36.2145C204.794 36.4465 204.617 36.7472 204.621 37.1165C204.617 37.4337 204.733 37.6918 204.969 37.8906C205.211 38.0895 205.609 38.2528 206.163 38.3807L208.023 38.7784C209.056 39.0009 209.823 39.3537 210.325 39.8366C210.831 40.3196 211.087 40.9517 211.092 41.733C211.087 42.4195 210.886 43.0256 210.488 43.5511C210.095 44.072 209.548 44.4792 208.847 44.7727C208.147 45.0663 207.342 45.2131 206.433 45.2131C205.097 45.2131 204.022 44.9337 203.208 44.375C202.394 43.8116 201.908 43.0279 201.752 42.0241L204.259 41.7827C204.373 42.2751 204.614 42.6468 204.984 42.8977C205.353 43.1487 205.834 43.2741 206.425 43.2741C207.036 43.2741 207.526 43.1487 207.896 42.8977C208.27 42.6468 208.457 42.3366 208.457 41.9673C208.457 41.6548 208.336 41.3968 208.094 41.1932C207.858 40.9896 207.488 40.8333 206.987 40.7244L205.126 40.3338C204.079 40.116 203.305 39.7491 202.803 39.233C202.301 38.7121 202.053 38.054 202.058 37.2585C202.053 36.5862 202.235 36.0038 202.604 35.5114C202.978 35.0142 203.497 34.6307 204.16 34.3608C204.827 34.0862 205.597 33.9489 206.468 33.9489C207.746 33.9489 208.753 34.2211 209.487 34.7656C210.225 35.3101 210.682 36.0464 210.857 36.9744ZM213.212 45V34.0909H215.783V45H213.212ZM214.504 32.5426C214.097 32.5426 213.747 32.4077 213.453 32.1378C213.16 31.8632 213.013 31.5341 213.013 31.1506C213.013 30.7623 213.16 30.4332 213.453 30.1634C213.747 29.8887 214.097 29.7514 214.504 29.7514C214.916 29.7514 215.267 29.8887 215.555 30.1634C215.849 30.4332 215.996 30.7623 215.996 31.1506C215.996 31.5341 215.849 31.8632 215.555 32.1378C215.267 32.4077 214.916 32.5426 214.504 32.5426ZM223.185 45.2131C222.12 45.2131 221.196 44.9787 220.415 44.5099C219.634 44.0412 219.028 43.3854 218.597 42.5426C218.171 41.6998 217.958 40.715 217.958 39.5881C217.958 38.4612 218.171 37.474 218.597 36.6264C219.028 35.7789 219.634 35.1207 220.415 34.652C221.196 34.1832 222.12 33.9489 223.185 33.9489C224.25 33.9489 225.174 34.1832 225.955 34.652C226.736 35.1207 227.34 35.7789 227.766 36.6264C228.197 37.474 228.412 38.4612 228.412 39.5881C228.412 40.715 228.197 41.6998 227.766 42.5426C227.34 43.3854 226.736 44.0412 225.955 44.5099C225.174 44.9787 224.25 45.2131 223.185 45.2131ZM223.199 43.1534C223.777 43.1534 224.26 42.9948 224.648 42.6776C225.036 42.3556 225.325 41.9247 225.515 41.3849C225.709 40.8452 225.806 40.2438 225.806 39.581C225.806 38.9134 225.709 38.3097 225.515 37.7699C225.325 37.2254 225.036 36.7921 224.648 36.4702C224.26 36.1482 223.777 35.9872 223.199 35.9872C222.607 35.9872 222.115 36.1482 221.722 36.4702C221.334 36.7921 221.042 37.2254 220.848 37.7699C220.659 38.3097 220.564 38.9134 220.564 39.581C220.564 40.2438 220.659 40.8452 220.848 41.3849C221.042 41.9247 221.334 42.3556 221.722 42.6776C222.115 42.9948 222.607 43.1534 223.199 43.1534ZM233.165 38.608V45H230.594V34.0909H233.052V35.9446H233.18C233.431 35.3338 233.831 34.8485 234.38 34.4886C234.934 34.1288 235.618 33.9489 236.433 33.9489C237.185 33.9489 237.841 34.1098 238.4 34.4318C238.963 34.7538 239.399 35.2202 239.707 35.831C240.019 36.4418 240.173 37.1828 240.168 38.054V45H237.597V38.4517C237.597 37.7225 237.408 37.152 237.029 36.7401C236.655 36.3281 236.137 36.1222 235.474 36.1222C235.024 36.1222 234.624 36.2216 234.273 36.4205C233.928 36.6146 233.656 36.8963 233.457 37.2656C233.263 37.6349 233.165 38.0824 233.165 38.608Z" fill="#0F172A"/>
<rect x="275.5" y="24.5" width="98" height="27" rx="13.5" fill="#E6EEFA"/>
<rect x="275.5" y="24.5" width="98" height="27" rx="13.5" stroke="#E6ECF4"/>
<path d="M288.788 42.1193C288.178 42.1193 287.638 42.0142 287.169 41.804C286.703 41.5937 286.338 41.304 286.074 40.9347C285.81 40.5653 285.679 40.1449 285.682 39.6733C285.679 39.304 285.754 38.9645 285.908 38.6548C286.064 38.3423 286.276 38.0824 286.543 37.875C286.81 37.6648 287.108 37.5312 287.438 37.4744V37.4233C287.003 37.3182 286.655 37.0852 286.393 36.7244C286.132 36.3636 286.003 35.9489 286.006 35.4801C286.003 35.0341 286.121 34.6364 286.359 34.2869C286.601 33.9347 286.932 33.6577 287.352 33.456C287.773 33.2543 288.251 33.1534 288.788 33.1534C289.32 33.1534 289.794 33.2557 290.212 33.4602C290.632 33.6619 290.963 33.9389 291.205 34.2912C291.446 34.6406 291.568 35.0369 291.571 35.4801C291.568 35.9489 291.435 36.3636 291.17 36.7244C290.906 37.0852 290.563 37.3182 290.139 37.4233V37.4744C290.466 37.5312 290.76 37.6648 291.021 37.875C291.286 38.0824 291.496 38.3423 291.652 38.6548C291.811 38.9645 291.892 39.304 291.895 39.6733C291.892 40.1449 291.759 40.5653 291.494 40.9347C291.23 41.304 290.864 41.5937 290.395 41.804C289.929 42.0142 289.393 42.1193 288.788 42.1193ZM288.788 41.0412C289.149 41.0412 289.462 40.9815 289.726 40.8622C289.99 40.7401 290.195 40.571 290.339 40.3551C290.484 40.1364 290.558 39.8807 290.561 39.5881C290.558 39.2841 290.479 39.0156 290.322 38.7827C290.169 38.5497 289.96 38.3665 289.696 38.233C289.432 38.0994 289.129 38.0327 288.788 38.0327C288.445 38.0327 288.139 38.0994 287.872 38.233C287.605 38.3665 287.395 38.5497 287.241 38.7827C287.088 39.0156 287.013 39.2841 287.016 39.5881C287.013 39.8807 287.082 40.1364 287.224 40.3551C287.369 40.571 287.575 40.7401 287.842 40.8622C288.109 40.9815 288.425 41.0412 288.788 41.0412ZM288.788 36.9801C289.078 36.9801 289.335 36.9219 289.56 36.8054C289.784 36.6889 289.96 36.527 290.088 36.3196C290.219 36.1122 290.286 35.8693 290.288 35.5909C290.286 35.3182 290.22 35.0795 290.092 34.875C289.967 34.6705 289.793 34.5128 289.568 34.402C289.344 34.2884 289.084 34.2315 288.788 34.2315C288.487 34.2315 288.223 34.2884 287.996 34.402C287.771 34.5128 287.597 34.6705 287.472 34.875C287.347 35.0795 287.286 35.3182 287.288 35.5909C287.286 35.8693 287.348 36.1122 287.476 36.3196C287.604 36.527 287.78 36.6889 288.004 36.8054C288.232 36.9219 288.493 36.9801 288.788 36.9801ZM293.422 42V41.0455L296.375 37.9858C296.69 37.6534 296.95 37.3622 297.154 37.1122C297.362 36.8594 297.517 36.6193 297.619 36.392C297.721 36.1648 297.772 35.9233 297.772 35.6676C297.772 35.3778 297.704 35.1278 297.568 34.9176C297.431 34.7045 297.245 34.5412 297.01 34.4276C296.774 34.3111 296.508 34.2528 296.213 34.2528C295.9 34.2528 295.627 34.3168 295.395 34.4446C295.162 34.5724 294.983 34.7528 294.858 34.9858C294.733 35.2187 294.67 35.4915 294.67 35.804H293.413C293.413 35.2727 293.535 34.8082 293.779 34.4105C294.024 34.0128 294.359 33.7045 294.785 33.4858C295.211 33.2642 295.696 33.1534 296.238 33.1534C296.787 33.1534 297.27 33.2628 297.687 33.4815C298.108 33.6974 298.436 33.9929 298.672 34.3679C298.907 34.7401 299.025 35.1605 299.025 35.6293C299.025 35.9531 298.964 36.2699 298.842 36.5795C298.723 36.8892 298.514 37.2344 298.216 37.6151C297.917 37.9929 297.502 38.4517 296.971 38.9915L295.237 40.8068V40.8707H299.166V42H293.422ZM305.336 40.3636V39.9034C305.336 39.5739 305.404 39.2727 305.541 39C305.68 38.7244 305.882 38.5043 306.146 38.3395C306.413 38.1719 306.735 38.0881 307.113 38.0881C307.5 38.0881 307.824 38.1705 308.085 38.3352C308.346 38.5 308.544 38.7202 308.677 38.9957C308.814 39.2713 308.882 39.5739 308.882 39.9034V40.3636C308.882 40.6932 308.814 40.9957 308.677 41.2713C308.541 41.544 308.341 41.7642 308.076 41.9318C307.815 42.0966 307.494 42.179 307.113 42.179C306.73 42.179 306.406 42.0966 306.142 41.9318C305.877 41.7642 305.677 41.544 305.541 41.2713C305.404 40.9957 305.336 40.6932 305.336 40.3636ZM306.329 39.9034V40.3636C306.329 40.608 306.387 40.8295 306.504 41.0284C306.62 41.2273 306.824 41.3267 307.113 41.3267C307.4 41.3267 307.6 41.2273 307.714 41.0284C307.828 40.8295 307.885 40.608 307.885 40.3636V39.9034C307.885 39.6591 307.829 39.4375 307.718 39.2386C307.61 39.0398 307.409 38.9403 307.113 38.9403C306.829 38.9403 306.627 39.0398 306.508 39.2386C306.389 39.4375 306.329 39.6591 306.329 39.9034ZM300.947 35.3693V34.9091C300.947 34.5795 301.015 34.277 301.152 34.0014C301.291 33.7259 301.493 33.5057 301.757 33.3409C302.024 33.1761 302.346 33.0938 302.724 33.0938C303.11 33.0938 303.434 33.1761 303.696 33.3409C303.957 33.5057 304.154 33.7259 304.288 34.0014C304.422 34.277 304.488 34.5795 304.488 34.9091V35.3693C304.488 35.6989 304.42 36.0014 304.284 36.277C304.15 36.5497 303.951 36.7699 303.687 36.9375C303.426 37.1023 303.105 37.1847 302.724 37.1847C302.338 37.1847 302.012 37.1023 301.748 36.9375C301.487 36.7699 301.288 36.5497 301.152 36.277C301.015 36.0014 300.947 35.6989 300.947 35.3693ZM301.944 34.9091V35.3693C301.944 35.6136 302.001 35.8352 302.115 36.0341C302.231 36.233 302.434 36.3324 302.724 36.3324C303.008 36.3324 303.207 36.233 303.321 36.0341C303.437 35.8352 303.495 35.6136 303.495 35.3693V34.9091C303.495 34.6648 303.44 34.4432 303.329 34.2443C303.218 34.0455 303.017 33.946 302.724 33.946C302.44 33.946 302.238 34.0455 302.119 34.2443C302.002 34.4432 301.944 34.6648 301.944 34.9091ZM301.352 42L307.352 33.2727H308.37L302.37 42H301.352ZM314.751 42H313.353L316.494 33.2727H318.015L321.156 42H319.758L317.29 34.858H317.222L314.751 42ZM314.985 38.5824H319.519V39.6903H314.985V38.5824ZM327.093 35.4545L324.719 42H323.355L320.978 35.4545H322.346L324.003 40.4915H324.071L325.725 35.4545H327.093ZM330.812 44.5909C330.292 44.5909 329.844 44.5227 329.469 44.3864C329.097 44.25 328.793 44.0696 328.558 43.8452C328.322 43.6207 328.146 43.375 328.029 43.108L329.124 42.6562C329.201 42.7812 329.303 42.9134 329.431 43.0526C329.562 43.1946 329.738 43.3153 329.96 43.4148C330.184 43.5142 330.472 43.5639 330.825 43.5639C331.308 43.5639 331.707 43.446 332.022 43.2102C332.337 42.9773 332.495 42.6051 332.495 42.0938V40.8068H332.414C332.337 40.946 332.227 41.1009 332.082 41.2713C331.94 41.4418 331.744 41.5895 331.494 41.7145C331.244 41.8395 330.918 41.902 330.518 41.902C330.001 41.902 329.535 41.7812 329.12 41.5398C328.708 41.2955 328.381 40.9361 328.14 40.4616C327.901 39.9844 327.782 39.3977 327.782 38.7017C327.782 38.0057 327.9 37.4091 328.136 36.9119C328.374 36.4148 328.701 36.0341 329.116 35.7699C329.531 35.5028 330.001 35.3693 330.526 35.3693C330.933 35.3693 331.261 35.4375 331.511 35.5739C331.761 35.7074 331.955 35.8636 332.094 36.0426C332.237 36.2216 332.346 36.3793 332.423 36.5156H332.516V35.4545H333.765V42.1449C333.765 42.7074 333.634 43.169 333.373 43.5298C333.112 43.8906 332.758 44.1577 332.312 44.331C331.869 44.5043 331.369 44.5909 330.812 44.5909ZM330.799 40.8452C331.165 40.8452 331.475 40.7599 331.728 40.5895C331.984 40.4162 332.177 40.169 332.308 39.848C332.441 39.5241 332.508 39.1364 332.508 38.6847C332.508 38.2443 332.442 37.8565 332.312 37.5213C332.181 37.1861 331.989 36.9247 331.737 36.7372C331.484 36.5469 331.171 36.4517 330.799 36.4517C330.415 36.4517 330.096 36.5511 329.84 36.75C329.585 36.946 329.391 37.2131 329.261 37.5511C329.133 37.8892 329.069 38.267 329.069 38.6847C329.069 39.1136 329.134 39.4901 329.265 39.8139C329.396 40.1378 329.589 40.3906 329.844 40.5724C330.103 40.7543 330.421 40.8452 330.799 40.8452ZM338.752 42V33.2727H341.863C342.539 33.2727 343.1 33.3892 343.546 33.6222C343.995 33.8551 344.33 34.1776 344.551 34.5895C344.773 34.9986 344.884 35.4716 344.884 36.0085C344.884 36.5426 344.772 37.0128 344.547 37.419C344.326 37.8224 343.99 38.1364 343.542 38.3608C343.096 38.5852 342.534 38.6974 341.858 38.6974H339.502V37.5639H341.739C342.165 37.5639 342.512 37.5028 342.779 37.3807C343.049 37.2585 343.246 37.081 343.371 36.848C343.496 36.6151 343.559 36.3352 343.559 36.0085C343.559 35.679 343.495 35.3935 343.367 35.152C343.242 34.9105 343.044 34.7259 342.775 34.598C342.507 34.4673 342.157 34.402 341.722 34.402H340.069V42H338.752ZM343.06 38.0625L345.216 42H343.716L341.603 38.0625H343.06ZM348.289 42.1449C347.874 42.1449 347.499 42.0682 347.164 41.9148C346.828 41.7585 346.563 41.5327 346.367 41.2372C346.174 40.9418 346.077 40.5795 346.077 40.1506C346.077 39.7812 346.148 39.4773 346.29 39.2386C346.432 39 346.624 38.8111 346.865 38.6719C347.107 38.5327 347.377 38.4276 347.675 38.3565C347.973 38.2855 348.277 38.2315 348.587 38.1946C348.979 38.1491 349.297 38.1122 349.542 38.0838C349.786 38.0526 349.963 38.0028 350.074 37.9347C350.185 37.8665 350.24 37.7557 350.24 37.6023V37.5724C350.24 37.2003 350.135 36.9119 349.925 36.7074C349.718 36.5028 349.408 36.4006 348.996 36.4006C348.567 36.4006 348.229 36.4957 347.982 36.6861C347.738 36.8736 347.569 37.0824 347.475 37.3125L346.277 37.0398C346.419 36.642 346.627 36.321 346.9 36.0767C347.175 35.8295 347.492 35.6506 347.85 35.5398C348.208 35.4261 348.584 35.3693 348.979 35.3693C349.24 35.3693 349.517 35.4006 349.81 35.4631C350.105 35.5227 350.381 35.6335 350.637 35.7955C350.895 35.9574 351.107 36.1889 351.272 36.4901C351.436 36.7884 351.519 37.1761 351.519 37.6534V42H350.275V41.1051H350.223C350.141 41.2699 350.017 41.4318 349.853 41.5909C349.688 41.75 349.476 41.8821 349.218 41.9872C348.959 42.0923 348.65 42.1449 348.289 42.1449ZM348.566 41.1222C348.918 41.1222 349.219 41.0526 349.469 40.9134C349.722 40.7741 349.914 40.5923 350.044 40.3679C350.178 40.1406 350.245 39.8977 350.245 39.6392V38.7955C350.199 38.8409 350.111 38.8835 349.98 38.9233C349.853 38.9602 349.706 38.9929 349.542 39.0213C349.377 39.0469 349.216 39.071 349.06 39.0938C348.904 39.1136 348.773 39.1307 348.668 39.1449C348.421 39.1761 348.195 39.2287 347.99 39.3026C347.789 39.3764 347.627 39.483 347.505 39.6222C347.385 39.7585 347.326 39.9403 347.326 40.1676C347.326 40.483 347.442 40.7216 347.675 40.8835C347.908 41.0426 348.205 41.1222 348.566 41.1222ZM356.271 35.4545V36.4773H352.696V35.4545H356.271ZM353.655 33.8864H354.929V40.0781C354.929 40.3253 354.966 40.5114 355.04 40.6364C355.114 40.7585 355.209 40.8423 355.325 40.8878C355.445 40.9304 355.574 40.9517 355.713 40.9517C355.815 40.9517 355.905 40.9446 355.982 40.9304C356.058 40.9162 356.118 40.9048 356.161 40.8963L356.391 41.9489C356.317 41.9773 356.212 42.0057 356.075 42.0341C355.939 42.0653 355.768 42.0824 355.564 42.0852C355.229 42.0909 354.916 42.0312 354.626 41.9062C354.337 41.7812 354.102 41.5881 353.923 41.3267C353.744 41.0653 353.655 40.7372 353.655 40.3423V33.8864ZM360.431 42.1321C359.787 42.1321 359.231 41.9943 358.765 41.7188C358.302 41.4403 357.944 41.0497 357.691 40.5469C357.441 40.0412 357.316 39.4489 357.316 38.7699C357.316 38.0994 357.441 37.5085 357.691 36.9972C357.944 36.4858 358.297 36.0866 358.748 35.7997C359.203 35.5128 359.734 35.3693 360.342 35.3693C360.711 35.3693 361.069 35.4304 361.416 35.5526C361.762 35.6747 362.074 35.8665 362.349 36.1278C362.625 36.3892 362.842 36.7287 363.001 37.1463C363.16 37.5611 363.24 38.0653 363.24 38.6591V39.1108H358.037V38.1562H361.991C361.991 37.821 361.923 37.5241 361.787 37.2656C361.65 37.0043 361.458 36.7983 361.211 36.6477C360.967 36.4972 360.68 36.4219 360.35 36.4219C359.993 36.4219 359.68 36.5099 359.413 36.6861C359.149 36.8594 358.944 37.0866 358.799 37.3679C358.657 37.6463 358.586 37.9489 358.586 38.2756V39.0213C358.586 39.4588 358.663 39.831 358.816 40.1378C358.973 40.4446 359.19 40.679 359.468 40.8409C359.747 41 360.072 41.0795 360.444 41.0795C360.686 41.0795 360.906 41.0455 361.105 40.9773C361.304 40.9062 361.475 40.8011 361.62 40.6619C361.765 40.5227 361.876 40.3509 361.953 40.1463L363.159 40.3636C363.062 40.7187 362.889 41.0298 362.639 41.2969C362.392 41.5611 362.081 41.767 361.706 41.9148C361.333 42.0597 360.909 42.1321 360.431 42.1321Z" fill="#0052CC"/>
<path d="M30.8011 79.3636C30.7415 78.8598 30.4995 78.4688 30.0753 78.1903C29.651 77.9119 29.1307 77.7727 28.5142 77.7727C28.0634 77.7727 27.669 77.8456 27.331 77.9915C26.9962 78.1373 26.7344 78.3378 26.5455 78.593C26.3598 78.8482 26.267 79.1383 26.267 79.4631C26.267 79.7348 26.3317 79.9685 26.4609 80.1641C26.5935 80.3563 26.7625 80.517 26.968 80.6463C27.1735 80.7723 27.389 80.8767 27.6143 80.9595C27.8397 81.0391 28.0469 81.1037 28.2358 81.1534L29.2699 81.4318C29.535 81.5014 29.83 81.5975 30.1548 81.7202C30.483 81.8428 30.7962 82.0102 31.0945 82.2223C31.3961 82.4311 31.6446 82.6996 31.8402 83.0277C32.0357 83.3558 32.1335 83.7585 32.1335 84.2358C32.1335 84.786 31.9893 85.2831 31.701 85.7273C31.416 86.1714 30.9983 86.5244 30.4482 86.7862C29.9013 87.0481 29.2367 87.179 28.4545 87.179C27.7254 87.179 27.094 87.0613 26.5604 86.826C26.0301 86.5907 25.6125 86.2625 25.3075 85.8416C25.0059 85.4207 24.8352 84.9318 24.7955 84.375H26.0682C26.1013 84.7595 26.2306 85.0777 26.456 85.3295C26.6847 85.5781 26.973 85.7637 27.321 85.8864C27.6723 86.0057 28.0502 86.0653 28.4545 86.0653C28.9252 86.0653 29.3478 85.9891 29.7223 85.8366C30.0968 85.6809 30.3935 85.4654 30.6122 85.1903C30.831 84.9119 30.9403 84.5871 30.9403 84.2159C30.9403 83.8778 30.8459 83.6027 30.657 83.3906C30.468 83.1785 30.2195 83.0062 29.9112 82.8736C29.603 82.741 29.2699 82.625 28.9119 82.5256L27.6591 82.1676C26.8636 81.9389 26.2339 81.6125 25.7699 81.1882C25.3059 80.764 25.0739 80.2088 25.0739 79.5227C25.0739 78.9527 25.228 78.4555 25.5362 78.0312C25.8478 77.6037 26.2654 77.2723 26.7891 77.0369C27.3161 76.7983 27.9044 76.679 28.554 76.679C29.2102 76.679 29.7936 76.7966 30.304 77.032C30.8144 77.264 31.2188 77.5821 31.517 77.9865C31.8187 78.3909 31.9777 78.8499 31.9943 79.3636H30.8011ZM34.0016 87V79.3636H35.1749V87H34.0016ZM34.5982 78.0909C34.3695 78.0909 34.1723 78.013 34.0066 77.8572C33.8442 77.7015 33.763 77.5142 33.763 77.2955C33.763 77.0767 33.8442 76.8894 34.0066 76.7337C34.1723 76.5779 34.3695 76.5 34.5982 76.5C34.8269 76.5 35.0224 76.5779 35.1848 76.7337C35.3506 76.8894 35.4334 77.0767 35.4334 77.2955C35.4334 77.5142 35.3506 77.7015 35.1848 77.8572C35.0224 78.013 34.8269 78.0909 34.5982 78.0909ZM37.3239 87V79.3636H38.4574V80.5568H38.5568C38.7159 80.1491 38.9728 79.8326 39.3274 79.6072C39.6821 79.3786 40.108 79.2642 40.6051 79.2642C41.1089 79.2642 41.5282 79.3786 41.8629 79.6072C42.201 79.8326 42.4645 80.1491 42.6534 80.5568H42.733C42.9285 80.1624 43.2218 79.8492 43.6129 79.6172C44.004 79.3819 44.473 79.2642 45.0199 79.2642C45.7027 79.2642 46.2611 79.478 46.6953 79.9055C47.1295 80.3298 47.3466 80.991 47.3466 81.8892V87H46.1733V81.8892C46.1733 81.3258 46.0192 80.9231 45.7109 80.6811C45.4027 80.4392 45.0398 80.3182 44.6222 80.3182C44.0852 80.3182 43.6693 80.4806 43.3743 80.8054C43.0793 81.1269 42.9318 81.5346 42.9318 82.0284V87H41.7386V81.7699C41.7386 81.3357 41.5978 80.986 41.3161 80.7209C41.0343 80.4524 40.6714 80.3182 40.2273 80.3182C39.9223 80.3182 39.6373 80.3994 39.3722 80.5618C39.1103 80.7242 38.8982 80.9496 38.7358 81.2379C38.5767 81.523 38.4972 81.8527 38.4972 82.2273V87H37.3239ZM54.3043 83.8778V79.3636H55.4776V87H54.3043V85.7074H54.2248C54.0458 86.0952 53.7674 86.425 53.3896 86.6967C53.0117 86.9652 52.5344 87.0994 51.9577 87.0994C51.4805 87.0994 51.0562 86.995 50.685 86.7862C50.3138 86.5741 50.0221 86.2559 49.81 85.8317C49.5979 85.4041 49.4918 84.8655 49.4918 84.2159V79.3636H50.6651V84.1364C50.6651 84.6932 50.8209 85.1373 51.1325 85.4688C51.4473 85.8002 51.8484 85.9659 52.3356 85.9659C52.6272 85.9659 52.9239 85.8913 53.2255 85.7422C53.5304 85.593 53.7856 85.3643 53.9911 85.0561C54.1999 84.7479 54.3043 84.3551 54.3043 83.8778ZM58.7999 76.8182V87H57.6266V76.8182H58.7999ZM63.196 87.179C62.7121 87.179 62.273 87.0878 61.8786 86.9055C61.4841 86.7199 61.1709 86.4531 60.9389 86.1051C60.7069 85.7538 60.5909 85.3295 60.5909 84.8324C60.5909 84.3949 60.6771 84.0402 60.8494 83.7685C61.0218 83.4934 61.2521 83.2779 61.5405 83.1222C61.8288 82.9664 62.147 82.8504 62.495 82.7741C62.8464 82.6946 63.1993 82.6316 63.554 82.5852C64.018 82.5256 64.3942 82.4808 64.6825 82.451C64.9742 82.4179 65.1863 82.3632 65.3189 82.2869C65.4548 82.2107 65.5227 82.0781 65.5227 81.8892V81.8494C65.5227 81.3589 65.3885 80.9777 65.12 80.706C64.8549 80.4342 64.4522 80.2983 63.9119 80.2983C63.3518 80.2983 62.9126 80.4209 62.5945 80.6662C62.2763 80.9115 62.0526 81.1733 61.9233 81.4517L60.8097 81.054C61.0085 80.59 61.2737 80.2287 61.6051 79.9702C61.9399 79.7083 62.3045 79.526 62.6989 79.4233C63.0966 79.3172 63.4877 79.2642 63.8722 79.2642C64.1174 79.2642 64.3991 79.294 64.7173 79.3537C65.0388 79.41 65.3487 79.5277 65.647 79.7067C65.9486 79.8857 66.1989 80.1558 66.3977 80.517C66.5966 80.8783 66.696 81.3622 66.696 81.9688V87H65.5227V85.9659H65.4631C65.3835 86.1316 65.2509 86.3089 65.0653 86.4979C64.8797 86.6868 64.6328 86.8475 64.3246 86.9801C64.0163 87.1127 63.6402 87.179 63.196 87.179ZM63.375 86.125C63.839 86.125 64.2301 86.0339 64.5483 85.8516C64.8698 85.6693 65.1117 85.4339 65.2741 85.1456C65.4399 84.8572 65.5227 84.554 65.5227 84.2358V83.1619C65.473 83.2216 65.3636 83.2763 65.1946 83.326C65.0289 83.3724 64.8366 83.4138 64.6179 83.4503C64.4025 83.4834 64.192 83.5133 63.9865 83.5398C63.7843 83.563 63.6203 83.5829 63.4943 83.5994C63.1894 83.6392 62.9044 83.7038 62.6392 83.7933C62.3774 83.8795 62.1652 84.0104 62.0028 84.1861C61.8438 84.3584 61.7642 84.5937 61.7642 84.892C61.7642 85.2997 61.915 85.608 62.2166 85.8168C62.5215 86.0223 62.9077 86.125 63.375 86.125ZM72.1586 79.3636V80.358H68.2012V79.3636H72.1586ZM69.3546 77.5341H70.5279V84.8125C70.5279 85.1439 70.5759 85.3925 70.6721 85.5582C70.7715 85.7206 70.8974 85.83 71.0499 85.8864C71.2057 85.9394 71.3697 85.9659 71.5421 85.9659C71.6713 85.9659 71.7774 85.9593 71.8603 85.946C71.9431 85.9295 72.0094 85.9162 72.0591 85.9062L72.2978 86.9602C72.2182 86.9901 72.1072 87.0199 71.9647 87.0497C71.8221 87.0829 71.6415 87.0994 71.4228 87.0994C71.0913 87.0994 70.7665 87.0282 70.4483 86.8857C70.1335 86.7431 69.8716 86.526 69.6628 86.2344C69.4573 85.9427 69.3546 85.5748 69.3546 85.1307V77.5341ZM73.9235 87V79.3636H75.0968V87H73.9235ZM74.5201 78.0909C74.2914 78.0909 74.0942 78.013 73.9284 77.8572C73.766 77.7015 73.6848 77.5142 73.6848 77.2955C73.6848 77.0767 73.766 76.8894 73.9284 76.7337C74.0942 76.5779 74.2914 76.5 74.5201 76.5C74.7488 76.5 74.9443 76.5779 75.1067 76.7337C75.2724 76.8894 75.3553 77.0767 75.3553 77.2955C75.3553 77.5142 75.2724 77.7015 75.1067 77.8572C74.9443 78.013 74.7488 78.0909 74.5201 78.0909ZM80.348 87.1591C79.6586 87.1591 79.0537 86.995 78.5334 86.6669C78.0163 86.3388 77.612 85.8797 77.3203 85.2898C77.032 84.6998 76.8878 84.0104 76.8878 83.2216C76.8878 82.4261 77.032 81.7318 77.3203 81.1385C77.612 80.5452 78.0163 80.0845 78.5334 79.7564C79.0537 79.4283 79.6586 79.2642 80.348 79.2642C81.0374 79.2642 81.6406 79.4283 82.1577 79.7564C82.678 80.0845 83.0824 80.5452 83.3707 81.1385C83.6624 81.7318 83.8082 82.4261 83.8082 83.2216C83.8082 84.0104 83.6624 84.6998 83.3707 85.2898C83.0824 85.8797 82.678 86.3388 82.1577 86.6669C81.6406 86.995 81.0374 87.1591 80.348 87.1591ZM80.348 86.1051C80.8717 86.1051 81.3026 85.9709 81.6406 85.7024C81.9787 85.4339 82.2289 85.081 82.3913 84.6435C82.5537 84.206 82.6349 83.732 82.6349 83.2216C82.6349 82.7112 82.5537 82.2356 82.3913 81.7947C82.2289 81.3539 81.9787 80.9976 81.6406 80.7259C81.3026 80.4541 80.8717 80.3182 80.348 80.3182C79.8243 80.3182 79.3935 80.4541 79.0554 80.7259C78.7173 80.9976 78.4671 81.3539 78.3047 81.7947C78.1423 82.2356 78.0611 82.7112 78.0611 83.2216C78.0611 83.732 78.1423 84.206 78.3047 84.6435C78.4671 85.081 78.7173 85.4339 79.0554 85.7024C79.3935 85.9709 79.8243 86.1051 80.348 86.1051ZM86.7725 82.4062V87H85.5993V79.3636H86.7328V80.5568H86.8322C87.0112 80.169 87.283 79.8575 87.6475 79.6222C88.0121 79.3835 88.4828 79.2642 89.0595 79.2642C89.5765 79.2642 90.0289 79.3703 90.4167 79.5824C90.8045 79.7912 91.1061 80.1094 91.3216 80.5369C91.537 80.9612 91.6447 81.4981 91.6447 82.1477V87H90.4714V82.2273C90.4714 81.6274 90.3156 81.16 90.0041 80.8253C89.6925 80.4872 89.265 80.3182 88.7214 80.3182C88.3469 80.3182 88.0121 80.3994 87.7172 80.5618C87.4255 80.7242 87.1951 80.9612 87.0261 81.2727C86.8571 81.5843 86.7725 81.9621 86.7725 82.4062Z" fill="#475569"/>
<path d="M302.034 76.8182V87H300.19V78.6129H300.13L297.749 80.1342V78.4439L300.279 76.8182H302.034ZM308.383 87.1939C307.565 87.1939 306.862 86.9867 306.275 86.5724C305.692 86.1548 305.243 85.5533 304.928 84.7678C304.616 83.9789 304.461 83.0294 304.461 81.919C304.464 80.8087 304.621 79.8641 304.933 79.0852C305.248 78.303 305.697 77.7064 306.28 77.2955C306.867 76.8845 307.568 76.679 308.383 76.679C309.199 76.679 309.9 76.8845 310.486 77.2955C311.073 77.7064 311.522 78.303 311.833 79.0852C312.148 79.8674 312.306 80.812 312.306 81.919C312.306 83.0327 312.148 83.9839 311.833 84.7727C311.522 85.5582 311.073 86.1581 310.486 86.5724C309.903 86.9867 309.202 87.1939 308.383 87.1939ZM308.383 85.6378C309.02 85.6378 309.522 85.3246 309.89 84.6982C310.261 84.0684 310.446 83.142 310.446 81.919C310.446 81.1103 310.362 80.4309 310.193 79.8807C310.024 79.3305 309.785 78.9162 309.477 78.6378C309.169 78.3561 308.804 78.2152 308.383 78.2152C307.75 78.2152 307.25 78.5301 306.882 79.1598C306.514 79.7862 306.328 80.706 306.325 81.919C306.322 82.7311 306.403 83.4138 306.569 83.9673C306.738 84.5208 306.976 84.9384 307.284 85.2202C307.593 85.4986 307.959 85.6378 308.383 85.6378ZM317.721 87.1939C316.902 87.1939 316.2 86.9867 315.613 86.5724C315.03 86.1548 314.581 85.5533 314.266 84.7678C313.954 83.9789 313.798 83.0294 313.798 81.919C313.802 80.8087 313.959 79.8641 314.271 79.0852C314.586 78.303 315.035 77.7064 315.618 77.2955C316.205 76.8845 316.906 76.679 317.721 76.679C318.536 76.679 319.237 76.8845 319.824 77.2955C320.411 77.7064 320.86 78.303 321.171 79.0852C321.486 79.8674 321.644 80.812 321.644 81.919C321.644 83.0327 321.486 83.9839 321.171 84.7727C320.86 85.5582 320.411 86.1581 319.824 86.5724C319.241 86.9867 318.54 87.1939 317.721 87.1939ZM317.721 85.6378C318.357 85.6378 318.86 85.3246 319.227 84.6982C319.599 84.0684 319.784 83.142 319.784 81.919C319.784 81.1103 319.7 80.4309 319.531 79.8807C319.362 79.3305 319.123 78.9162 318.815 78.6378C318.507 78.3561 318.142 78.2152 317.721 78.2152C317.088 78.2152 316.588 78.5301 316.22 79.1598C315.852 79.7862 315.666 80.706 315.663 81.919C315.66 82.7311 315.741 83.4138 315.906 83.9673C316.075 84.5208 316.314 84.9384 316.622 85.2202C316.931 85.4986 317.297 85.6378 317.721 85.6378ZM328.739 85.0909V84.554C328.739 84.1596 328.822 83.7966 328.988 83.4652C329.157 83.1338 329.402 82.867 329.724 82.6648C330.045 82.4626 330.435 82.3615 330.892 82.3615C331.363 82.3615 331.757 82.4626 332.075 82.6648C332.393 82.8636 332.634 83.1288 332.796 83.4602C332.962 83.7917 333.045 84.1562 333.045 84.554V85.0909C333.045 85.4853 332.962 85.8482 332.796 86.1797C332.63 86.5111 332.387 86.7779 332.065 86.9801C331.747 87.1823 331.356 87.2834 330.892 87.2834C330.428 87.2834 330.035 87.1823 329.714 86.9801C329.392 86.7779 329.149 86.5111 328.983 86.1797C328.821 85.8482 328.739 85.4853 328.739 85.0909ZM330.037 84.554V85.0909C330.037 85.3527 330.1 85.593 330.226 85.8118C330.352 86.0305 330.574 86.1399 330.892 86.1399C331.214 86.1399 331.434 86.0322 331.553 85.8168C331.676 85.598 331.737 85.3561 331.737 85.0909V84.554C331.737 84.2888 331.679 84.0469 331.563 83.8281C331.447 83.6061 331.223 83.495 330.892 83.495C330.58 83.495 330.36 83.6061 330.231 83.8281C330.102 84.0469 330.037 84.2888 330.037 84.554ZM323.564 79.2642V78.7273C323.564 78.3295 323.648 77.965 323.817 77.6335C323.987 77.3021 324.232 77.0369 324.553 76.8381C324.875 76.6359 325.264 76.5348 325.722 76.5348C326.189 76.5348 326.582 76.6359 326.9 76.8381C327.221 77.0369 327.463 77.3021 327.626 77.6335C327.788 77.965 327.869 78.3295 327.869 78.7273V79.2642C327.869 79.6619 327.786 80.0265 327.621 80.358C327.458 80.6861 327.216 80.9496 326.895 81.1484C326.573 81.3473 326.182 81.4467 325.722 81.4467C325.254 81.4467 324.86 81.3473 324.538 81.1484C324.22 80.9496 323.978 80.6844 323.812 80.353C323.647 80.0215 323.564 79.6586 323.564 79.2642ZM324.871 78.7273V79.2642C324.871 79.5294 324.933 79.7713 325.055 79.9901C325.181 80.2055 325.403 80.3132 325.722 80.3132C326.04 80.3132 326.259 80.2055 326.378 79.9901C326.5 79.7713 326.562 79.5294 326.562 79.2642V78.7273C326.562 78.4621 326.504 78.2202 326.388 78.0014C326.272 77.7794 326.05 77.6683 325.722 77.6683C325.407 77.6683 325.186 77.7794 325.06 78.0014C324.934 78.2235 324.871 78.4654 324.871 78.7273ZM324.131 87L331.131 76.8182H332.374L325.374 87H324.131ZM339.048 81.9091C339.048 80.6662 339.212 79.5244 339.54 78.4837C339.872 77.4396 340.364 76.4751 341.017 75.5902H342.712C342.46 75.9183 342.225 76.321 342.006 76.7983C341.787 77.2723 341.597 77.7926 341.434 78.3594C341.275 78.9228 341.149 79.5078 341.056 80.1143C340.967 80.7209 340.922 81.3191 340.922 81.9091C340.922 82.6946 341 83.4901 341.156 84.2955C341.315 85.1009 341.529 85.8482 341.797 86.5376C342.069 87.2237 342.374 87.7855 342.712 88.223H341.017C340.364 87.3381 339.872 86.3752 339.54 85.3345C339.212 84.2905 339.048 83.1487 339.048 81.9091ZM347.71 87.1392C346.971 87.1392 346.314 87.0149 345.741 86.7663C345.171 86.5178 344.723 86.178 344.399 85.7472C344.077 85.313 343.918 84.8208 343.921 84.2706C343.918 83.843 344.011 83.4503 344.2 83.0923C344.389 82.7344 344.644 82.4361 344.965 82.1974C345.29 81.9555 345.651 81.8014 346.049 81.7351V81.6655C345.526 81.5495 345.101 81.2827 344.776 80.8651C344.455 80.4441 344.296 79.9586 344.299 79.4084C344.296 78.8847 344.442 78.4174 344.737 78.0064C345.032 77.5954 345.436 77.2723 345.95 77.0369C346.463 76.7983 347.05 76.679 347.71 76.679C348.363 76.679 348.944 76.7983 349.455 77.0369C349.968 77.2723 350.373 77.5954 350.668 78.0064C350.966 78.4174 351.115 78.8847 351.115 79.4084C351.115 79.9586 350.951 80.4441 350.623 80.8651C350.298 81.2827 349.879 81.5495 349.365 81.6655V81.7351C349.763 81.8014 350.121 81.9555 350.439 82.1974C350.761 82.4361 351.016 82.7344 351.205 83.0923C351.397 83.4503 351.493 83.843 351.493 84.2706C351.493 84.8208 351.331 85.313 351.006 85.7472C350.681 86.178 350.234 86.5178 349.664 86.7663C349.097 87.0149 348.445 87.1392 347.71 87.1392ZM347.71 85.7173C348.091 85.7173 348.422 85.6527 348.704 85.5234C348.986 85.3909 349.204 85.2053 349.36 84.9666C349.516 84.728 349.596 84.4529 349.599 84.1413C349.596 83.8165 349.511 83.5298 349.345 83.2812C349.183 83.0294 348.959 82.8321 348.674 82.6896C348.392 82.5471 348.071 82.4759 347.71 82.4759C347.345 82.4759 347.02 82.5471 346.735 82.6896C346.45 82.8321 346.225 83.0294 346.059 83.2812C345.897 83.5298 345.817 83.8165 345.82 84.1413C345.817 84.4529 345.893 84.728 346.049 84.9666C346.205 85.2019 346.424 85.3859 346.705 85.5185C346.99 85.651 347.325 85.7173 347.71 85.7173ZM347.71 81.0788C348.021 81.0788 348.296 81.0159 348.535 80.8899C348.777 80.764 348.968 80.5883 349.107 80.3629C349.246 80.1375 349.317 79.8774 349.32 79.5824C349.317 79.2907 349.248 79.0355 349.112 78.8168C348.976 78.5947 348.787 78.424 348.545 78.3047C348.303 78.1821 348.025 78.1207 347.71 78.1207C347.388 78.1207 347.105 78.1821 346.86 78.3047C346.618 78.424 346.429 78.5947 346.293 78.8168C346.16 79.0355 346.096 79.2907 346.099 79.5824C346.096 79.8774 346.162 80.1375 346.298 80.3629C346.437 80.585 346.628 80.7607 346.869 80.8899C347.115 81.0159 347.395 81.0788 347.71 81.0788ZM356.662 76.679C357.15 76.6823 357.623 76.7685 358.084 76.9375C358.548 77.1032 358.966 77.375 359.337 77.7528C359.708 78.1274 360.003 78.6295 360.222 79.2592C360.441 79.889 360.55 80.6679 360.55 81.5959C360.553 82.4709 360.461 83.2531 360.272 83.9425C360.086 84.6286 359.819 85.2086 359.471 85.6825C359.123 86.1565 358.704 86.5178 358.213 86.7663C357.723 87.0149 357.171 87.1392 356.558 87.1392C355.915 87.1392 355.345 87.0133 354.848 86.7614C354.354 86.5095 353.954 86.1648 353.65 85.7273C353.345 85.2898 353.157 84.7893 353.088 84.2259H354.902C354.995 84.6302 355.184 84.9517 355.469 85.1903C355.757 85.4257 356.12 85.5433 356.558 85.5433C357.264 85.5433 357.807 85.2367 358.189 84.6236C358.57 84.0104 358.76 83.1586 358.76 82.0682H358.691C358.528 82.3598 358.318 82.6117 358.059 82.8239C357.801 83.0327 357.507 83.1934 357.179 83.3061C356.855 83.4188 356.51 83.4751 356.145 83.4751C355.549 83.4751 355.012 83.3326 354.534 83.0476C354.06 82.7625 353.684 82.3714 353.406 81.8743C353.131 81.3771 352.992 80.8087 352.988 80.169C352.988 79.5062 353.141 78.9112 353.446 78.3842C353.754 77.8539 354.183 77.4363 354.733 77.1314C355.283 76.8232 355.926 76.6723 356.662 76.679ZM356.667 78.1705C356.309 78.1705 355.986 78.2583 355.698 78.4339C355.413 78.6063 355.187 78.8416 355.022 79.1399C354.859 79.4349 354.778 79.7647 354.778 80.1293C354.781 80.4905 354.863 80.8187 355.022 81.1136C355.184 81.4086 355.404 81.6423 355.683 81.8146C355.965 81.987 356.286 82.0732 356.647 82.0732C356.916 82.0732 357.166 82.0218 357.398 81.919C357.63 81.8163 357.832 81.6738 358.005 81.4915C358.18 81.3059 358.316 81.0954 358.412 80.8601C358.512 80.6248 358.56 80.3762 358.556 80.1143C358.556 79.7663 358.474 79.4448 358.308 79.1499C358.145 78.8549 357.922 78.6179 357.637 78.4389C357.355 78.2599 357.032 78.1705 356.667 78.1705ZM366.347 76.8182V87H364.502V78.6129H364.443L362.061 80.1342V78.4439L364.592 76.8182H366.347ZM372.164 81.9091C372.164 83.1487 371.998 84.2905 371.667 85.3345C371.338 86.3752 370.848 87.3381 370.195 88.223H368.5C368.755 87.8949 368.99 87.4938 369.206 87.0199C369.424 86.5459 369.613 86.0256 369.772 85.4588C369.935 84.892 370.061 84.3054 370.15 83.6989C370.243 83.0923 370.289 82.4957 370.289 81.9091C370.289 81.1236 370.21 80.3281 370.051 79.5227C369.895 78.7173 369.681 77.9699 369.409 77.2805C369.141 76.5911 368.838 76.0277 368.5 75.5902H370.195C370.848 76.4751 371.338 77.4396 371.667 78.4837C371.998 79.5244 372.164 80.6662 372.164 81.9091Z" fill="#0F172A"/>
<g clip-path="url(#clip0_7041_19216)">
<rect x="24" y="104" width="350" height="44" rx="12" fill="#F3EDFF"/>
<rect x="24" y="104" width="350" height="44" rx="12" fill="#6F42C1"/>
</g>
<path d="M33.4261 178H32.1932C32.1203 177.645 31.9927 177.334 31.8104 177.065C31.6314 176.797 31.4126 176.571 31.1541 176.389C30.8989 176.204 30.6155 176.064 30.304 175.972C29.9924 175.879 29.6676 175.832 29.3295 175.832C28.7131 175.832 28.1546 175.988 27.6541 176.3C27.157 176.611 26.7609 177.07 26.4659 177.677C26.1742 178.283 26.0284 179.027 26.0284 179.909C26.0284 180.791 26.1742 181.535 26.4659 182.141C26.7609 182.748 27.157 183.207 27.6541 183.518C28.1546 183.83 28.7131 183.986 29.3295 183.986C29.6676 183.986 29.9924 183.939 30.304 183.847C30.6155 183.754 30.8989 183.616 31.1541 183.434C31.4126 183.248 31.6314 183.021 31.8104 182.753C31.9927 182.481 32.1203 182.17 32.1932 181.818H33.4261C33.3333 182.339 33.1643 182.804 32.919 183.215C32.6738 183.626 32.3688 183.976 32.0043 184.264C31.6397 184.549 31.2304 184.766 30.7763 184.915C30.3255 185.065 29.8433 185.139 29.3295 185.139C28.4612 185.139 27.6889 184.927 27.0128 184.503C26.3366 184.079 25.8047 183.475 25.4169 182.693C25.0291 181.911 24.8352 180.983 24.8352 179.909C24.8352 178.835 25.0291 177.907 25.4169 177.125C25.8047 176.343 26.3366 175.74 27.0128 175.315C27.6889 174.891 28.4612 174.679 29.3295 174.679C29.8433 174.679 30.3255 174.754 30.7763 174.903C31.2304 175.052 31.6397 175.271 32.0043 175.559C32.3688 175.844 32.6738 176.192 32.919 176.603C33.1643 177.011 33.3333 177.476 33.4261 178ZM38.3617 185.159C37.6723 185.159 37.0674 184.995 36.5471 184.667C36.03 184.339 35.6257 183.88 35.334 183.29C35.0456 182.7 34.9015 182.01 34.9015 181.222C34.9015 180.426 35.0456 179.732 35.334 179.138C35.6257 178.545 36.03 178.085 36.5471 177.756C37.0674 177.428 37.6723 177.264 38.3617 177.264C39.0511 177.264 39.6543 177.428 40.1713 177.756C40.6917 178.085 41.0961 178.545 41.3844 179.138C41.6761 179.732 41.8219 180.426 41.8219 181.222C41.8219 182.01 41.6761 182.7 41.3844 183.29C41.0961 183.88 40.6917 184.339 40.1713 184.667C39.6543 184.995 39.0511 185.159 38.3617 185.159ZM38.3617 184.105C38.8854 184.105 39.3162 183.971 39.6543 183.702C39.9924 183.434 40.2426 183.081 40.405 182.643C40.5674 182.206 40.6486 181.732 40.6486 181.222C40.6486 180.711 40.5674 180.236 40.405 179.795C40.2426 179.354 39.9924 178.998 39.6543 178.726C39.3162 178.454 38.8854 178.318 38.3617 178.318C37.838 178.318 37.4071 178.454 37.0691 178.726C36.731 178.998 36.4808 179.354 36.3184 179.795C36.156 180.236 36.0748 180.711 36.0748 181.222C36.0748 181.732 36.156 182.206 36.3184 182.643C36.4808 183.081 36.731 183.434 37.0691 183.702C37.4071 183.971 37.838 184.105 38.3617 184.105ZM44.7862 180.406V185H43.6129V177.364H44.7464V178.557H44.8459C45.0249 178.169 45.2966 177.857 45.6612 177.622C46.0258 177.384 46.4964 177.264 47.0732 177.264C47.5902 177.264 48.0426 177.37 48.4304 177.582C48.8182 177.791 49.1198 178.109 49.3352 178.537C49.5507 178.961 49.6584 179.498 49.6584 180.148V185H48.4851V180.227C48.4851 179.627 48.3293 179.16 48.0178 178.825C47.7062 178.487 47.2786 178.318 46.7351 178.318C46.3606 178.318 46.0258 178.399 45.7308 178.562C45.4392 178.724 45.2088 178.961 45.0398 179.273C44.8707 179.584 44.7862 179.962 44.7862 180.406ZM57.2115 179.074L56.1575 179.372C56.0912 179.196 55.9934 179.026 55.8642 178.86C55.7382 178.691 55.5659 178.552 55.3471 178.442C55.1284 178.333 54.8483 178.278 54.5069 178.278C54.0396 178.278 53.6502 178.386 53.3386 178.602C53.0304 178.814 52.8762 179.084 52.8762 179.412C52.8762 179.704 52.9823 179.934 53.1944 180.103C53.4065 180.272 53.738 180.413 54.1887 180.526L55.3223 180.804C56.005 180.97 56.5138 181.223 56.8485 181.565C57.1833 181.903 57.3507 182.339 57.3507 182.872C57.3507 183.31 57.2247 183.701 56.9728 184.045C56.7243 184.39 56.3762 184.662 55.9288 184.861C55.4814 185.06 54.961 185.159 54.3677 185.159C53.5888 185.159 52.9442 184.99 52.4338 184.652C51.9234 184.314 51.6002 183.82 51.4643 183.17L52.5779 182.892C52.684 183.303 52.8845 183.611 53.1795 183.817C53.4778 184.022 53.8672 184.125 54.3478 184.125C54.8947 184.125 55.3289 184.009 55.6504 183.777C55.9752 183.542 56.1376 183.26 56.1376 182.932C56.1376 182.667 56.0448 182.445 55.8592 182.266C55.6736 182.083 55.3886 181.947 55.0041 181.858L53.7314 181.56C53.032 181.394 52.5183 181.137 52.1902 180.789C51.8654 180.438 51.7029 179.999 51.7029 179.472C51.7029 179.041 51.8239 178.66 52.0659 178.328C52.3111 177.997 52.6442 177.737 53.0652 177.548C53.4894 177.359 53.97 177.264 54.5069 177.264C55.2626 177.264 55.8559 177.43 56.2868 177.761C56.7209 178.093 57.0292 178.53 57.2115 179.074ZM63.9293 181.878V177.364H65.1026V185H63.9293V183.707H63.8498C63.6708 184.095 63.3924 184.425 63.0146 184.697C62.6367 184.965 62.1594 185.099 61.5827 185.099C61.1055 185.099 60.6812 184.995 60.31 184.786C59.9388 184.574 59.6471 184.256 59.435 183.832C59.2229 183.404 59.1168 182.866 59.1168 182.216V177.364H60.2901V182.136C60.2901 182.693 60.4459 183.137 60.7575 183.469C61.0723 183.8 61.4734 183.966 61.9606 183.966C62.2522 183.966 62.5489 183.891 62.8505 183.742C63.1554 183.593 63.4106 183.364 63.6161 183.056C63.8249 182.748 63.9293 182.355 63.9293 181.878ZM68.4249 174.818V185H67.2516V174.818H68.4249ZM73.8949 177.364V178.358H69.9375V177.364H73.8949ZM71.0909 175.534H72.2642V182.812C72.2642 183.144 72.3123 183.393 72.4084 183.558C72.5078 183.721 72.6338 183.83 72.7862 183.886C72.942 183.939 73.1061 183.966 73.2784 183.966C73.4077 183.966 73.5137 183.959 73.5966 183.946C73.6795 183.929 73.7457 183.916 73.7955 183.906L74.0341 184.96C73.9545 184.99 73.8435 185.02 73.701 185.05C73.5585 185.083 73.3778 185.099 73.1591 185.099C72.8277 185.099 72.5028 185.028 72.1847 184.886C71.8698 184.743 71.608 184.526 71.3991 184.234C71.1937 183.943 71.0909 183.575 71.0909 183.131V175.534ZM77.907 185.179C77.4231 185.179 76.9839 185.088 76.5895 184.906C76.1951 184.72 75.8819 184.453 75.6499 184.105C75.4179 183.754 75.3018 183.33 75.3018 182.832C75.3018 182.395 75.388 182.04 75.5604 181.768C75.7327 181.493 75.9631 181.278 76.2514 181.122C76.5398 180.966 76.858 180.85 77.206 180.774C77.5573 180.695 77.9103 180.632 78.2649 180.585C78.7289 180.526 79.1051 180.481 79.3935 180.451C79.6851 180.418 79.8973 180.363 80.0298 180.287C80.1657 180.211 80.2337 180.078 80.2337 179.889V179.849C80.2337 179.359 80.0994 178.978 79.831 178.706C79.5658 178.434 79.1631 178.298 78.6229 178.298C78.0627 178.298 77.6236 178.421 77.3054 178.666C76.9872 178.911 76.7635 179.173 76.6342 179.452L75.5206 179.054C75.7195 178.59 75.9846 178.229 76.3161 177.97C76.6508 177.708 77.0154 177.526 77.4098 177.423C77.8075 177.317 78.1986 177.264 78.5831 177.264C78.8284 177.264 79.1101 177.294 79.4283 177.354C79.7498 177.41 80.0597 177.528 80.358 177.707C80.6596 177.886 80.9098 178.156 81.1087 178.517C81.3075 178.878 81.407 179.362 81.407 179.969V185H80.2337V183.966H80.174C80.0945 184.132 79.9619 184.309 79.7763 184.498C79.5907 184.687 79.3438 184.848 79.0355 184.98C78.7273 185.113 78.3511 185.179 77.907 185.179ZM78.0859 184.125C78.55 184.125 78.9411 184.034 79.2592 183.852C79.5807 183.669 79.8227 183.434 79.9851 183.146C80.1508 182.857 80.2337 182.554 80.2337 182.236V181.162C80.1839 181.222 80.0746 181.276 79.9055 181.326C79.7398 181.372 79.5476 181.414 79.3288 181.45C79.1134 181.483 78.9029 181.513 78.6974 181.54C78.4953 181.563 78.3312 181.583 78.2053 181.599C77.9003 181.639 77.6153 181.704 77.3501 181.793C77.0883 181.879 76.8762 182.01 76.7138 182.186C76.5547 182.358 76.4751 182.594 76.4751 182.892C76.4751 183.3 76.6259 183.608 76.9276 183.817C77.2325 184.022 77.6186 184.125 78.0859 184.125ZM86.8695 177.364V178.358H82.9121V177.364H86.8695ZM84.0655 175.534H85.2388V182.812C85.2388 183.144 85.2869 183.393 85.383 183.558C85.4824 183.721 85.6084 183.83 85.7608 183.886C85.9166 183.939 86.0807 183.966 86.253 183.966C86.3823 183.966 86.4883 183.959 86.5712 183.946C86.6541 183.929 86.7203 183.916 86.7701 183.906L87.0087 184.96C86.9292 184.99 86.8181 185.02 86.6756 185.05C86.5331 185.083 86.3525 185.099 86.1337 185.099C85.8023 185.099 85.4775 185.028 85.1593 184.886C84.8444 184.743 84.5826 184.526 84.3738 184.234C84.1683 183.943 84.0655 183.575 84.0655 183.131V175.534ZM88.6344 185V177.364H89.8077V185H88.6344ZM89.231 176.091C89.0023 176.091 88.8051 176.013 88.6394 175.857C88.477 175.701 88.3958 175.514 88.3958 175.295C88.3958 175.077 88.477 174.889 88.6394 174.734C88.8051 174.578 89.0023 174.5 89.231 174.5C89.4597 174.5 89.6552 174.578 89.8176 174.734C89.9834 174.889 90.0662 175.077 90.0662 175.295C90.0662 175.514 89.9834 175.701 89.8176 175.857C89.6552 176.013 89.4597 176.091 89.231 176.091ZM95.0589 185.159C94.3696 185.159 93.7647 184.995 93.2443 184.667C92.7273 184.339 92.3229 183.88 92.0312 183.29C91.7429 182.7 91.5987 182.01 91.5987 181.222C91.5987 180.426 91.7429 179.732 92.0312 179.138C92.3229 178.545 92.7273 178.085 93.2443 177.756C93.7647 177.428 94.3696 177.264 95.0589 177.264C95.7483 177.264 96.3516 177.428 96.8686 177.756C97.389 178.085 97.7933 178.545 98.0817 179.138C98.3733 179.732 98.5192 180.426 98.5192 181.222C98.5192 182.01 98.3733 182.7 98.0817 183.29C97.7933 183.88 97.389 184.339 96.8686 184.667C96.3516 184.995 95.7483 185.159 95.0589 185.159ZM95.0589 184.105C95.5826 184.105 96.0135 183.971 96.3516 183.702C96.6896 183.434 96.9399 183.081 97.1023 182.643C97.2647 182.206 97.3459 181.732 97.3459 181.222C97.3459 180.711 97.2647 180.236 97.1023 179.795C96.9399 179.354 96.6896 178.998 96.3516 178.726C96.0135 178.454 95.5826 178.318 95.0589 178.318C94.5353 178.318 94.1044 178.454 93.7663 178.726C93.4283 178.998 93.178 179.354 93.0156 179.795C92.8532 180.236 92.772 180.711 92.772 181.222C92.772 181.732 92.8532 182.206 93.0156 182.643C93.178 183.081 93.4283 183.434 93.7663 183.702C94.1044 183.971 94.5353 184.105 95.0589 184.105ZM101.483 180.406V185H100.31V177.364H101.444V178.557H101.543C101.722 178.169 101.994 177.857 102.358 177.622C102.723 177.384 103.194 177.264 103.77 177.264C104.287 177.264 104.74 177.37 105.128 177.582C105.515 177.791 105.817 178.109 106.032 178.537C106.248 178.961 106.356 179.498 106.356 180.148V185H105.182V180.227C105.182 179.627 105.027 179.16 104.715 178.825C104.403 178.487 103.976 178.318 103.432 178.318C103.058 178.318 102.723 178.399 102.428 178.562C102.136 178.724 101.906 178.961 101.737 179.273C101.568 179.584 101.483 179.962 101.483 180.406Z" fill="#475569"/>
<path d="M306.622 185.139C306.135 185.136 305.659 185.051 305.195 184.886C304.731 184.717 304.313 184.443 303.942 184.065C303.571 183.684 303.276 183.179 303.057 182.549C302.838 181.916 302.731 181.132 302.734 180.197C302.734 179.326 302.827 178.549 303.012 177.866C303.198 177.183 303.465 176.606 303.813 176.136C304.161 175.662 304.58 175.3 305.071 175.052C305.565 174.803 306.116 174.679 306.726 174.679C307.366 174.679 307.933 174.805 308.426 175.057C308.924 175.309 309.325 175.653 309.63 176.091C309.935 176.525 310.123 177.016 310.196 177.562H308.382C308.289 177.171 308.098 176.86 307.81 176.628C307.525 176.393 307.164 176.275 306.726 176.275C306.02 176.275 305.477 176.581 305.096 177.195C304.718 177.808 304.527 178.65 304.524 179.72H304.593C304.756 179.429 304.966 179.178 305.225 178.969C305.483 178.761 305.775 178.6 306.1 178.487C306.428 178.371 306.774 178.313 307.139 178.313C307.735 178.313 308.271 178.456 308.745 178.741C309.222 179.026 309.6 179.419 309.878 179.919C310.157 180.416 310.294 180.986 310.291 181.629C310.294 182.299 310.142 182.9 309.833 183.434C309.525 183.964 309.096 184.382 308.546 184.687C307.996 184.992 307.354 185.143 306.622 185.139ZM306.612 183.648C306.973 183.648 307.296 183.56 307.581 183.384C307.866 183.209 308.092 182.972 308.257 182.673C308.423 182.375 308.504 182.04 308.501 181.669C308.504 181.304 308.425 180.975 308.262 180.68C308.103 180.385 307.883 180.151 307.601 179.979C307.319 179.806 306.998 179.72 306.637 179.72C306.368 179.72 306.118 179.772 305.886 179.874C305.654 179.977 305.452 180.12 305.279 180.302C305.107 180.481 304.971 180.69 304.872 180.928C304.776 181.164 304.726 181.415 304.723 181.684C304.726 182.039 304.809 182.365 304.971 182.663C305.134 182.962 305.357 183.2 305.642 183.379C305.927 183.558 306.251 183.648 306.612 183.648ZM315.591 185.139C314.851 185.139 314.195 185.015 313.622 184.766C313.052 184.518 312.604 184.178 312.279 183.747C311.958 183.313 311.799 182.821 311.802 182.271C311.799 181.843 311.892 181.45 312.081 181.092C312.27 180.734 312.525 180.436 312.846 180.197C313.171 179.955 313.532 179.801 313.93 179.735V179.665C313.406 179.549 312.982 179.283 312.657 178.865C312.336 178.444 312.177 177.959 312.18 177.408C312.177 176.885 312.323 176.417 312.618 176.006C312.913 175.595 313.317 175.272 313.831 175.037C314.344 174.798 314.931 174.679 315.591 174.679C316.243 174.679 316.825 174.798 317.336 175.037C317.849 175.272 318.254 175.595 318.549 176.006C318.847 176.417 318.996 176.885 318.996 177.408C318.996 177.959 318.832 178.444 318.504 178.865C318.179 179.283 317.76 179.549 317.246 179.665V179.735C317.644 179.801 318.002 179.955 318.32 180.197C318.641 180.436 318.897 180.734 319.086 181.092C319.278 181.45 319.374 181.843 319.374 182.271C319.374 182.821 319.212 183.313 318.887 183.747C318.562 184.178 318.114 184.518 317.544 184.766C316.978 185.015 316.326 185.139 315.591 185.139ZM315.591 183.717C315.972 183.717 316.303 183.653 316.585 183.523C316.867 183.391 317.085 183.205 317.241 182.967C317.397 182.728 317.476 182.453 317.48 182.141C317.476 181.817 317.392 181.53 317.226 181.281C317.064 181.029 316.84 180.832 316.555 180.69C316.273 180.547 315.952 180.476 315.591 180.476C315.226 180.476 314.901 180.547 314.616 180.69C314.331 180.832 314.106 181.029 313.94 181.281C313.778 181.53 313.698 181.817 313.701 182.141C313.698 182.453 313.774 182.728 313.93 182.967C314.086 183.202 314.305 183.386 314.586 183.518C314.871 183.651 315.206 183.717 315.591 183.717ZM315.591 179.079C315.902 179.079 316.177 179.016 316.416 178.89C316.658 178.764 316.848 178.588 316.988 178.363C317.127 178.138 317.198 177.877 317.201 177.582C317.198 177.291 317.128 177.036 316.993 176.817C316.857 176.595 316.668 176.424 316.426 176.305C316.184 176.182 315.905 176.121 315.591 176.121C315.269 176.121 314.986 176.182 314.74 176.305C314.498 176.424 314.31 176.595 314.174 176.817C314.041 177.036 313.976 177.291 313.98 177.582C313.976 177.877 314.043 178.138 314.179 178.363C314.318 178.585 314.508 178.761 314.75 178.89C314.996 179.016 315.276 179.079 315.591 179.079ZM326.452 183.091V182.554C326.452 182.16 326.535 181.797 326.701 181.465C326.87 181.134 327.115 180.867 327.437 180.665C327.758 180.463 328.148 180.362 328.605 180.362C329.076 180.362 329.47 180.463 329.788 180.665C330.106 180.864 330.347 181.129 330.509 181.46C330.675 181.792 330.758 182.156 330.758 182.554V183.091C330.758 183.485 330.675 183.848 330.509 184.18C330.343 184.511 330.1 184.778 329.778 184.98C329.46 185.182 329.069 185.283 328.605 185.283C328.141 185.283 327.748 185.182 327.427 184.98C327.105 184.778 326.862 184.511 326.696 184.18C326.533 183.848 326.452 183.485 326.452 183.091ZM327.75 182.554V183.091C327.75 183.353 327.813 183.593 327.939 183.812C328.065 184.031 328.287 184.14 328.605 184.14C328.926 184.14 329.147 184.032 329.266 183.817C329.389 183.598 329.45 183.356 329.45 183.091V182.554C329.45 182.289 329.392 182.047 329.276 181.828C329.16 181.606 328.936 181.495 328.605 181.495C328.293 181.495 328.073 181.606 327.944 181.828C327.814 182.047 327.75 182.289 327.75 182.554ZM321.277 177.264V176.727C321.277 176.33 321.361 175.965 321.53 175.634C321.699 175.302 321.945 175.037 322.266 174.838C322.588 174.636 322.977 174.535 323.434 174.535C323.902 174.535 324.295 174.636 324.613 174.838C324.934 175.037 325.176 175.302 325.339 175.634C325.501 175.965 325.582 176.33 325.582 176.727V177.264C325.582 177.662 325.499 178.027 325.334 178.358C325.171 178.686 324.929 178.95 324.608 179.148C324.286 179.347 323.895 179.447 323.434 179.447C322.967 179.447 322.573 179.347 322.251 179.148C321.933 178.95 321.691 178.684 321.525 178.353C321.36 178.022 321.277 177.659 321.277 177.264ZM322.584 176.727V177.264C322.584 177.529 322.646 177.771 322.768 177.99C322.894 178.205 323.116 178.313 323.434 178.313C323.753 178.313 323.971 178.205 324.091 177.99C324.213 177.771 324.275 177.529 324.275 177.264V176.727C324.275 176.462 324.217 176.22 324.101 176.001C323.985 175.779 323.763 175.668 323.434 175.668C323.12 175.668 322.899 175.779 322.773 176.001C322.647 176.223 322.584 176.465 322.584 176.727ZM321.844 185L328.844 174.818H330.086L323.086 185H321.844ZM336.761 179.909C336.761 178.666 336.925 177.524 337.253 176.484C337.584 175.44 338.077 174.475 338.73 173.59H340.425C340.173 173.918 339.938 174.321 339.719 174.798C339.5 175.272 339.31 175.793 339.147 176.359C338.988 176.923 338.862 177.508 338.769 178.114C338.68 178.721 338.635 179.319 338.635 179.909C338.635 180.695 338.713 181.49 338.869 182.295C339.028 183.101 339.242 183.848 339.51 184.538C339.782 185.224 340.087 185.786 340.425 186.223H338.73C338.077 185.338 337.584 184.375 337.253 183.335C336.925 182.29 336.761 181.149 336.761 179.909ZM345.532 185.139C345.045 185.136 344.569 185.051 344.105 184.886C343.641 184.717 343.223 184.443 342.852 184.065C342.481 183.684 342.186 183.179 341.967 182.549C341.749 181.916 341.641 181.132 341.644 180.197C341.644 179.326 341.737 178.549 341.923 177.866C342.108 177.183 342.375 176.606 342.723 176.136C343.071 175.662 343.49 175.3 343.981 175.052C344.475 174.803 345.027 174.679 345.636 174.679C346.276 174.679 346.843 174.805 347.337 175.057C347.834 175.309 348.235 175.653 348.54 176.091C348.845 176.525 349.034 177.016 349.107 177.562H347.292C347.199 177.171 347.009 176.86 346.72 176.628C346.435 176.393 346.074 176.275 345.636 176.275C344.93 176.275 344.387 176.581 344.006 177.195C343.628 177.808 343.437 178.65 343.434 179.72H343.504C343.666 179.429 343.876 179.178 344.135 178.969C344.393 178.761 344.685 178.6 345.01 178.487C345.338 178.371 345.684 178.313 346.049 178.313C346.646 178.313 347.181 178.456 347.655 178.741C348.132 179.026 348.51 179.419 348.788 179.919C349.067 180.416 349.204 180.986 349.201 181.629C349.204 182.299 349.052 182.9 348.744 183.434C348.435 183.964 348.006 184.382 347.456 184.687C346.906 184.992 346.264 185.143 345.532 185.139ZM345.522 183.648C345.883 183.648 346.206 183.56 346.491 183.384C346.777 183.209 347.002 182.972 347.168 182.673C347.333 182.375 347.415 182.04 347.411 181.669C347.415 181.304 347.335 180.975 347.173 180.68C347.013 180.385 346.793 180.151 346.511 179.979C346.23 179.806 345.908 179.72 345.547 179.72C345.278 179.72 345.028 179.772 344.796 179.874C344.564 179.977 344.362 180.12 344.19 180.302C344.017 180.481 343.881 180.69 343.782 180.928C343.686 181.164 343.636 181.415 343.633 181.684C343.636 182.039 343.719 182.365 343.881 182.663C344.044 182.962 344.268 183.2 344.553 183.379C344.838 183.558 345.161 183.648 345.522 183.648ZM354.645 185.194C353.826 185.194 353.124 184.987 352.537 184.572C351.954 184.155 351.504 183.553 351.19 182.768C350.878 181.979 350.722 181.029 350.722 179.919C350.726 178.809 350.883 177.864 351.195 177.085C351.509 176.303 351.959 175.706 352.542 175.295C353.129 174.884 353.83 174.679 354.645 174.679C355.46 174.679 356.161 174.884 356.748 175.295C357.335 175.706 357.784 176.303 358.095 177.085C358.41 177.867 358.567 178.812 358.567 179.919C358.567 181.033 358.41 181.984 358.095 182.773C357.784 183.558 357.335 184.158 356.748 184.572C356.165 184.987 355.464 185.194 354.645 185.194ZM354.645 183.638C355.281 183.638 355.783 183.325 356.151 182.698C356.522 182.068 356.708 181.142 356.708 179.919C356.708 179.11 356.624 178.431 356.455 177.881C356.286 177.33 356.047 176.916 355.739 176.638C355.43 176.356 355.066 176.215 354.645 176.215C354.012 176.215 353.511 176.53 353.143 177.16C352.776 177.786 352.59 178.706 352.587 179.919C352.583 180.731 352.665 181.414 352.83 181.967C352.999 182.521 353.238 182.938 353.546 183.22C353.854 183.499 354.221 183.638 354.645 183.638ZM363.759 185.139C363.096 185.139 362.503 185.015 361.979 184.766C361.456 184.514 361.04 184.17 360.731 183.732C360.426 183.295 360.264 182.794 360.244 182.231H362.034C362.067 182.648 362.248 182.99 362.576 183.255C362.904 183.517 363.298 183.648 363.759 183.648C364.12 183.648 364.442 183.565 364.724 183.399C365.005 183.233 365.227 183.003 365.39 182.708C365.552 182.413 365.632 182.077 365.628 181.699C365.632 181.314 365.55 180.973 365.385 180.675C365.219 180.376 364.992 180.143 364.704 179.974C364.415 179.801 364.084 179.715 363.709 179.715C363.404 179.712 363.104 179.768 362.809 179.884C362.515 180 362.281 180.153 362.108 180.342L360.443 180.068L360.975 174.818H366.881V176.359H362.501L362.208 179.059H362.268C362.456 178.837 362.723 178.653 363.068 178.507C363.413 178.358 363.791 178.283 364.202 178.283C364.818 178.283 365.368 178.429 365.852 178.721C366.336 179.009 366.717 179.407 366.996 179.914C367.274 180.421 367.413 181.001 367.413 181.654C367.413 182.327 367.257 182.927 366.946 183.454C366.638 183.978 366.208 184.39 365.658 184.692C365.111 184.99 364.478 185.139 363.759 185.139ZM372.31 179.909C372.31 181.149 372.144 182.29 371.813 183.335C371.485 184.375 370.994 185.338 370.341 186.223H368.646C368.901 185.895 369.137 185.494 369.352 185.02C369.571 184.546 369.76 184.026 369.919 183.459C370.081 182.892 370.207 182.305 370.297 181.699C370.39 181.092 370.436 180.496 370.436 179.909C370.436 179.124 370.356 178.328 370.197 177.523C370.041 176.717 369.828 175.97 369.556 175.281C369.287 174.591 368.984 174.028 368.646 173.59H370.341C370.994 174.475 371.485 175.44 371.813 176.484C372.144 177.524 372.31 178.666 372.31 179.909Z" fill="#0F172A"/>
<rect x="24" y="202" width="350" height="44" rx="12" fill="#F3EDFF"/>
<rect x="24" y="202" width="233" height="44" rx="12" fill="#8B5CF6"/>
<path d="M24.6761 273.912V272.818H32.3125V273.912H29.1108V283H27.8778V273.912H24.6761ZM33.2633 283V275.364H34.3968V276.517H34.4764C34.6156 276.139 34.8675 275.833 35.2321 275.597C35.5967 275.362 36.0076 275.244 36.465 275.244C36.5512 275.244 36.6589 275.246 36.7882 275.249C36.9174 275.253 37.0152 275.258 37.0815 275.264V276.457C37.0417 276.447 36.9506 276.433 36.8081 276.413C36.6689 276.389 36.5214 276.378 36.3656 276.378C35.9944 276.378 35.6629 276.456 35.3713 276.612C35.0829 276.764 34.8542 276.976 34.6852 277.248C34.5195 277.516 34.4366 277.823 34.4366 278.168V283H33.2633ZM41.4416 283.159C40.7058 283.159 40.0711 282.997 39.5375 282.672C39.0072 282.344 38.5978 281.886 38.3095 281.3C38.0244 280.71 37.8819 280.024 37.8819 279.241C37.8819 278.459 38.0244 277.77 38.3095 277.173C38.5978 276.573 38.9989 276.106 39.5126 275.771C40.0297 275.433 40.6329 275.264 41.3223 275.264C41.72 275.264 42.1127 275.33 42.5005 275.463C42.8883 275.596 43.2413 275.811 43.5595 276.109C43.8777 276.404 44.1312 276.795 44.3201 277.283C44.5091 277.77 44.6035 278.37 44.6035 279.082V279.58H38.7172V278.565H43.4103C43.4103 278.134 43.3242 277.75 43.1518 277.412C42.9828 277.074 42.7408 276.807 42.426 276.612C42.1144 276.416 41.7465 276.318 41.3223 276.318C40.8549 276.318 40.4506 276.434 40.1092 276.666C39.7711 276.895 39.5109 277.193 39.3287 277.561C39.1464 277.929 39.0552 278.323 39.0552 278.744V279.42C39.0552 279.997 39.1547 280.486 39.3535 280.887C39.5557 281.285 39.8358 281.588 40.1937 281.797C40.5517 282.002 40.9676 282.105 41.4416 282.105C41.7498 282.105 42.0282 282.062 42.2768 281.976C42.5287 281.886 42.7458 281.754 42.9281 281.578C43.1104 281.399 43.2512 281.177 43.3507 280.912L44.4842 281.23C44.3649 281.615 44.1644 281.953 43.8826 282.244C43.6009 282.533 43.2529 282.758 42.8386 282.92C42.4243 283.08 41.9586 283.159 41.4416 283.159ZM48.6355 283.179C48.1516 283.179 47.7124 283.088 47.318 282.906C46.9236 282.72 46.6104 282.453 46.3784 282.105C46.1464 281.754 46.0304 281.33 46.0304 280.832C46.0304 280.395 46.1165 280.04 46.2889 279.768C46.4612 279.493 46.6916 279.278 46.9799 279.122C47.2683 278.966 47.5865 278.85 47.9345 278.774C48.2858 278.695 48.6388 278.632 48.9934 278.585C49.4574 278.526 49.8336 278.481 50.122 278.451C50.4136 278.418 50.6258 278.363 50.7583 278.287C50.8942 278.211 50.9622 278.078 50.9622 277.889V277.849C50.9622 277.359 50.8279 276.978 50.5595 276.706C50.2943 276.434 49.8916 276.298 49.3514 276.298C48.7913 276.298 48.3521 276.421 48.0339 276.666C47.7157 276.911 47.492 277.173 47.3627 277.452L46.2491 277.054C46.448 276.59 46.7131 276.229 47.0446 275.97C47.3793 275.708 47.7439 275.526 48.1383 275.423C48.536 275.317 48.9271 275.264 49.3116 275.264C49.5569 275.264 49.8386 275.294 50.1568 275.354C50.4783 275.41 50.7882 275.528 51.0865 275.707C51.3881 275.886 51.6383 276.156 51.8372 276.517C52.036 276.878 52.1355 277.362 52.1355 277.969V283H50.9622V281.966H50.9025C50.823 282.132 50.6904 282.309 50.5048 282.498C50.3192 282.687 50.0723 282.848 49.764 282.98C49.4558 283.113 49.0796 283.179 48.6355 283.179ZM48.8145 282.125C49.2785 282.125 49.6696 282.034 49.9877 281.852C50.3092 281.669 50.5512 281.434 50.7136 281.146C50.8793 280.857 50.9622 280.554 50.9622 280.236V279.162C50.9125 279.222 50.8031 279.276 50.6341 279.326C50.4683 279.372 50.2761 279.414 50.0574 279.45C49.8419 279.483 49.6315 279.513 49.426 279.54C49.2238 279.563 49.0597 279.583 48.9338 279.599C48.6288 279.639 48.3438 279.704 48.0787 279.793C47.8168 279.879 47.6047 280.01 47.4423 280.186C47.2832 280.358 47.2037 280.594 47.2037 280.892C47.2037 281.3 47.3545 281.608 47.6561 281.817C47.961 282.022 48.3471 282.125 48.8145 282.125ZM57.598 275.364V276.358H53.6406V275.364H57.598ZM54.794 273.534H55.9673V280.812C55.9673 281.144 56.0154 281.393 56.1115 281.558C56.2109 281.721 56.3369 281.83 56.4893 281.886C56.6451 281.939 56.8092 281.966 56.9815 281.966C57.1108 281.966 57.2169 281.959 57.2997 281.946C57.3826 281.929 57.4489 281.916 57.4986 281.906L57.7372 282.96C57.6577 282.99 57.5466 283.02 57.4041 283.05C57.2616 283.083 57.081 283.099 56.8622 283.099C56.5308 283.099 56.206 283.028 55.8878 282.886C55.5729 282.743 55.3111 282.526 55.1023 282.234C54.8968 281.943 54.794 281.575 54.794 281.131V273.534ZM59.3629 283V275.364H60.4964V276.557H60.5959C60.755 276.149 61.0118 275.833 61.3665 275.607C61.7211 275.379 62.147 275.264 62.6442 275.264C63.148 275.264 63.5672 275.379 63.902 275.607C64.2401 275.833 64.5036 276.149 64.6925 276.557H64.772C64.9676 276.162 65.2609 275.849 65.652 275.617C66.0431 275.382 66.5121 275.264 67.0589 275.264C67.7417 275.264 68.3002 275.478 68.7344 275.906C69.1686 276.33 69.3857 276.991 69.3857 277.889V283H68.2124V277.889C68.2124 277.326 68.0582 276.923 67.75 276.681C67.4418 276.439 67.0788 276.318 66.6612 276.318C66.1243 276.318 65.7083 276.481 65.4134 276.805C65.1184 277.127 64.9709 277.535 64.9709 278.028V283H63.7777V277.77C63.7777 277.336 63.6368 276.986 63.3551 276.721C63.0734 276.452 62.7105 276.318 62.2663 276.318C61.9614 276.318 61.6764 276.399 61.4112 276.562C61.1494 276.724 60.9373 276.95 60.7749 277.238C60.6158 277.523 60.5362 277.853 60.5362 278.227V283H59.3629ZM74.7326 283.159C73.9968 283.159 73.3621 282.997 72.8285 282.672C72.2982 282.344 71.8888 281.886 71.6005 281.3C71.3155 280.71 71.1729 280.024 71.1729 279.241C71.1729 278.459 71.3155 277.77 71.6005 277.173C71.8888 276.573 72.2899 276.106 72.8036 275.771C73.3207 275.433 73.9239 275.264 74.6133 275.264C75.011 275.264 75.4038 275.33 75.7915 275.463C76.1793 275.596 76.5323 275.811 76.8505 276.109C77.1687 276.404 77.4222 276.795 77.6112 277.283C77.8001 277.77 77.8945 278.37 77.8945 279.082V279.58H72.0082V278.565H76.7013C76.7013 278.134 76.6152 277.75 76.4428 277.412C76.2738 277.074 76.0318 276.807 75.717 276.612C75.4054 276.416 75.0375 276.318 74.6133 276.318C74.146 276.318 73.7416 276.434 73.4002 276.666C73.0621 276.895 72.802 277.193 72.6197 277.561C72.4374 277.929 72.3462 278.323 72.3462 278.744V279.42C72.3462 279.997 72.4457 280.486 72.6445 280.887C72.8467 281.285 73.1268 281.588 73.4847 281.797C73.8427 282.002 74.2586 282.105 74.7326 282.105C75.0408 282.105 75.3192 282.062 75.5678 281.976C75.8197 281.886 76.0368 281.754 76.2191 281.578C76.4014 281.399 76.5423 281.177 76.6417 280.912L77.7752 281.23C77.6559 281.615 77.4554 281.953 77.1737 282.244C76.8919 282.533 76.5439 282.758 76.1296 282.92C75.7153 283.08 75.2496 283.159 74.7326 283.159ZM80.8526 278.406V283H79.6793V275.364H80.8129V276.557H80.9123C81.0913 276.169 81.363 275.857 81.7276 275.622C82.0922 275.384 82.5629 275.264 83.1396 275.264C83.6566 275.264 84.109 275.37 84.4968 275.582C84.8846 275.791 85.1862 276.109 85.4016 276.537C85.6171 276.961 85.7248 277.498 85.7248 278.148V283H84.5515V278.227C84.5515 277.627 84.3957 277.16 84.0842 276.825C83.7726 276.487 83.3451 276.318 82.8015 276.318C82.427 276.318 82.0922 276.399 81.7972 276.562C81.5056 276.724 81.2752 276.961 81.1062 277.273C80.9371 277.584 80.8526 277.962 80.8526 278.406ZM91.1898 275.364V276.358H87.2324V275.364H91.1898ZM88.3858 273.534H89.5591V280.812C89.5591 281.144 89.6072 281.393 89.7033 281.558C89.8027 281.721 89.9287 281.83 90.0811 281.886C90.2369 281.939 90.401 281.966 90.5733 281.966C90.7026 281.966 90.8087 281.959 90.8915 281.946C90.9744 281.929 91.0407 281.916 91.0904 281.906L91.329 282.96C91.2495 282.99 91.1384 283.02 90.9959 283.05C90.8534 283.083 90.6728 283.099 90.454 283.099C90.1226 283.099 89.7978 283.028 89.4796 282.886C89.1647 282.743 88.9029 282.526 88.6941 282.234C88.4886 281.943 88.3858 281.575 88.3858 281.131V273.534Z" fill="#475569"/>
<path d="M303.709 281.111V279.644L308.029 272.818H309.252V274.906H308.507L305.598 279.515V279.594H311.629V281.111H303.709ZM308.566 283V280.663L308.586 280.007V272.818H310.326V283H308.566ZM313.217 283V281.668L316.752 278.202C317.09 277.861 317.372 277.558 317.597 277.293C317.823 277.027 317.992 276.771 318.104 276.522C318.217 276.273 318.273 276.008 318.273 275.727C318.273 275.405 318.201 275.13 318.055 274.901C317.909 274.669 317.708 274.49 317.453 274.364C317.198 274.238 316.908 274.175 316.583 274.175C316.248 274.175 315.955 274.245 315.703 274.384C315.451 274.52 315.256 274.714 315.116 274.966C314.981 275.218 314.913 275.518 314.913 275.866H313.158C313.158 275.219 313.305 274.658 313.6 274.18C313.895 273.703 314.301 273.334 314.818 273.072C315.339 272.81 315.935 272.679 316.608 272.679C317.291 272.679 317.891 272.807 318.408 273.062C318.925 273.317 319.326 273.667 319.611 274.111C319.899 274.555 320.043 275.062 320.043 275.632C320.043 276.013 319.97 276.388 319.825 276.756C319.679 277.124 319.422 277.531 319.054 277.979C318.689 278.426 318.177 278.968 317.518 279.604L315.763 281.389V281.459H320.197V283H313.217ZM327.357 281.091V280.554C327.357 280.16 327.439 279.797 327.605 279.465C327.774 279.134 328.019 278.867 328.341 278.665C328.662 278.463 329.052 278.362 329.509 278.362C329.98 278.362 330.374 278.463 330.692 278.665C331.011 278.864 331.251 279.129 331.413 279.46C331.579 279.792 331.662 280.156 331.662 280.554V281.091C331.662 281.485 331.579 281.848 331.413 282.18C331.248 282.511 331.004 282.778 330.683 282.98C330.364 283.182 329.973 283.283 329.509 283.283C329.045 283.283 328.652 283.182 328.331 282.98C328.009 282.778 327.766 282.511 327.6 282.18C327.438 281.848 327.357 281.485 327.357 281.091ZM328.654 280.554V281.091C328.654 281.353 328.717 281.593 328.843 281.812C328.969 282.031 329.191 282.14 329.509 282.14C329.831 282.14 330.051 282.032 330.17 281.817C330.293 281.598 330.354 281.356 330.354 281.091V280.554C330.354 280.289 330.296 280.047 330.18 279.828C330.064 279.606 329.841 279.495 329.509 279.495C329.198 279.495 328.977 279.606 328.848 279.828C328.719 280.047 328.654 280.289 328.654 280.554ZM322.181 275.264V274.727C322.181 274.33 322.266 273.965 322.435 273.634C322.604 273.302 322.849 273.037 323.17 272.838C323.492 272.636 323.881 272.535 324.339 272.535C324.806 272.535 325.199 272.636 325.517 272.838C325.839 273.037 326.08 273.302 326.243 273.634C326.405 273.965 326.487 274.33 326.487 274.727V275.264C326.487 275.662 326.404 276.027 326.238 276.358C326.076 276.686 325.834 276.95 325.512 277.148C325.191 277.347 324.799 277.447 324.339 277.447C323.871 277.447 323.477 277.347 323.156 277.148C322.837 276.95 322.595 276.684 322.43 276.353C322.264 276.022 322.181 275.659 322.181 275.264ZM323.489 274.727V275.264C323.489 275.529 323.55 275.771 323.673 275.99C323.799 276.205 324.021 276.313 324.339 276.313C324.657 276.313 324.876 276.205 324.995 275.99C325.118 275.771 325.179 275.529 325.179 275.264V274.727C325.179 274.462 325.121 274.22 325.005 274.001C324.889 273.779 324.667 273.668 324.339 273.668C324.024 273.668 323.804 273.779 323.678 274.001C323.552 274.223 323.489 274.465 323.489 274.727ZM322.748 283L329.748 272.818H330.991L323.991 283H322.748ZM337.665 277.909C337.665 276.666 337.829 275.524 338.157 274.484C338.489 273.44 338.981 272.475 339.634 271.59H341.329C341.077 271.918 340.842 272.321 340.623 272.798C340.404 273.272 340.214 273.793 340.051 274.359C339.892 274.923 339.766 275.508 339.674 276.114C339.584 276.721 339.539 277.319 339.539 277.909C339.539 278.695 339.617 279.49 339.773 280.295C339.932 281.101 340.146 281.848 340.414 282.538C340.686 283.224 340.991 283.786 341.329 284.223H339.634C338.981 283.338 338.489 282.375 338.157 281.335C337.829 280.29 337.665 279.149 337.665 277.909ZM346.362 283.139C345.646 283.139 345.009 283.017 344.453 282.771C343.899 282.526 343.462 282.185 343.14 281.747C342.819 281.31 342.648 280.804 342.628 280.231H344.497C344.514 280.506 344.605 280.746 344.771 280.952C344.936 281.154 345.157 281.311 345.432 281.424C345.707 281.537 346.015 281.593 346.357 281.593C346.721 281.593 347.044 281.53 347.326 281.404C347.608 281.275 347.828 281.096 347.987 280.867C348.146 280.638 348.224 280.375 348.221 280.077C348.224 279.768 348.145 279.497 347.982 279.261C347.82 279.026 347.585 278.842 347.276 278.71C346.972 278.577 346.604 278.511 346.173 278.511H345.273V277.089H346.173C346.527 277.089 346.837 277.027 347.102 276.905C347.371 276.782 347.581 276.61 347.734 276.388C347.886 276.162 347.961 275.902 347.958 275.607C347.961 275.319 347.896 275.069 347.764 274.857C347.634 274.641 347.45 274.474 347.212 274.354C346.977 274.235 346.7 274.175 346.382 274.175C346.07 274.175 345.782 274.232 345.517 274.344C345.251 274.457 345.038 274.618 344.875 274.827C344.713 275.032 344.627 275.277 344.617 275.562H342.842C342.855 274.992 343.019 274.492 343.334 274.061C343.652 273.627 344.076 273.289 344.607 273.047C345.137 272.802 345.732 272.679 346.392 272.679C347.071 272.679 347.661 272.807 348.161 273.062C348.665 273.314 349.055 273.653 349.33 274.081C349.605 274.509 349.742 274.981 349.742 275.498C349.746 276.071 349.577 276.552 349.235 276.94C348.897 277.327 348.453 277.581 347.903 277.7V277.78C348.619 277.879 349.167 278.144 349.548 278.575C349.933 279.003 350.124 279.535 350.12 280.171C350.12 280.741 349.958 281.252 349.633 281.702C349.311 282.15 348.867 282.501 348.301 282.756C347.737 283.012 347.091 283.139 346.362 283.139ZM352.2 283L356.53 274.429V274.359H351.504V272.818H358.439V274.394L354.114 283H352.2ZM359.039 281.111V279.644L363.36 272.818H364.583V274.906H363.837L360.928 279.515V279.594H366.959V281.111H359.039ZM363.896 283V280.663L363.916 280.007V272.818H365.656V283H363.896ZM371.779 277.909C371.779 279.149 371.613 280.29 371.282 281.335C370.954 282.375 370.463 283.338 369.81 284.223H368.115C368.37 283.895 368.605 283.494 368.821 283.02C369.04 282.546 369.229 282.026 369.388 281.459C369.55 280.892 369.676 280.305 369.765 279.699C369.858 279.092 369.905 278.496 369.905 277.909C369.905 277.124 369.825 276.328 369.666 275.523C369.51 274.717 369.296 273.97 369.025 273.281C368.756 272.591 368.453 272.028 368.115 271.59H369.81C370.463 272.475 370.954 273.44 371.282 274.484C371.613 275.524 371.779 276.666 371.779 277.909Z" fill="#0F172A"/>
<rect x="24" y="300" width="350" height="44" rx="12" fill="#F3EDFF"/>
<rect x="24" y="300" width="190" height="44" rx="12" fill="#A784FF"/>
<defs>
<clipPath id="clip0_7041_19216">
<rect x="24" y="104" width="350" height="44" rx="12" fill="white"/>
</clipPath>
</defs>
</svg>
