<svg width="204" height="44" viewBox="0 0 204 44" fill="none" xmlns="http://www.w3.org/2000/svg">
<path d="M0 4.88889C0 2.18883 2.18883 0 4.88889 0H39.1111C41.8112 0 44 2.18883 44 4.88889V39.1111C44 41.8112 41.8112 44 39.1111 44H4.88889C2.18883 44 0 41.8112 0 39.1111V4.88889Z" fill="#0052CC"/>
<path d="M18.3333 14.6665C18.9444 15.2776 20.1707 15.1704 22 13.6598M22 13.6598C21.7294 13.4363 21.4483 13.1825 21.1579 12.8947C18.3398 10.1022 14.5019 10.6489 12.7038 12.8947C11.4618 14.4457 8.28364 18.307 16.0626 32.0704C16.3847 32.6402 17.0263 32.9998 17.7173 32.9998C18.8198 32.9998 19.6814 32.1199 19.7173 31.093C19.7933 28.915 20.2152 26.4041 22 26.4041C23.7848 26.4041 24.2067 28.915 24.2827 31.093C24.3186 32.1199 25.1802 32.9998 26.2827 32.9998C26.9737 32.9998 27.6153 32.6402 27.9373 32.0704C35.7164 18.307 32.5382 14.4457 31.2962 12.8947C29.4981 10.6489 25.6602 10.1022 22.8421 12.8947C22.5517 13.1825 22.2706 13.4363 22 13.6598Z" stroke="white" stroke-width="1.83333" stroke-linecap="round" stroke-linejoin="round"/>
<g clip-path="url(#clip0_7232_5776)">
<g filter="url(#filter0_d_7232_5776)">
<path fill-rule="evenodd" clip-rule="evenodd" d="M37.3489 3.63545C36.6213 6.87119 38.6729 10.1147 41.9096 10.8426C38.6739 10.1149 35.4304 12.1665 34.7025 15.4032C35.4302 12.1675 33.3786 8.92403 30.1428 8.19635C33.3786 8.92403 36.621 6.87219 37.3489 3.63545ZM37.1031 16.2866C36.5408 18.7869 38.1265 21.2913 40.6257 21.8534C38.1265 21.2913 35.621 22.8768 35.059 25.3761C35.6212 22.8758 34.0355 20.3713 31.5363 19.8093C34.0355 20.3713 36.541 18.7859 37.1031 16.2866ZM26.6772 9.01731C26.06 11.7621 27.8004 14.5138 30.5462 15.1313C27.8014 14.514 25.0497 16.2545 24.4322 19.0002C25.0495 16.2555 23.309 13.5037 20.5633 12.8862C23.308 13.5035 26.0597 11.7631 26.6772 9.01731Z" fill="white"/>
</g>
</g>
<path d="M70.0795 18.25C69.9205 17.697 69.697 17.2083 69.4091 16.7841C69.1212 16.3523 68.7689 15.9886 68.3523 15.6932C67.9432 15.3902 67.4735 15.1591 66.9432 15C66.4205 14.8409 65.8409 14.7614 65.2045 14.7614C64.0152 14.7614 62.9697 15.0568 62.0682 15.6477C61.1742 16.2386 60.4773 17.0985 59.9773 18.2273C59.4773 19.3485 59.2273 20.7197 59.2273 22.3409C59.2273 23.9621 59.4735 25.3409 59.9659 26.4773C60.4583 27.6136 61.1553 28.4811 62.0568 29.0795C62.9583 29.6705 64.0227 29.9659 65.25 29.9659C66.3636 29.9659 67.3144 29.7689 68.1023 29.375C68.8977 28.9735 69.5038 28.4091 69.9205 27.6818C70.3447 26.9545 70.5568 26.0947 70.5568 25.1023L71.5568 25.25H65.5568V21.5455H75.2955V24.4773C75.2955 26.5227 74.8636 28.2803 74 29.75C73.1364 31.2121 71.947 32.3409 70.4318 33.1364C68.9167 33.9242 67.1818 34.3182 65.2273 34.3182C63.0455 34.3182 61.1288 33.8371 59.4773 32.875C57.8258 31.9053 56.5379 30.5303 55.6136 28.75C54.697 26.9621 54.2386 24.8409 54.2386 22.3864C54.2386 20.5 54.5114 18.8182 55.0568 17.3409C55.6098 15.8561 56.3826 14.5985 57.375 13.5682C58.3674 12.5379 59.5227 11.7538 60.8409 11.2159C62.1591 10.678 63.5871 10.4091 65.125 10.4091C66.4432 10.4091 67.6705 10.6023 68.8068 10.9886C69.9432 11.3674 70.9508 11.9053 71.8295 12.6023C72.7159 13.2992 73.4394 14.1288 74 15.0909C74.5606 16.0455 74.9205 17.0985 75.0795 18.25H70.0795ZM86.8551 34.3409C85.0597 34.3409 83.5142 33.9773 82.2188 33.25C80.9309 32.5152 79.9384 31.4773 79.2415 30.1364C78.5445 28.7879 78.196 27.1932 78.196 25.3523C78.196 23.5568 78.5445 21.9811 79.2415 20.625C79.9384 19.2689 80.9195 18.2121 82.1847 17.4545C83.4574 16.697 84.9498 16.3182 86.6619 16.3182C87.8134 16.3182 88.8854 16.5038 89.8778 16.875C90.8778 17.2386 91.7491 17.7879 92.4915 18.5227C93.2415 19.2576 93.8248 20.1818 94.2415 21.2955C94.6581 22.4015 94.8665 23.697 94.8665 25.1818V26.5114H80.1278V23.5114H90.3097C90.3097 22.8144 90.1581 22.197 89.8551 21.6591C89.5521 21.1212 89.1316 20.7008 88.5938 20.3977C88.0634 20.0871 87.446 19.9318 86.7415 19.9318C86.0066 19.9318 85.3551 20.1023 84.7869 20.4432C84.2263 20.7765 83.7869 21.2273 83.4688 21.7955C83.1506 22.3561 82.9877 22.9811 82.9801 23.6705V26.5227C82.9801 27.3864 83.1392 28.1326 83.4574 28.7614C83.7831 29.3902 84.2415 29.875 84.8324 30.2159C85.4233 30.5568 86.1241 30.7273 86.9347 30.7273C87.4725 30.7273 87.965 30.6515 88.4119 30.5C88.8589 30.3485 89.2415 30.1212 89.5597 29.8182C89.8778 29.5152 90.1203 29.1439 90.2869 28.7045L94.7642 29C94.5369 30.0758 94.071 31.0152 93.3665 31.8182C92.6695 32.6136 91.768 33.2348 90.6619 33.6818C89.5634 34.1212 88.2945 34.3409 86.8551 34.3409ZM102.866 23.9091V34H98.0256V16.5455H102.639V19.625H102.844C103.23 18.6098 103.878 17.8068 104.787 17.2159C105.696 16.6174 106.798 16.3182 108.094 16.3182C109.306 16.3182 110.363 16.5833 111.264 17.1136C112.166 17.6439 112.866 18.4015 113.366 19.3864C113.866 20.3636 114.116 21.5303 114.116 22.8864V34H109.276V23.75C109.283 22.6818 109.01 21.8485 108.457 21.25C107.904 20.6439 107.143 20.3409 106.173 20.3409C105.522 20.3409 104.946 20.4811 104.446 20.7614C103.954 21.0417 103.567 21.4508 103.287 21.9886C103.014 22.5189 102.874 23.1591 102.866 23.9091ZM130.648 17.4205C130.557 16.5038 130.167 15.7917 129.477 15.2841C128.788 14.7765 127.852 14.5227 126.67 14.5227C125.867 14.5227 125.189 14.6364 124.636 14.8636C124.083 15.0833 123.659 15.3902 123.364 15.7841C123.076 16.178 122.932 16.625 122.932 17.125C122.917 17.5417 123.004 17.9053 123.193 18.2159C123.39 18.5265 123.659 18.7955 124 19.0227C124.341 19.2424 124.735 19.4356 125.182 19.6023C125.629 19.7614 126.106 19.8977 126.614 20.0114L128.705 20.5114C129.72 20.7386 130.652 21.0417 131.5 21.4205C132.348 21.7992 133.083 22.2652 133.705 22.8182C134.326 23.3712 134.807 24.0227 135.148 24.7727C135.496 25.5227 135.674 26.3826 135.682 27.3523C135.674 28.7765 135.311 30.0114 134.591 31.0568C133.879 32.0947 132.848 32.9015 131.5 33.4773C130.159 34.0455 128.542 34.3295 126.648 34.3295C124.769 34.3295 123.133 34.0417 121.739 33.4659C120.352 32.8902 119.269 32.0379 118.489 30.9091C117.716 29.7727 117.311 28.3674 117.273 26.6932H122.034C122.087 27.4735 122.311 28.125 122.705 28.6477C123.106 29.1629 123.64 29.553 124.307 29.8182C124.981 30.0758 125.742 30.2045 126.591 30.2045C127.424 30.2045 128.148 30.0833 128.761 29.8409C129.383 29.5985 129.864 29.2614 130.205 28.8295C130.545 28.3977 130.716 27.9015 130.716 27.3409C130.716 26.8182 130.561 26.3788 130.25 26.0227C129.947 25.6667 129.5 25.3636 128.909 25.1136C128.326 24.8636 127.61 24.6364 126.761 24.4318L124.227 23.7955C122.265 23.3182 120.716 22.572 119.58 21.5568C118.443 20.5417 117.879 19.1742 117.886 17.4545C117.879 16.0455 118.254 14.8144 119.011 13.7614C119.777 12.7083 120.826 11.8864 122.159 11.2955C123.492 10.7045 125.008 10.4091 126.705 10.4091C128.432 10.4091 129.939 10.7045 131.227 11.2955C132.523 11.8864 133.53 12.7083 134.25 13.7614C134.97 14.8144 135.341 16.0341 135.364 17.4205H130.648ZM138.901 34V16.5455H143.514V19.625H143.719C144.082 18.6023 144.688 17.7955 145.537 17.2045C146.385 16.6136 147.401 16.3182 148.582 16.3182C149.779 16.3182 150.798 16.6174 151.639 17.2159C152.48 17.8068 153.041 18.6098 153.321 19.625H153.503C153.859 18.625 154.503 17.8258 155.435 17.2273C156.374 16.6212 157.484 16.3182 158.764 16.3182C160.393 16.3182 161.715 16.8371 162.73 17.875C163.753 18.9053 164.264 20.3674 164.264 22.2614V34H159.435V23.2159C159.435 22.2462 159.177 21.5189 158.662 21.0341C158.147 20.5492 157.503 20.3068 156.73 20.3068C155.851 20.3068 155.166 20.5871 154.673 21.1477C154.181 21.7008 153.935 22.4318 153.935 23.3409V34H149.241V23.1136C149.241 22.2576 148.995 21.5758 148.503 21.0682C148.018 20.5606 147.378 20.3068 146.582 20.3068C146.045 20.3068 145.56 20.4432 145.128 20.7159C144.704 20.9811 144.366 21.3561 144.116 21.8409C143.866 22.3182 143.741 22.8788 143.741 23.5227V34H138.901ZM168.088 34V16.5455H172.929V34H168.088ZM170.52 14.2955C169.8 14.2955 169.183 14.0568 168.668 13.5795C168.16 13.0947 167.906 12.5152 167.906 11.8409C167.906 11.1742 168.16 10.6023 168.668 10.125C169.183 9.64015 169.8 9.39773 170.52 9.39773C171.24 9.39773 171.853 9.64015 172.361 10.125C172.876 10.6023 173.134 11.1742 173.134 11.8409C173.134 12.5152 172.876 13.0947 172.361 13.5795C171.853 14.0568 171.24 14.2955 170.52 14.2955ZM181.648 10.7273V34H176.807V10.7273H181.648ZM193.48 34.3409C191.685 34.3409 190.139 33.9773 188.844 33.25C187.556 32.5152 186.563 31.4773 185.866 30.1364C185.17 28.7879 184.821 27.1932 184.821 25.3523C184.821 23.5568 185.17 21.9811 185.866 20.625C186.563 19.2689 187.545 18.2121 188.81 17.4545C190.082 16.697 191.575 16.3182 193.287 16.3182C194.438 16.3182 195.51 16.5038 196.503 16.875C197.503 17.2386 198.374 17.7879 199.116 18.5227C199.866 19.2576 200.45 20.1818 200.866 21.2955C201.283 22.4015 201.491 23.697 201.491 25.1818V26.5114H186.753V23.5114H196.935C196.935 22.8144 196.783 22.197 196.48 21.6591C196.177 21.1212 195.757 20.7008 195.219 20.3977C194.688 20.0871 194.071 19.9318 193.366 19.9318C192.632 19.9318 191.98 20.1023 191.412 20.4432C190.851 20.7765 190.412 21.2273 190.094 21.7955C189.776 22.3561 189.613 22.9811 189.605 23.6705V26.5227C189.605 27.3864 189.764 28.1326 190.082 28.7614C190.408 29.3902 190.866 29.875 191.457 30.2159C192.048 30.5568 192.749 30.7273 193.56 30.7273C194.098 30.7273 194.59 30.6515 195.037 30.5C195.484 30.3485 195.866 30.1212 196.185 29.8182C196.503 29.5152 196.745 29.1439 196.912 28.7045L201.389 29C201.162 30.0758 200.696 31.0152 199.991 31.8182C199.295 32.6136 198.393 33.2348 197.287 33.6818C196.188 34.1212 194.92 34.3409 193.48 34.3409Z" fill="#1E242C"/>
<defs>
<filter id="filter0_d_7232_5776" x="18.9911" y="2.06401" width="24.4905" height="24.8835" filterUnits="userSpaceOnUse" color-interpolation-filters="sRGB">
<feFlood flood-opacity="0" result="BackgroundImageFix"/>
<feColorMatrix in="SourceAlpha" type="matrix" values="0 0 0 0 0 0 0 0 0 0 0 0 0 0 0 0 0 0 127 0" result="hardAlpha"/>
<feOffset/>
<feGaussianBlur stdDeviation="0.785714"/>
<feComposite in2="hardAlpha" operator="out"/>
<feColorMatrix type="matrix" values="0 0 0 0 0 0 0 0 0 0.321569 0 0 0 0 0.8 0 0 0 0.16 0"/>
<feBlend mode="normal" in2="BackgroundImageFix" result="effect1_dropShadow_7232_5776"/>
<feBlend mode="normal" in="SourceGraphic" in2="effect1_dropShadow_7232_5776" result="shape"/>
</filter>
<clipPath id="clip0_7232_5776">
<rect width="22" height="22" fill="white" transform="translate(23.1602 0.298401) rotate(12.6743)"/>
</clipPath>
</defs>
</svg>
