<svg width="367" height="368" viewBox="0 0 367 368" fill="none" xmlns="http://www.w3.org/2000/svg">
<rect x="0.5" y="0.5" width="365.667" height="367" rx="15.5" fill="white"/>
<rect x="0.5" y="0.5" width="365.667" height="367" rx="15.5" stroke="#E6ECF4"/>
<path d="M24.7955 32.6634V30.4545H36.4006V32.6634H31.9048V45H29.2912V32.6634H24.7955ZM37.3913 45V34.0909H39.8842V35.9091H39.9979C40.1967 35.2794 40.5376 34.794 41.0206 34.4531C41.5083 34.1075 42.0646 33.9347 42.6896 33.9347C42.8317 33.9347 42.9903 33.9418 43.1655 33.956C43.3454 33.9654 43.4946 33.982 43.6129 34.0057V36.3707C43.504 36.3329 43.3312 36.2997 43.0945 36.2713C42.8625 36.2382 42.6375 36.2216 42.4197 36.2216C41.951 36.2216 41.5296 36.3234 41.1555 36.527C40.7862 36.7259 40.495 37.0028 40.282 37.358C40.0689 37.7131 39.9624 38.1226 39.9624 38.5866V45H37.3913ZM49.7013 45.2131C48.6076 45.2131 47.663 44.9858 46.8675 44.5312C46.0768 44.072 45.4684 43.4233 45.0423 42.5852C44.6161 41.7424 44.4031 40.7505 44.4031 39.6094C44.4031 38.4872 44.6161 37.5024 45.0423 36.6548C45.4731 35.8026 46.0745 35.1397 46.8462 34.6662C47.618 34.188 48.5247 33.9489 49.5664 33.9489C50.2388 33.9489 50.8732 34.0578 51.4698 34.2756C52.0711 34.4886 52.6014 34.8201 53.0607 35.2699C53.5247 35.7197 53.8893 36.2926 54.1545 36.9886C54.4196 37.6799 54.5522 38.5038 54.5522 39.4602V40.2486H45.6104V38.5156H52.0877C52.083 38.0232 51.9764 37.5852 51.7681 37.2017C51.5598 36.8134 51.2686 36.508 50.8945 36.2855C50.5252 36.063 50.0943 35.9517 49.6019 35.9517C49.0763 35.9517 48.6147 36.0795 48.217 36.3352C47.8192 36.5862 47.5091 36.9176 47.2866 37.3295C47.0688 37.7367 46.9575 38.1842 46.9528 38.6719V40.1847C46.9528 40.8191 47.0688 41.3636 47.3008 41.8182C47.5328 42.268 47.8571 42.6136 48.2738 42.8551C48.6905 43.0919 49.1781 43.2102 49.7369 43.2102C50.1109 43.2102 50.4495 43.1581 50.7525 43.054C51.0555 42.9451 51.3183 42.7865 51.5408 42.5781C51.7634 42.3698 51.9315 42.1117 52.0451 41.804L54.4457 42.0739C54.2942 42.7083 54.0053 43.2623 53.5792 43.7358C53.1578 44.2045 52.618 44.5691 51.9599 44.8295C51.3017 45.0852 50.5489 45.2131 49.7013 45.2131ZM59.8665 45.2202C59.1752 45.2202 58.5526 45.0971 57.9986 44.8509C57.4493 44.5999 57.0137 44.2306 56.6918 43.7429C56.3745 43.2552 56.2159 42.6539 56.2159 41.9389C56.2159 41.3234 56.3295 40.8144 56.5568 40.4119C56.7841 40.0095 57.0942 39.6875 57.4872 39.446C57.8802 39.2045 58.3229 39.0223 58.8153 38.8991C59.3125 38.7713 59.8262 38.679 60.3565 38.6222C60.9957 38.5559 61.5142 38.4967 61.9119 38.4446C62.3097 38.3878 62.5985 38.3026 62.7784 38.1889C62.9631 38.0705 63.0554 37.8883 63.0554 37.642V37.5994C63.0554 37.0644 62.8968 36.6501 62.5795 36.3565C62.2623 36.063 61.8054 35.9162 61.2088 35.9162C60.5791 35.9162 60.0795 36.0535 59.7102 36.3281C59.3456 36.6027 59.0994 36.9271 58.9716 37.3011L56.571 36.9602C56.7604 36.2973 57.0729 35.7434 57.5085 35.2983C57.9441 34.8485 58.4768 34.5123 59.1065 34.2898C59.7363 34.0625 60.4323 33.9489 61.1946 33.9489C61.7202 33.9489 62.2434 34.0104 62.7642 34.1335C63.285 34.2566 63.7609 34.4602 64.1918 34.7443C64.6226 35.0237 64.9683 35.4048 65.2287 35.8878C65.4938 36.3707 65.6264 36.9744 65.6264 37.6989V45H63.1548V43.5014H63.0696C62.9134 43.8045 62.6932 44.0885 62.4091 44.3537C62.1297 44.6141 61.777 44.8248 61.3509 44.9858C60.9295 45.142 60.4347 45.2202 59.8665 45.2202ZM60.5341 43.331C61.0502 43.331 61.4976 43.2292 61.8764 43.0256C62.2552 42.8172 62.5464 42.5426 62.75 42.2017C62.9583 41.8608 63.0625 41.4891 63.0625 41.0866V39.8011C62.982 39.8674 62.8447 39.929 62.6506 39.9858C62.4612 40.0426 62.2481 40.0923 62.0114 40.1349C61.7746 40.1776 61.5402 40.2154 61.3082 40.2486C61.0762 40.2817 60.875 40.3101 60.7045 40.3338C60.321 40.3859 59.9777 40.4711 59.6747 40.5895C59.3717 40.7079 59.1326 40.8736 58.9574 41.0866C58.7822 41.295 58.6946 41.5649 58.6946 41.8963C58.6946 42.3698 58.8674 42.7273 59.2131 42.9688C59.5587 43.2102 59.9991 43.331 60.5341 43.331ZM73.6591 34.0909V36.0795H67.3878V34.0909H73.6591ZM68.9361 31.4773H71.5071V41.7188C71.5071 42.0644 71.5592 42.3295 71.6634 42.5142C71.7723 42.6941 71.9143 42.8172 72.0895 42.8835C72.2647 42.9498 72.4588 42.983 72.6719 42.983C72.8329 42.983 72.9796 42.9711 73.1122 42.9474C73.2495 42.9238 73.3537 42.9025 73.4247 42.8835L73.858 44.8935C73.7206 44.9408 73.5241 44.9929 73.2685 45.0497C73.0175 45.1065 72.7098 45.1397 72.3452 45.1491C71.7012 45.1681 71.1212 45.071 70.6051 44.858C70.089 44.6402 69.6795 44.304 69.3764 43.8494C69.0781 43.3949 68.9313 42.8267 68.9361 42.1449V31.4773ZM75.8093 45V34.0909H78.2667V35.9446H78.3945C78.6218 35.3196 78.9982 34.8319 79.5238 34.4815C80.0494 34.1264 80.6767 33.9489 81.4059 33.9489C82.1445 33.9489 82.7672 34.1288 83.2738 34.4886C83.7852 34.8437 84.145 35.3291 84.3533 35.9446H84.467C84.7085 35.3385 85.1156 34.8556 85.6886 34.4957C86.2662 34.1312 86.9504 33.9489 87.7411 33.9489C88.7449 33.9489 89.564 34.2661 90.1985 34.9006C90.833 35.535 91.1502 36.4607 91.1502 37.6776V45H88.5721V38.0753C88.5721 37.3982 88.3922 36.9034 88.0323 36.5909C87.6725 36.2737 87.2321 36.1151 86.7113 36.1151C86.091 36.1151 85.6057 36.3092 85.2553 36.6974C84.9097 37.081 84.7369 37.5805 84.7369 38.196V45H82.2156V37.9688C82.2156 37.4053 82.0451 36.9555 81.7042 36.6193C81.368 36.2831 80.9277 36.1151 80.3832 36.1151C80.0138 36.1151 79.6777 36.2098 79.3746 36.3991C79.0716 36.5838 78.8301 36.8466 78.6502 37.1875C78.4703 37.5237 78.3803 37.9167 78.3803 38.3665V45H75.8093ZM98.5881 45.2131C97.4943 45.2131 96.5497 44.9858 95.7543 44.5312C94.9635 44.072 94.3551 43.4233 93.929 42.5852C93.5028 41.7424 93.2898 40.7505 93.2898 39.6094C93.2898 38.4872 93.5028 37.5024 93.929 36.6548C94.3598 35.8026 94.9612 35.1397 95.733 34.6662C96.5047 34.188 97.4115 33.9489 98.4531 33.9489C99.1255 33.9489 99.7599 34.0578 100.357 34.2756C100.958 34.4886 101.488 34.8201 101.947 35.2699C102.411 35.7197 102.776 36.2926 103.041 36.9886C103.306 37.6799 103.439 38.5038 103.439 39.4602V40.2486H94.4972V38.5156H100.974C100.97 38.0232 100.863 37.5852 100.655 37.2017C100.446 36.8134 100.155 36.508 99.7812 36.2855C99.4119 36.063 98.9811 35.9517 98.4886 35.9517C97.9631 35.9517 97.5014 36.0795 97.1037 36.3352C96.706 36.5862 96.3958 36.9176 96.1733 37.3295C95.9555 37.7367 95.8442 38.1842 95.8395 38.6719V40.1847C95.8395 40.8191 95.9555 41.3636 96.1875 41.8182C96.4195 42.268 96.7438 42.6136 97.1605 42.8551C97.5772 43.0919 98.0649 43.2102 98.6236 43.2102C98.9976 43.2102 99.3362 43.1581 99.6392 43.054C99.9422 42.9451 100.205 42.7865 100.428 42.5781C100.65 42.3698 100.818 42.1117 100.932 41.804L103.332 42.0739C103.181 42.7083 102.892 43.2623 102.466 43.7358C102.045 44.2045 101.505 44.5691 100.847 44.8295C100.188 45.0852 99.4356 45.2131 98.5881 45.2131ZM108.185 38.608V45H105.614V34.0909H108.071V35.9446H108.199C108.45 35.3338 108.85 34.8485 109.4 34.4886C109.953 34.1288 110.638 33.9489 111.452 33.9489C112.205 33.9489 112.861 34.1098 113.419 34.4318C113.983 34.7538 114.418 35.2202 114.726 35.831C115.039 36.4418 115.193 37.1828 115.188 38.054V45H112.617V38.4517C112.617 37.7225 112.427 37.152 112.049 36.7401C111.675 36.3281 111.156 36.1222 110.493 36.1222C110.043 36.1222 109.643 36.2216 109.293 36.4205C108.947 36.6146 108.675 36.8963 108.476 37.2656C108.282 37.6349 108.185 38.0824 108.185 38.608ZM123.249 34.0909V36.0795H116.978V34.0909H123.249ZM118.526 31.4773H121.097V41.7188C121.097 42.0644 121.149 42.3295 121.253 42.5142C121.362 42.6941 121.504 42.8172 121.679 42.8835C121.855 42.9498 122.049 42.983 122.262 42.983C122.423 42.983 122.569 42.9711 122.702 42.9474C122.839 42.9238 122.944 42.9025 123.015 42.8835L123.448 44.8935C123.31 44.9408 123.114 44.9929 122.858 45.0497C122.607 45.1065 122.3 45.1397 121.935 45.1491C121.291 45.1681 120.711 45.071 120.195 44.858C119.679 44.6402 119.269 44.304 118.966 43.8494C118.668 43.3949 118.521 42.8267 118.526 42.1449V31.4773ZM135.403 45H130.474V30.4545H135.502C136.946 30.4545 138.187 30.7457 139.224 31.3281C140.265 31.9058 141.066 32.7367 141.624 33.821C142.183 34.9053 142.462 36.2027 142.462 37.7131C142.462 39.2282 142.181 40.5303 141.617 41.6193C141.058 42.7083 140.251 43.544 139.195 44.1264C138.144 44.7088 136.88 45 135.403 45ZM133.109 42.7202H135.275C136.288 42.7202 137.133 42.5355 137.81 42.1662C138.487 41.7921 138.996 41.2358 139.337 40.4972C139.678 39.7538 139.849 38.8258 139.849 37.7131C139.849 36.6004 139.678 35.6771 139.337 34.9432C138.996 34.2045 138.492 33.6529 137.825 33.2884C137.162 32.919 136.338 32.7344 135.353 32.7344H133.109V42.7202ZM144.852 45V34.0909H147.423V45H144.852ZM146.145 32.5426C145.738 32.5426 145.387 32.4077 145.094 32.1378C144.8 31.8632 144.653 31.5341 144.653 31.1506C144.653 30.7623 144.8 30.4332 145.094 30.1634C145.387 29.8887 145.738 29.7514 146.145 29.7514C146.557 29.7514 146.907 29.8887 147.196 30.1634C147.49 30.4332 147.636 30.7623 147.636 31.1506C147.636 31.5341 147.49 31.8632 147.196 32.1378C146.907 32.4077 146.557 32.5426 146.145 32.5426ZM158.689 36.9744L156.346 37.2301C156.279 36.9934 156.163 36.7708 155.998 36.5625C155.837 36.3542 155.619 36.1861 155.344 36.0582C155.069 35.9304 154.733 35.8665 154.336 35.8665C153.801 35.8665 153.351 35.9825 152.986 36.2145C152.626 36.4465 152.449 36.7472 152.453 37.1165C152.449 37.4337 152.565 37.6918 152.801 37.8906C153.043 38.0895 153.441 38.2528 153.995 38.3807L155.855 38.7784C156.888 39.0009 157.655 39.3537 158.157 39.8366C158.663 40.3196 158.919 40.9517 158.924 41.733C158.919 42.4195 158.718 43.0256 158.32 43.5511C157.927 44.072 157.38 44.4792 156.679 44.7727C155.979 45.0663 155.174 45.2131 154.265 45.2131C152.929 45.2131 151.855 44.9337 151.04 44.375C150.226 43.8116 149.74 43.0279 149.584 42.0241L152.091 41.7827C152.205 42.2751 152.446 42.6468 152.816 42.8977C153.185 43.1487 153.666 43.2741 154.257 43.2741C154.868 43.2741 155.358 43.1487 155.728 42.8977C156.102 42.6468 156.289 42.3366 156.289 41.9673C156.289 41.6548 156.168 41.3968 155.926 41.1932C155.69 40.9896 155.32 40.8333 154.819 40.7244L152.958 40.3338C151.911 40.116 151.137 39.7491 150.635 39.233C150.133 38.7121 149.885 38.054 149.89 37.2585C149.885 36.5862 150.067 36.0038 150.436 35.5114C150.81 35.0142 151.329 34.6307 151.992 34.3608C152.659 34.0862 153.429 33.9489 154.3 33.9489C155.578 33.9489 156.585 34.2211 157.319 34.7656C158.057 35.3101 158.514 36.0464 158.689 36.9744ZM166.491 34.0909V36.0795H160.22V34.0909H166.491ZM161.768 31.4773H164.339V41.7188C164.339 42.0644 164.391 42.3295 164.495 42.5142C164.604 42.6941 164.746 42.8172 164.922 42.8835C165.097 42.9498 165.291 42.983 165.504 42.983C165.665 42.983 165.812 42.9711 165.944 42.9474C166.082 42.9238 166.186 42.9025 166.257 42.8835L166.69 44.8935C166.553 44.9408 166.356 44.9929 166.1 45.0497C165.85 45.1065 165.542 45.1397 165.177 45.1491C164.533 45.1681 163.953 45.071 163.437 44.858C162.921 44.6402 162.511 44.304 162.208 43.8494C161.91 43.3949 161.763 42.8267 161.768 42.1449V31.4773ZM168.641 45V34.0909H171.134V35.9091H171.248C171.447 35.2794 171.788 34.794 172.271 34.4531C172.758 34.1075 173.315 33.9347 173.94 33.9347C174.082 33.9347 174.24 33.9418 174.415 33.956C174.595 33.9654 174.745 33.982 174.863 34.0057V36.3707C174.754 36.3329 174.581 36.2997 174.344 36.2713C174.112 36.2382 173.888 36.2216 173.67 36.2216C173.201 36.2216 172.78 36.3234 172.406 36.527C172.036 36.7259 171.745 37.0028 171.532 37.358C171.319 37.7131 171.212 38.1226 171.212 38.5866V45H168.641ZM176.571 45V34.0909H179.142V45H176.571ZM177.864 32.5426C177.456 32.5426 177.106 32.4077 176.812 32.1378C176.519 31.8632 176.372 31.5341 176.372 31.1506C176.372 30.7623 176.519 30.4332 176.812 30.1634C177.106 29.8887 177.456 29.7514 177.864 29.7514C178.276 29.7514 178.626 29.8887 178.915 30.1634C179.208 30.4332 179.355 30.7623 179.355 31.1506C179.355 31.5341 179.208 31.8632 178.915 32.1378C178.626 32.4077 178.276 32.5426 177.864 32.5426ZM181.9 45V30.4545H184.471V35.8949H184.577C184.71 35.6297 184.897 35.348 185.138 35.0497C185.38 34.7467 185.706 34.4886 186.118 34.2756C186.53 34.0578 187.056 33.9489 187.695 33.9489C188.538 33.9489 189.298 34.1643 189.975 34.5952C190.657 35.0213 191.196 35.6534 191.594 36.4915C191.997 37.3248 192.198 38.3475 192.198 39.5597C192.198 40.7576 192.001 41.7756 191.608 42.6136C191.215 43.4517 190.68 44.0909 190.003 44.5312C189.326 44.9716 188.559 45.1918 187.702 45.1918C187.077 45.1918 186.559 45.0876 186.147 44.8793C185.735 44.6709 185.403 44.42 185.152 44.1264C184.906 43.8281 184.714 43.5464 184.577 43.2812H184.428V45H181.9ZM184.421 39.5455C184.421 40.2509 184.52 40.8688 184.719 41.3991C184.923 41.9295 185.214 42.3437 185.593 42.642C185.976 42.9356 186.44 43.0824 186.985 43.0824C187.553 43.0824 188.029 42.9309 188.412 42.6278C188.796 42.3201 189.085 41.901 189.279 41.3707C189.478 40.8357 189.577 40.2273 189.577 39.5455C189.577 38.8684 189.48 38.267 189.286 37.7415C189.092 37.2159 188.803 36.804 188.419 36.5057C188.036 36.2074 187.558 36.0582 186.985 36.0582C186.435 36.0582 185.969 36.2027 185.586 36.4915C185.202 36.7803 184.911 37.1851 184.712 37.706C184.518 38.2268 184.421 38.84 184.421 39.5455ZM201.337 40.4119V34.0909H203.908V45H201.415V43.0611H201.301C201.055 43.6719 200.65 44.1714 200.087 44.5597C199.528 44.9479 198.839 45.142 198.02 45.142C197.305 45.142 196.673 44.9834 196.124 44.6662C195.579 44.3442 195.153 43.8778 194.845 43.267C194.537 42.6515 194.384 41.9081 194.384 41.0369V34.0909H196.955V40.6392C196.955 41.3305 197.144 41.8797 197.523 42.2869C197.902 42.6941 198.399 42.8977 199.014 42.8977C199.393 42.8977 199.76 42.8054 200.115 42.6207C200.47 42.4361 200.761 42.1615 200.989 41.7969C201.221 41.4276 201.337 40.9659 201.337 40.4119ZM211.999 34.0909V36.0795H205.728V34.0909H211.999ZM207.276 31.4773H209.847V41.7188C209.847 42.0644 209.899 42.3295 210.003 42.5142C210.112 42.6941 210.254 42.8172 210.429 42.8835C210.605 42.9498 210.799 42.983 211.012 42.983C211.173 42.983 211.319 42.9711 211.452 42.9474C211.589 42.9238 211.694 42.9025 211.765 42.8835L212.198 44.8935C212.06 44.9408 211.864 44.9929 211.608 45.0497C211.357 45.1065 211.05 45.1397 210.685 45.1491C210.041 45.1681 209.461 45.071 208.945 44.858C208.429 44.6402 208.019 44.304 207.716 43.8494C207.418 43.3949 207.271 42.8267 207.276 42.1449V31.4773ZM214.149 45V34.0909H216.72V45H214.149ZM215.442 32.5426C215.035 32.5426 214.684 32.4077 214.391 32.1378C214.097 31.8632 213.95 31.5341 213.95 31.1506C213.95 30.7623 214.097 30.4332 214.391 30.1634C214.684 29.8887 215.035 29.7514 215.442 29.7514C215.854 29.7514 216.204 29.8887 216.493 30.1634C216.786 30.4332 216.933 30.7623 216.933 31.1506C216.933 31.5341 216.786 31.8632 216.493 32.1378C216.204 32.4077 215.854 32.5426 215.442 32.5426ZM224.123 45.2131C223.057 45.2131 222.134 44.9787 221.353 44.5099C220.571 44.0412 219.965 43.3854 219.534 42.5426C219.108 41.6998 218.895 40.715 218.895 39.5881C218.895 38.4612 219.108 37.474 219.534 36.6264C219.965 35.7789 220.571 35.1207 221.353 34.652C222.134 34.1832 223.057 33.9489 224.123 33.9489C225.188 33.9489 226.111 34.1832 226.892 34.652C227.674 35.1207 228.277 35.7789 228.703 36.6264C229.134 37.474 229.35 38.4612 229.35 39.5881C229.35 40.715 229.134 41.6998 228.703 42.5426C228.277 43.3854 227.674 44.0412 226.892 44.5099C226.111 44.9787 225.188 45.2131 224.123 45.2131ZM224.137 43.1534C224.714 43.1534 225.197 42.9948 225.586 42.6776C225.974 42.3556 226.263 41.9247 226.452 41.3849C226.646 40.8452 226.743 40.2438 226.743 39.581C226.743 38.9134 226.646 38.3097 226.452 37.7699C226.263 37.2254 225.974 36.7921 225.586 36.4702C225.197 36.1482 224.714 35.9872 224.137 35.9872C223.545 35.9872 223.052 36.1482 222.659 36.4702C222.271 36.7921 221.98 37.2254 221.786 37.7699C221.596 38.3097 221.502 38.9134 221.502 39.581C221.502 40.2438 221.596 40.8452 221.786 41.3849C221.98 41.9247 222.271 42.3556 222.659 42.6776C223.052 42.9948 223.545 43.1534 224.137 43.1534ZM234.103 38.608V45H231.532V34.0909H233.989V35.9446H234.117C234.368 35.3338 234.768 34.8485 235.317 34.4886C235.871 34.1288 236.556 33.9489 237.37 33.9489C238.123 33.9489 238.779 34.1098 239.337 34.4318C239.901 34.7538 240.336 35.2202 240.644 35.831C240.957 36.4418 241.111 37.1828 241.106 38.054V45H238.535V38.4517C238.535 37.7225 238.345 37.152 237.967 36.7401C237.593 36.3281 237.074 36.1222 236.411 36.1222C235.961 36.1222 235.561 36.2216 235.211 36.4205C234.865 36.6146 234.593 36.8963 234.394 37.2656C234.2 37.6349 234.103 38.0824 234.103 38.608Z" fill="#0F172A"/>
<path d="M149.499 246.695C145.398 255.751 134.606 259.89 126.431 254.233C120.609 250.205 115.218 245.56 110.354 240.368C101.376 230.785 94.3732 219.527 89.7458 207.237C85.1185 194.947 82.9571 181.866 83.3852 168.741C83.8132 155.615 86.8222 142.703 92.2405 130.741C97.6587 118.778 105.38 108 114.964 99.0222C124.547 90.0439 135.805 83.0412 148.095 78.4138C160.385 73.7865 173.466 71.6251 186.591 72.0531C193.701 72.285 200.749 73.2742 207.617 74.9935C217.26 77.4076 221.266 88.2494 217.165 97.3049C213.063 106.36 202.357 110.09 192.519 108.663C190.17 108.322 187.8 108.112 185.418 108.034C177.018 107.76 168.646 109.143 160.781 112.105C152.915 115.066 145.71 119.548 139.576 125.294C133.443 131.04 128.501 137.938 125.033 145.594C121.566 153.25 119.64 161.514 119.366 169.914C119.092 178.314 120.475 186.686 123.437 194.552C126.398 202.417 130.88 209.622 136.626 215.756C138.255 217.495 139.977 219.138 141.782 220.679C149.344 227.133 153.601 237.64 149.499 246.695Z" fill="#8AAFE8"/>
<path d="M149.499 246.695C145.398 255.751 134.606 259.89 126.431 254.233C117.566 248.099 109.718 240.549 103.219 231.849C93.1131 218.321 86.5973 202.455 84.279 185.729C81.9607 169.004 83.9155 151.963 89.961 136.197C93.8489 126.058 99.3474 116.657 106.21 108.343C112.538 100.677 124.049 101.724 130.459 109.323C136.869 116.921 135.63 128.19 130.109 136.457C127.479 140.396 125.283 144.629 123.575 149.086C119.705 159.177 118.454 170.082 119.938 180.787C121.422 191.491 125.592 201.646 132.06 210.303C134.916 214.127 138.18 217.604 141.782 220.679C149.344 227.133 153.601 237.64 149.499 246.695Z" fill="#548BDD"/>
<path d="M183.332 254C183.332 263.941 175.209 272.164 165.429 270.385C147.459 267.114 130.606 258.96 116.799 246.655C102.993 234.351 92.9593 218.545 87.6499 201.068C84.7601 191.557 91.9975 182.544 101.873 181.404C111.749 180.264 120.453 187.527 124.29 196.698C127.954 205.457 133.551 213.362 140.751 219.779C147.952 226.196 156.447 230.85 165.568 233.485C175.118 236.245 183.332 244.059 183.332 254Z" fill="#3375D6"/>
<path d="M183.332 90C183.332 80.0589 191.455 71.8359 201.235 73.6157C210.817 75.3593 220.125 78.4993 228.854 82.9621C242.947 90.1673 255.128 100.615 264.396 113.445C273.664 126.276 279.754 141.123 282.165 156.766C284.576 172.409 283.24 188.401 278.265 203.427C273.291 218.453 264.822 232.083 253.553 243.197C242.284 254.312 228.537 262.592 213.444 267.359C198.351 272.125 182.342 273.24 166.734 270.613C157.066 268.986 147.724 265.952 138.994 261.633C130.083 257.226 128.472 245.78 134.403 237.803C140.335 229.825 151.589 228.455 160.899 231.94C164.713 233.367 168.667 234.432 172.709 235.112C182.699 236.794 192.944 236.08 202.604 233.029C212.264 229.979 221.061 224.68 228.273 217.566C235.485 210.453 240.906 201.73 244.089 192.113C247.273 182.497 248.128 172.262 246.585 162.25C245.042 152.239 241.144 142.737 235.213 134.525C229.281 126.313 221.485 119.627 212.466 115.016C208.816 113.15 205.008 111.645 201.096 110.515C191.545 107.755 183.332 99.9411 183.332 90Z" fill="#0052CC"/>
<g filter="url(#filter0_d_7041_19248)">
<rect x="231.332" y="78" width="59.3968" height="36.6984" rx="6.34921" fill="#E6EEFA" shape-rendering="crispEdges"/>
<path d="M244.906 100.075V98.6545L249.935 90.7113H251.054V92.8022H250.344L246.747 98.4954V98.5863H253.639V100.075H244.906ZM250.423 102.348V99.6431L250.435 98.9954V90.7113H252.099V102.348H250.423ZM259.46 102.507C258.748 102.507 258.108 102.37 257.54 102.098C256.975 101.821 256.525 101.442 256.188 100.961C255.85 100.48 255.67 99.931 255.648 99.3136H257.352C257.394 99.8136 257.616 100.225 258.017 100.547C258.419 100.868 258.9 101.029 259.46 101.029C259.907 101.029 260.303 100.927 260.648 100.723C260.996 100.514 261.269 100.228 261.466 99.8647C261.667 99.5011 261.767 99.0863 261.767 98.6204C261.767 98.1469 261.665 97.7246 261.46 97.3533C261.256 96.9821 260.973 96.6905 260.614 96.4783C260.258 96.2662 259.848 96.1583 259.386 96.1545C259.034 96.1545 258.68 96.2151 258.324 96.3363C257.968 96.4575 257.68 96.6166 257.46 96.8136L255.852 96.5749L256.506 90.7113H262.903V92.217H257.966L257.597 95.4727H257.665C257.892 95.253 258.193 95.0692 258.568 94.9215C258.947 94.7738 259.352 94.6999 259.784 94.6999C260.492 94.6999 261.123 94.8685 261.676 95.2056C262.233 95.5427 262.67 96.003 262.989 96.5863C263.311 97.1658 263.47 97.8325 263.466 98.5863C263.47 99.3401 263.299 100.012 262.955 100.603C262.614 101.194 262.14 101.66 261.534 102.001C260.932 102.338 260.241 102.507 259.46 102.507ZM271.615 100.166V99.5522C271.615 99.1128 271.706 98.7113 271.888 98.3477C272.073 97.9802 272.342 97.6867 272.695 97.467C273.051 97.2435 273.481 97.1317 273.984 97.1317C274.5 97.1317 274.931 97.2416 275.28 97.4613C275.628 97.681 275.892 97.9745 276.07 98.342C276.251 98.7094 276.342 99.1128 276.342 99.5522V100.166C276.342 100.605 276.251 101.009 276.07 101.376C275.888 101.74 275.621 102.033 275.268 102.257C274.92 102.476 274.492 102.586 273.984 102.586C273.473 102.586 273.041 102.476 272.689 102.257C272.337 102.033 272.07 101.74 271.888 101.376C271.706 101.009 271.615 100.605 271.615 100.166ZM272.939 99.5522V100.166C272.939 100.492 273.017 100.787 273.172 101.052C273.327 101.317 273.598 101.45 273.984 101.45C274.367 101.45 274.634 101.317 274.786 101.052C274.937 100.787 275.013 100.492 275.013 100.166V99.5522C275.013 99.2264 274.939 98.931 274.791 98.6658C274.647 98.4007 274.378 98.2681 273.984 98.2681C273.606 98.2681 273.337 98.4007 273.178 98.6658C273.018 98.931 272.939 99.2264 272.939 99.5522ZM265.763 93.5067V92.8931C265.763 92.4537 265.854 92.0503 266.036 91.6829C266.221 91.3155 266.49 91.0219 266.842 90.8022C267.198 90.5825 267.628 90.4727 268.132 90.4727C268.647 90.4727 269.079 90.5825 269.428 90.8022C269.776 91.0219 270.039 91.3155 270.217 91.6829C270.395 92.0503 270.484 92.4537 270.484 92.8931V93.5067C270.484 93.9461 270.393 94.3496 270.212 94.717C270.034 95.0806 269.768 95.3742 269.416 95.5977C269.068 95.8174 268.64 95.9272 268.132 95.9272C267.617 95.9272 267.183 95.8174 266.831 95.5977C266.482 95.3742 266.217 95.0806 266.036 94.717C265.854 94.3496 265.763 93.9461 265.763 93.5067ZM267.092 92.8931V93.5067C267.092 93.8325 267.168 94.128 267.32 94.3931C267.475 94.6583 267.746 94.7908 268.132 94.7908C268.511 94.7908 268.776 94.6583 268.928 94.3931C269.083 94.128 269.161 93.8325 269.161 93.5067V92.8931C269.161 92.5674 269.087 92.2719 268.939 92.0067C268.791 91.7416 268.522 91.609 268.132 91.609C267.753 91.609 267.484 91.7416 267.325 92.0067C267.17 92.2719 267.092 92.5674 267.092 92.8931ZM266.303 102.348L274.303 90.7113H275.661L267.661 102.348H266.303Z" fill="#0052CC"/>
<path d="M264.337 119.225C263.701 120.051 262.457 120.051 261.821 119.225L254.049 109.129C253.246 108.085 253.99 106.574 255.307 106.574H270.851C272.168 106.574 272.912 108.085 272.109 109.129L264.337 119.225Z" fill="#E6EEFA"/>
</g>
<rect x="58.334" y="299" width="10" height="10" rx="5" fill="#0052CC"/>
<path d="M85.7621 302H84.5291C84.4562 301.645 84.3286 301.334 84.1463 301.065C83.9673 300.797 83.7486 300.571 83.4901 300.389C83.2348 300.204 82.9515 300.064 82.6399 299.972C82.3284 299.879 82.0036 299.832 81.6655 299.832C81.049 299.832 80.4905 299.988 79.9901 300.3C79.4929 300.611 79.0968 301.07 78.8018 301.677C78.5102 302.283 78.3643 303.027 78.3643 303.909C78.3643 304.791 78.5102 305.535 78.8018 306.141C79.0968 306.748 79.4929 307.207 79.9901 307.518C80.4905 307.83 81.049 307.986 81.6655 307.986C82.0036 307.986 82.3284 307.939 82.6399 307.847C82.9515 307.754 83.2348 307.616 83.4901 307.434C83.7486 307.248 83.9673 307.021 84.1463 306.753C84.3286 306.481 84.4562 306.17 84.5291 305.818H85.7621C85.6693 306.339 85.5002 306.804 85.255 307.215C85.0097 307.626 84.7048 307.976 84.3402 308.264C83.9756 308.549 83.5663 308.766 83.1122 308.915C82.6615 309.065 82.1792 309.139 81.6655 309.139C80.7971 309.139 80.0249 308.927 79.3487 308.503C78.6726 308.079 78.1406 307.475 77.7528 306.693C77.3651 305.911 77.1712 304.983 77.1712 303.909C77.1712 302.835 77.3651 301.907 77.7528 301.125C78.1406 300.343 78.6726 299.74 79.3487 299.315C80.0249 298.891 80.7971 298.679 81.6655 298.679C82.1792 298.679 82.6615 298.754 83.1122 298.903C83.5663 299.052 83.9756 299.271 84.3402 299.559C84.7048 299.844 85.0097 300.192 85.255 300.603C85.5002 301.011 85.6693 301.476 85.7621 302ZM88.7686 298.818V309H87.5953V298.818H88.7686ZM94.1193 309.159C93.3835 309.159 92.7488 308.997 92.2152 308.672C91.6849 308.344 91.2756 307.886 90.9872 307.3C90.7022 306.71 90.5597 306.024 90.5597 305.241C90.5597 304.459 90.7022 303.77 90.9872 303.173C91.2756 302.573 91.6766 302.106 92.1903 301.771C92.7074 301.433 93.3106 301.264 94 301.264C94.3977 301.264 94.7905 301.33 95.1783 301.463C95.5661 301.596 95.919 301.811 96.2372 302.109C96.5554 302.404 96.8089 302.795 96.9979 303.283C97.1868 303.77 97.2812 304.37 97.2812 305.082V305.58H91.3949V304.565H96.0881C96.0881 304.134 96.0019 303.75 95.8295 303.412C95.6605 303.074 95.4186 302.807 95.1037 302.612C94.7921 302.416 94.4242 302.318 94 302.318C93.5327 302.318 93.1283 302.434 92.7869 302.666C92.4489 302.895 92.1887 303.193 92.0064 303.561C91.8241 303.929 91.733 304.323 91.733 304.744V305.42C91.733 305.997 91.8324 306.486 92.0312 306.887C92.2334 307.285 92.5135 307.588 92.8714 307.797C93.2294 308.002 93.6454 308.105 94.1193 308.105C94.4276 308.105 94.706 308.062 94.9545 307.976C95.2064 307.886 95.4235 307.754 95.6058 307.578C95.7881 307.399 95.929 307.177 96.0284 306.912L97.1619 307.23C97.0426 307.615 96.8421 307.953 96.5604 308.244C96.2786 308.533 95.9306 308.758 95.5163 308.92C95.102 309.08 94.6364 309.159 94.1193 309.159ZM101.313 309.179C100.829 309.179 100.39 309.088 99.9957 308.906C99.6013 308.72 99.2881 308.453 99.0561 308.105C98.8241 307.754 98.7081 307.33 98.7081 306.832C98.7081 306.395 98.7943 306.04 98.9666 305.768C99.139 305.493 99.3693 305.278 99.6577 305.122C99.946 304.966 100.264 304.85 100.612 304.774C100.964 304.695 101.317 304.632 101.671 304.585C102.135 304.526 102.511 304.481 102.8 304.451C103.091 304.418 103.304 304.363 103.436 304.287C103.572 304.211 103.64 304.078 103.64 303.889V303.849C103.64 303.359 103.506 302.978 103.237 302.706C102.972 302.434 102.569 302.298 102.029 302.298C101.469 302.298 101.03 302.421 100.712 302.666C100.393 302.911 100.17 303.173 100.04 303.452L98.9268 303.054C99.1257 302.59 99.3909 302.229 99.7223 301.97C100.057 301.708 100.422 301.526 100.816 301.423C101.214 301.317 101.605 301.264 101.989 301.264C102.235 301.264 102.516 301.294 102.835 301.354C103.156 301.41 103.466 301.528 103.764 301.707C104.066 301.886 104.316 302.156 104.515 302.517C104.714 302.878 104.813 303.362 104.813 303.969V309H103.64V307.966H103.58C103.501 308.132 103.368 308.309 103.183 308.498C102.997 308.687 102.75 308.848 102.442 308.98C102.134 309.113 101.757 309.179 101.313 309.179ZM101.492 308.125C101.956 308.125 102.347 308.034 102.665 307.852C102.987 307.669 103.229 307.434 103.391 307.146C103.557 306.857 103.64 306.554 103.64 306.236V305.162C103.59 305.222 103.481 305.276 103.312 305.326C103.146 305.372 102.954 305.414 102.735 305.45C102.52 305.483 102.309 305.513 102.104 305.54C101.902 305.563 101.737 305.583 101.612 305.599C101.307 305.639 101.022 305.704 100.756 305.793C100.495 305.879 100.282 306.01 100.12 306.186C99.9609 306.358 99.8814 306.594 99.8814 306.892C99.8814 307.3 100.032 307.608 100.334 307.817C100.639 308.022 101.025 308.125 101.492 308.125ZM106.955 309V301.364H108.088V302.517H108.168C108.307 302.139 108.559 301.833 108.923 301.597C109.288 301.362 109.699 301.244 110.156 301.244C110.243 301.244 110.35 301.246 110.48 301.249C110.609 301.253 110.707 301.258 110.773 301.264V302.457C110.733 302.447 110.642 302.433 110.499 302.413C110.36 302.389 110.213 302.378 110.057 302.378C109.686 302.378 109.354 302.456 109.063 302.612C108.774 302.764 108.546 302.976 108.377 303.248C108.211 303.516 108.128 303.823 108.128 304.168V309H106.955ZM116.678 309H115.385L119.124 298.818H120.397L124.135 309H122.843L119.8 300.429H119.721L116.678 309ZM117.155 305.023H122.365V306.116H117.155V305.023ZM126.735 298.818V309H125.562V298.818H126.735ZM128.884 309V301.364H130.058V309H128.884ZM129.481 300.091C129.252 300.091 129.055 300.013 128.889 299.857C128.727 299.701 128.646 299.514 128.646 299.295C128.646 299.077 128.727 298.889 128.889 298.734C129.055 298.578 129.252 298.5 129.481 298.5C129.71 298.5 129.905 298.578 130.068 298.734C130.233 298.889 130.316 299.077 130.316 299.295C130.316 299.514 130.233 299.701 130.068 299.857C129.905 300.013 129.71 300.091 129.481 300.091ZM135.289 312.023C134.722 312.023 134.235 311.95 133.827 311.804C133.42 311.661 133.08 311.473 132.808 311.237C132.54 311.005 132.326 310.757 132.167 310.491L133.102 309.835C133.208 309.974 133.342 310.134 133.504 310.312C133.667 310.495 133.889 310.652 134.17 310.785C134.455 310.921 134.828 310.989 135.289 310.989C135.906 310.989 136.414 310.839 136.815 310.541C137.216 310.243 137.417 309.776 137.417 309.139V307.588H137.317C137.231 307.727 137.109 307.9 136.95 308.105C136.794 308.307 136.568 308.488 136.273 308.647C135.982 308.803 135.587 308.881 135.09 308.881C134.474 308.881 133.92 308.735 133.43 308.443C132.942 308.152 132.556 307.727 132.271 307.17C131.99 306.614 131.849 305.937 131.849 305.142C131.849 304.36 131.986 303.679 132.261 303.099C132.536 302.515 132.919 302.065 133.41 301.746C133.9 301.425 134.467 301.264 135.11 301.264C135.607 301.264 136.002 301.347 136.293 301.513C136.588 301.675 136.814 301.861 136.969 302.07C137.129 302.275 137.251 302.444 137.337 302.577H137.457V301.364H138.59V309.219C138.59 309.875 138.441 310.409 138.143 310.82C137.848 311.234 137.45 311.537 136.95 311.729C136.452 311.925 135.899 312.023 135.289 312.023ZM135.249 307.827C135.72 307.827 136.118 307.719 136.442 307.504C136.767 307.288 137.014 306.978 137.183 306.574C137.352 306.17 137.437 305.686 137.437 305.122C137.437 304.572 137.354 304.086 137.188 303.665C137.022 303.245 136.777 302.915 136.452 302.676C136.128 302.437 135.727 302.318 135.249 302.318C134.752 302.318 134.338 302.444 134.006 302.696C133.678 302.948 133.431 303.286 133.266 303.71C133.103 304.134 133.022 304.605 133.022 305.122C133.022 305.652 133.105 306.121 133.271 306.529C133.44 306.933 133.688 307.252 134.016 307.484C134.348 307.712 134.759 307.827 135.249 307.827ZM141.911 304.406V309H140.738V301.364H141.871V302.557H141.971C142.15 302.169 142.422 301.857 142.786 301.622C143.151 301.384 143.621 301.264 144.198 301.264C144.715 301.264 145.168 301.37 145.555 301.582C145.943 301.791 146.245 302.109 146.46 302.537C146.676 302.961 146.783 303.498 146.783 304.148V309H145.61V304.227C145.61 303.627 145.454 303.16 145.143 302.825C144.831 302.487 144.404 302.318 143.86 302.318C143.486 302.318 143.151 302.399 142.856 302.562C142.564 302.724 142.334 302.961 142.165 303.273C141.996 303.584 141.911 303.962 141.911 304.406ZM152.129 309.159C151.393 309.159 150.759 308.997 150.225 308.672C149.695 308.344 149.285 307.886 148.997 307.3C148.712 306.71 148.569 306.024 148.569 305.241C148.569 304.459 148.712 303.77 148.997 303.173C149.285 302.573 149.686 302.106 150.2 301.771C150.717 301.433 151.32 301.264 152.01 301.264C152.407 301.264 152.8 301.33 153.188 301.463C153.576 301.596 153.929 301.811 154.247 302.109C154.565 302.404 154.819 302.795 155.008 303.283C155.197 303.77 155.291 304.37 155.291 305.082V305.58H149.405V304.565H154.098C154.098 304.134 154.012 303.75 153.839 303.412C153.67 303.074 153.428 302.807 153.113 302.612C152.802 302.416 152.434 302.318 152.01 302.318C151.542 302.318 151.138 302.434 150.797 302.666C150.459 302.895 150.198 303.193 150.016 303.561C149.834 303.929 149.743 304.323 149.743 304.744V305.42C149.743 305.997 149.842 306.486 150.041 306.887C150.243 307.285 150.523 307.588 150.881 307.797C151.239 308.002 151.655 308.105 152.129 308.105C152.437 308.105 152.716 308.062 152.964 307.976C153.216 307.886 153.433 307.754 153.616 307.578C153.798 307.399 153.939 307.177 154.038 306.912L155.172 307.23C155.052 307.615 154.852 307.953 154.57 308.244C154.288 308.533 153.94 308.758 153.526 308.92C153.112 309.08 152.646 309.159 152.129 309.159ZM157.076 309V301.364H158.209V302.517H158.289C158.428 302.139 158.68 301.833 159.045 301.597C159.409 301.362 159.82 301.244 160.278 301.244C160.364 301.244 160.471 301.246 160.601 301.249C160.73 301.253 160.828 301.258 160.894 301.264V302.457C160.854 302.447 160.763 302.433 160.621 302.413C160.481 302.389 160.334 302.378 160.178 302.378C159.807 302.378 159.475 302.456 159.184 302.612C158.895 302.764 158.667 302.976 158.498 303.248C158.332 303.516 158.249 303.823 158.249 304.168V309H157.076ZM167.694 303.074L166.64 303.372C166.574 303.196 166.476 303.026 166.347 302.86C166.221 302.691 166.048 302.552 165.83 302.442C165.611 302.333 165.331 302.278 164.989 302.278C164.522 302.278 164.133 302.386 163.821 302.602C163.513 302.814 163.359 303.084 163.359 303.412C163.359 303.704 163.465 303.934 163.677 304.103C163.889 304.272 164.22 304.413 164.671 304.526L165.805 304.804C166.487 304.97 166.996 305.223 167.331 305.565C167.666 305.903 167.833 306.339 167.833 306.872C167.833 307.31 167.707 307.701 167.455 308.045C167.207 308.39 166.859 308.662 166.411 308.861C165.964 309.06 165.443 309.159 164.85 309.159C164.071 309.159 163.427 308.99 162.916 308.652C162.406 308.314 162.083 307.82 161.947 307.17L163.06 306.892C163.166 307.303 163.367 307.611 163.662 307.817C163.96 308.022 164.35 308.125 164.83 308.125C165.377 308.125 165.811 308.009 166.133 307.777C166.458 307.542 166.62 307.26 166.62 306.932C166.62 306.667 166.527 306.445 166.342 306.266C166.156 306.083 165.871 305.947 165.487 305.858L164.214 305.56C163.514 305.394 163.001 305.137 162.673 304.789C162.348 304.438 162.185 303.999 162.185 303.472C162.185 303.041 162.306 302.66 162.548 302.328C162.794 301.997 163.127 301.737 163.548 301.548C163.972 301.359 164.452 301.264 164.989 301.264C165.745 301.264 166.338 301.43 166.769 301.761C167.203 302.093 167.512 302.53 167.694 303.074Z" fill="#475569"/>
<rect x="58.334" y="331" width="10" height="10" rx="5" fill="#3375D6"/>
<path d="M79.4183 341L76.6342 330.818H77.8871L80.0149 339.111H80.1143L82.282 330.818H83.674L85.8416 339.111H85.9411L88.0689 330.818H89.3217L86.5376 341H85.2649L83.0178 332.886H82.9382L80.6911 341H79.4183ZM91.8722 336.406V341H90.6989V330.818H91.8722V334.557H91.9716C92.1506 334.162 92.419 333.849 92.777 333.617C93.1383 333.382 93.6188 333.264 94.2188 333.264C94.7391 333.264 95.1948 333.369 95.5859 333.577C95.977 333.783 96.2803 334.099 96.4957 334.527C96.7145 334.951 96.8239 335.491 96.8239 336.148V341H95.6506V336.227C95.6506 335.621 95.4931 335.152 95.1783 334.82C94.8667 334.486 94.4342 334.318 93.8807 334.318C93.4962 334.318 93.1515 334.399 92.8466 334.562C92.545 334.724 92.3063 334.961 92.1307 335.273C91.9583 335.584 91.8722 335.962 91.8722 336.406ZM98.9703 341V333.364H100.144V341H98.9703ZM99.5669 332.091C99.3382 332.091 99.141 332.013 98.9753 331.857C98.8129 331.701 98.7317 331.514 98.7317 331.295C98.7317 331.077 98.8129 330.889 98.9753 330.734C99.141 330.578 99.3382 330.5 99.5669 330.5C99.7956 330.5 99.9912 330.578 100.154 330.734C100.319 330.889 100.402 331.077 100.402 331.295C100.402 331.514 100.319 331.701 100.154 331.857C99.9912 332.013 99.7956 332.091 99.5669 332.091ZM105.614 333.364V334.358H101.656V333.364H105.614ZM102.81 331.534H103.983V338.812C103.983 339.144 104.031 339.393 104.127 339.558C104.227 339.721 104.353 339.83 104.505 339.886C104.661 339.939 104.825 339.966 104.997 339.966C105.126 339.966 105.232 339.959 105.315 339.946C105.398 339.929 105.464 339.916 105.514 339.906L105.753 340.96C105.673 340.99 105.562 341.02 105.42 341.05C105.277 341.083 105.097 341.099 104.878 341.099C104.546 341.099 104.222 341.028 103.903 340.886C103.589 340.743 103.327 340.526 103.118 340.234C102.912 339.943 102.81 339.575 102.81 339.131V331.534ZM110.498 341.159C109.762 341.159 109.128 340.997 108.594 340.672C108.064 340.344 107.654 339.886 107.366 339.3C107.081 338.71 106.939 338.024 106.939 337.241C106.939 336.459 107.081 335.77 107.366 335.173C107.654 334.573 108.056 334.106 108.569 333.771C109.086 333.433 109.69 333.264 110.379 333.264C110.777 333.264 111.169 333.33 111.557 333.463C111.945 333.596 112.298 333.811 112.616 334.109C112.934 334.404 113.188 334.795 113.377 335.283C113.566 335.77 113.66 336.37 113.66 337.082V337.58H107.774V336.565H112.467C112.467 336.134 112.381 335.75 112.208 335.412C112.039 335.074 111.797 334.807 111.483 334.612C111.171 334.416 110.803 334.318 110.379 334.318C109.912 334.318 109.507 334.434 109.166 334.666C108.828 334.895 108.568 335.193 108.385 335.561C108.203 335.929 108.112 336.323 108.112 336.744V337.42C108.112 337.997 108.211 338.486 108.41 338.887C108.612 339.285 108.892 339.588 109.25 339.797C109.608 340.002 110.024 340.105 110.498 340.105C110.806 340.105 111.085 340.062 111.333 339.976C111.585 339.886 111.802 339.754 111.985 339.578C112.167 339.399 112.308 339.177 112.407 338.912L113.541 339.23C113.422 339.615 113.221 339.953 112.939 340.244C112.658 340.533 112.31 340.758 111.895 340.92C111.481 341.08 111.015 341.159 110.498 341.159ZM116.618 336.406V341H115.445V333.364H116.578V334.557H116.678C116.857 334.169 117.129 333.857 117.493 333.622C117.858 333.384 118.328 333.264 118.905 333.264C119.422 333.264 119.875 333.37 120.262 333.582C120.65 333.791 120.952 334.109 121.167 334.537C121.383 334.961 121.49 335.498 121.49 336.148V341H120.317V336.227C120.317 335.627 120.161 335.16 119.85 334.825C119.538 334.487 119.111 334.318 118.567 334.318C118.193 334.318 117.858 334.399 117.563 334.562C117.271 334.724 117.041 334.961 116.872 335.273C116.703 335.584 116.618 335.962 116.618 336.406ZM123.634 341V333.364H124.808V341H123.634ZM124.231 332.091C124.002 332.091 123.805 332.013 123.639 331.857C123.477 331.701 123.396 331.514 123.396 331.295C123.396 331.077 123.477 330.889 123.639 330.734C123.805 330.578 124.002 330.5 124.231 330.5C124.46 330.5 124.655 330.578 124.818 330.734C124.983 330.889 125.066 331.077 125.066 331.295C125.066 331.514 124.983 331.701 124.818 331.857C124.655 332.013 124.46 332.091 124.231 332.091ZM128.13 336.406V341H126.957V333.364H128.09V334.557H128.19C128.369 334.169 128.64 333.857 129.005 333.622C129.37 333.384 129.84 333.264 130.417 333.264C130.934 333.264 131.386 333.37 131.774 333.582C132.162 333.791 132.464 334.109 132.679 334.537C132.894 334.961 133.002 335.498 133.002 336.148V341H131.829V336.227C131.829 335.627 131.673 335.16 131.362 334.825C131.05 334.487 130.622 334.318 130.079 334.318C129.704 334.318 129.37 334.399 129.075 334.562C128.783 334.724 128.553 334.961 128.384 335.273C128.214 335.584 128.13 335.962 128.13 336.406ZM138.229 344.023C137.662 344.023 137.175 343.95 136.767 343.804C136.359 343.661 136.019 343.473 135.748 343.237C135.479 343.005 135.265 342.757 135.106 342.491L136.041 341.835C136.147 341.974 136.281 342.134 136.444 342.312C136.606 342.495 136.828 342.652 137.11 342.785C137.395 342.921 137.768 342.989 138.229 342.989C138.845 342.989 139.354 342.839 139.755 342.541C140.156 342.243 140.356 341.776 140.356 341.139V339.588H140.257C140.171 339.727 140.048 339.9 139.889 340.105C139.733 340.307 139.508 340.488 139.213 340.647C138.921 340.803 138.527 340.881 138.03 340.881C137.413 340.881 136.86 340.735 136.369 340.443C135.882 340.152 135.496 339.727 135.211 339.17C134.929 338.614 134.788 337.937 134.788 337.142C134.788 336.36 134.926 335.679 135.201 335.099C135.476 334.515 135.859 334.065 136.349 333.746C136.84 333.425 137.407 333.264 138.05 333.264C138.547 333.264 138.941 333.347 139.233 333.513C139.528 333.675 139.753 333.861 139.909 334.07C140.068 334.275 140.191 334.444 140.277 334.577H140.396V333.364H141.53V341.219C141.53 341.875 141.381 342.409 141.082 342.82C140.787 343.234 140.39 343.537 139.889 343.729C139.392 343.925 138.838 344.023 138.229 344.023ZM138.189 339.827C138.659 339.827 139.057 339.719 139.382 339.504C139.707 339.288 139.954 338.978 140.123 338.574C140.292 338.17 140.376 337.686 140.376 337.122C140.376 336.572 140.293 336.086 140.128 335.665C139.962 335.245 139.717 334.915 139.392 334.676C139.067 334.437 138.666 334.318 138.189 334.318C137.692 334.318 137.277 334.444 136.946 334.696C136.618 334.948 136.371 335.286 136.205 335.71C136.043 336.134 135.961 336.605 135.961 337.122C135.961 337.652 136.044 338.121 136.21 338.529C136.379 338.933 136.628 339.252 136.956 339.484C137.287 339.712 137.698 339.827 138.189 339.827Z" fill="#475569"/>
<rect x="185.336" y="299" width="10" height="10" rx="5" fill="#548BDD"/>
<path d="M210.137 301.364C210.077 300.86 209.835 300.469 209.411 300.19C208.987 299.912 208.467 299.773 207.85 299.773C207.399 299.773 207.005 299.846 206.667 299.991C206.332 300.137 206.07 300.338 205.881 300.593C205.696 300.848 205.603 301.138 205.603 301.463C205.603 301.735 205.668 301.969 205.797 302.164C205.929 302.356 206.098 302.517 206.304 302.646C206.509 302.772 206.725 302.877 206.95 302.96C207.176 303.039 207.383 303.104 207.572 303.153L208.606 303.432C208.871 303.501 209.166 303.598 209.491 303.72C209.819 303.843 210.132 304.01 210.43 304.222C210.732 304.431 210.981 304.7 211.176 305.028C211.372 305.356 211.469 305.759 211.469 306.236C211.469 306.786 211.325 307.283 211.037 307.727C210.752 308.171 210.334 308.524 209.784 308.786C209.237 309.048 208.573 309.179 207.79 309.179C207.061 309.179 206.43 309.061 205.896 308.826C205.366 308.591 204.948 308.263 204.643 307.842C204.342 307.421 204.171 306.932 204.131 306.375H205.404C205.437 306.759 205.567 307.078 205.792 307.33C206.021 307.578 206.309 307.764 206.657 307.886C207.008 308.006 207.386 308.065 207.79 308.065C208.261 308.065 208.684 307.989 209.058 307.837C209.433 307.681 209.729 307.465 209.948 307.19C210.167 306.912 210.276 306.587 210.276 306.216C210.276 305.878 210.182 305.603 209.993 305.391C209.804 305.179 209.555 305.006 209.247 304.874C208.939 304.741 208.606 304.625 208.248 304.526L206.995 304.168C206.2 303.939 205.57 303.612 205.106 303.188C204.642 302.764 204.41 302.209 204.41 301.523C204.41 300.953 204.564 300.455 204.872 300.031C205.184 299.604 205.601 299.272 206.125 299.037C206.652 298.798 207.24 298.679 207.89 298.679C208.546 298.679 209.129 298.797 209.64 299.032C210.15 299.264 210.555 299.582 210.853 299.987C211.155 300.391 211.314 300.85 211.33 301.364H210.137ZM213.338 309V301.364H214.471V302.557H214.57C214.73 302.149 214.986 301.833 215.341 301.607C215.696 301.379 216.122 301.264 216.619 301.264C217.123 301.264 217.542 301.379 217.877 301.607C218.215 301.833 218.478 302.149 218.667 302.557H218.747C218.942 302.162 219.235 301.849 219.627 301.617C220.018 301.382 220.487 301.264 221.034 301.264C221.716 301.264 222.275 301.478 222.709 301.906C223.143 302.33 223.36 302.991 223.36 303.889V309H222.187V303.889C222.187 303.326 222.033 302.923 221.725 302.681C221.416 302.439 221.053 302.318 220.636 302.318C220.099 302.318 219.683 302.481 219.388 302.805C219.093 303.127 218.945 303.535 218.945 304.028V309H217.752V303.77C217.752 303.336 217.611 302.986 217.33 302.721C217.048 302.452 216.685 302.318 216.241 302.318C215.936 302.318 215.651 302.399 215.386 302.562C215.124 302.724 214.912 302.95 214.749 303.238C214.59 303.523 214.511 303.853 214.511 304.227V309H213.338ZM225.506 309V301.364H226.679V309H225.506ZM226.102 300.091C225.873 300.091 225.676 300.013 225.51 299.857C225.348 299.701 225.267 299.514 225.267 299.295C225.267 299.077 225.348 298.889 225.51 298.734C225.676 298.578 225.873 298.5 226.102 298.5C226.331 298.5 226.526 298.578 226.689 298.734C226.854 298.889 226.937 299.077 226.937 299.295C226.937 299.514 226.854 299.701 226.689 299.857C226.526 300.013 226.331 300.091 226.102 300.091ZM230.001 298.818V309H228.828V298.818H230.001ZM235.352 309.159C234.616 309.159 233.981 308.997 233.448 308.672C232.917 308.344 232.508 307.886 232.22 307.3C231.935 306.71 231.792 306.024 231.792 305.241C231.792 304.459 231.935 303.77 232.22 303.173C232.508 302.573 232.909 302.106 233.423 301.771C233.94 301.433 234.543 301.264 235.232 301.264C235.63 301.264 236.023 301.33 236.411 301.463C236.798 301.596 237.151 301.811 237.47 302.109C237.788 302.404 238.041 302.795 238.23 303.283C238.419 303.77 238.514 304.37 238.514 305.082V305.58H232.627V304.565H237.32C237.32 304.134 237.234 303.75 237.062 303.412C236.893 303.074 236.651 302.807 236.336 302.612C236.025 302.416 235.657 302.318 235.232 302.318C234.765 302.318 234.361 302.434 234.019 302.666C233.681 302.895 233.421 303.193 233.239 303.561C233.057 303.929 232.965 304.323 232.965 304.744V305.42C232.965 305.997 233.065 306.486 233.264 306.887C233.466 307.285 233.746 307.588 234.104 307.797C234.462 308.002 234.878 308.105 235.352 308.105C235.66 308.105 235.938 308.062 236.187 307.976C236.439 307.886 236.656 307.754 236.838 307.578C237.021 307.399 237.161 307.177 237.261 306.912L238.394 307.23C238.275 307.615 238.075 307.953 237.793 308.244C237.511 308.533 237.163 308.758 236.749 308.92C236.334 309.08 235.869 309.159 235.352 309.159ZM244.395 298.818H245.867L249.327 307.27H249.446L252.906 298.818H254.378V309H253.225V301.264H253.125L249.943 309H248.83L245.648 301.264H245.548V309H244.395V298.818ZM258.938 309.179C258.454 309.179 258.015 309.088 257.621 308.906C257.226 308.72 256.913 308.453 256.681 308.105C256.449 307.754 256.333 307.33 256.333 306.832C256.333 306.395 256.419 306.04 256.592 305.768C256.764 305.493 256.994 305.278 257.283 305.122C257.571 304.966 257.889 304.85 258.237 304.774C258.589 304.695 258.942 304.632 259.296 304.585C259.76 304.526 260.136 304.481 260.425 304.451C260.716 304.418 260.929 304.363 261.061 304.287C261.197 304.211 261.265 304.078 261.265 303.889V303.849C261.265 303.359 261.131 302.978 260.862 302.706C260.597 302.434 260.194 302.298 259.654 302.298C259.094 302.298 258.655 302.421 258.337 302.666C258.018 302.911 257.795 303.173 257.665 303.452L256.552 303.054C256.751 302.59 257.016 302.229 257.347 301.97C257.682 301.708 258.047 301.526 258.441 301.423C258.839 301.317 259.23 301.264 259.614 301.264C259.86 301.264 260.141 301.294 260.46 301.354C260.781 301.41 261.091 301.528 261.389 301.707C261.691 301.886 261.941 302.156 262.14 302.517C262.339 302.878 262.438 303.362 262.438 303.969V309H261.265V307.966H261.205C261.126 308.132 260.993 308.309 260.808 308.498C260.622 308.687 260.375 308.848 260.067 308.98C259.759 309.113 259.382 309.179 258.938 309.179ZM259.117 308.125C259.581 308.125 259.972 308.034 260.29 307.852C260.612 307.669 260.854 307.434 261.016 307.146C261.182 306.857 261.265 306.554 261.265 306.236V305.162C261.215 305.222 261.106 305.276 260.937 305.326C260.771 305.372 260.579 305.414 260.36 305.45C260.145 305.483 259.934 305.513 259.729 305.54C259.527 305.563 259.362 305.583 259.237 305.599C258.932 305.639 258.647 305.704 258.381 305.793C258.12 305.879 257.907 306.01 257.745 306.186C257.586 306.358 257.506 306.594 257.506 306.892C257.506 307.3 257.657 307.608 257.959 307.817C258.264 308.022 258.65 308.125 259.117 308.125ZM265.673 306.216L265.654 304.764H265.892L269.233 301.364H270.685L267.125 304.963H267.026L265.673 306.216ZM264.58 309V298.818H265.753V309H264.58ZM269.432 309L266.449 305.222L267.284 304.406L270.923 309H269.432ZM275.082 309.159C274.346 309.159 273.712 308.997 273.178 308.672C272.648 308.344 272.238 307.886 271.95 307.3C271.665 306.71 271.523 306.024 271.523 305.241C271.523 304.459 271.665 303.77 271.95 303.173C272.238 302.573 272.64 302.106 273.153 301.771C273.67 301.433 274.273 301.264 274.963 301.264C275.361 301.264 275.753 301.33 276.141 301.463C276.529 301.596 276.882 301.811 277.2 302.109C277.518 302.404 277.772 302.795 277.961 303.283C278.15 303.77 278.244 304.37 278.244 305.082V305.58H272.358V304.565H277.051C277.051 304.134 276.965 303.75 276.792 303.412C276.623 303.074 276.381 302.807 276.067 302.612C275.755 302.416 275.387 302.318 274.963 302.318C274.496 302.318 274.091 302.434 273.75 302.666C273.412 302.895 273.152 303.193 272.969 303.561C272.787 303.929 272.696 304.323 272.696 304.744V305.42C272.696 305.997 272.795 306.486 272.994 306.887C273.196 307.285 273.476 307.588 273.834 307.797C274.192 308.002 274.608 308.105 275.082 308.105C275.39 308.105 275.669 308.062 275.917 307.976C276.169 307.886 276.386 307.754 276.569 307.578C276.751 307.399 276.892 307.177 276.991 306.912L278.125 307.23C278.006 307.615 277.805 307.953 277.523 308.244C277.242 308.533 276.894 308.758 276.479 308.92C276.065 309.08 275.599 309.159 275.082 309.159ZM283.131 309.159C282.442 309.159 281.837 308.995 281.317 308.667C280.8 308.339 280.395 307.88 280.104 307.29C279.815 306.7 279.671 306.01 279.671 305.222C279.671 304.426 279.815 303.732 280.104 303.138C280.395 302.545 280.8 302.085 281.317 301.756C281.837 301.428 282.442 301.264 283.131 301.264C283.821 301.264 284.424 301.428 284.941 301.756C285.461 302.085 285.866 302.545 286.154 303.138C286.446 303.732 286.591 304.426 286.591 305.222C286.591 306.01 286.446 306.7 286.154 307.29C285.866 307.88 285.461 308.339 284.941 308.667C284.424 308.995 283.821 309.159 283.131 309.159ZM283.131 308.105C283.655 308.105 284.086 307.971 284.424 307.702C284.762 307.434 285.012 307.081 285.175 306.643C285.337 306.206 285.418 305.732 285.418 305.222C285.418 304.711 285.337 304.236 285.175 303.795C285.012 303.354 284.762 302.998 284.424 302.726C284.086 302.454 283.655 302.318 283.131 302.318C282.608 302.318 282.177 302.454 281.839 302.726C281.501 302.998 281.25 303.354 281.088 303.795C280.925 304.236 280.844 304.711 280.844 305.222C280.844 305.732 280.925 306.206 281.088 306.643C281.25 307.081 281.501 307.434 281.839 307.702C282.177 307.971 282.608 308.105 283.131 308.105ZM294.353 301.364L291.529 309H290.336L287.512 301.364H288.785L290.893 307.449H290.973L293.081 301.364H294.353ZM298.83 309.159C298.094 309.159 297.46 308.997 296.926 308.672C296.396 308.344 295.987 307.886 295.698 307.3C295.413 306.71 295.271 306.024 295.271 305.241C295.271 304.459 295.413 303.77 295.698 303.173C295.987 302.573 296.388 302.106 296.901 301.771C297.418 301.433 298.022 301.264 298.711 301.264C299.109 301.264 299.501 301.33 299.889 301.463C300.277 301.596 300.63 301.811 300.948 302.109C301.266 302.404 301.52 302.795 301.709 303.283C301.898 303.77 301.992 304.37 301.992 305.082V305.58H296.106V304.565H300.799C300.799 304.134 300.713 303.75 300.54 303.412C300.371 303.074 300.129 302.807 299.815 302.612C299.503 302.416 299.135 302.318 298.711 302.318C298.244 302.318 297.839 302.434 297.498 302.666C297.16 302.895 296.9 303.193 296.717 303.561C296.535 303.929 296.444 304.323 296.444 304.744V305.42C296.444 305.997 296.543 306.486 296.742 306.887C296.944 307.285 297.224 307.588 297.582 307.797C297.94 308.002 298.356 308.105 298.83 308.105C299.138 308.105 299.417 308.062 299.665 307.976C299.917 307.886 300.134 307.754 300.317 307.578C300.499 307.399 300.64 307.177 300.739 306.912L301.873 307.23C301.754 307.615 301.553 307.953 301.271 308.244C300.99 308.533 300.642 308.758 300.227 308.92C299.813 309.08 299.347 309.159 298.83 309.159ZM303.777 309V301.364H304.911V302.517H304.99C305.129 302.139 305.381 301.833 305.746 301.597C306.11 301.362 306.521 301.244 306.979 301.244C307.065 301.244 307.173 301.246 307.302 301.249C307.431 301.253 307.529 301.258 307.595 301.264V302.457C307.555 302.447 307.464 302.433 307.322 302.413C307.183 302.389 307.035 302.378 306.879 302.378C306.508 302.378 306.177 302.456 305.885 302.612C305.597 302.764 305.368 302.976 305.199 303.248C305.033 303.516 304.95 303.823 304.95 304.168V309H303.777Z" fill="#475569"/>
<rect x="185.336" y="331" width="10" height="10" rx="5" fill="#8AAFE8"/>
<path d="M204.987 330.818L208.009 339.389H208.129L211.151 330.818H212.444L208.705 341H207.433L203.694 330.818H204.987ZM216.362 341.159C215.626 341.159 214.991 340.997 214.457 340.672C213.927 340.344 213.518 339.886 213.229 339.3C212.944 338.71 212.802 338.024 212.802 337.241C212.802 336.459 212.944 335.77 213.229 335.173C213.518 334.573 213.919 334.106 214.433 333.771C214.95 333.433 215.553 333.264 216.242 333.264C216.64 333.264 217.033 333.33 217.42 333.463C217.808 333.596 218.161 333.811 218.479 334.109C218.798 334.404 219.051 334.795 219.24 335.283C219.429 335.77 219.523 336.37 219.523 337.082V337.58H213.637V336.565H218.33C218.33 336.134 218.244 335.75 218.072 335.412C217.903 335.074 217.661 334.807 217.346 334.612C217.034 334.416 216.666 334.318 216.242 334.318C215.775 334.318 215.371 334.434 215.029 334.666C214.691 334.895 214.431 335.193 214.249 335.561C214.066 335.929 213.975 336.323 213.975 336.744V337.42C213.975 337.997 214.075 338.486 214.273 338.887C214.476 339.285 214.756 339.588 215.114 339.797C215.472 340.002 215.888 340.105 216.362 340.105C216.67 340.105 216.948 340.062 217.197 339.976C217.449 339.886 217.666 339.754 217.848 339.578C218.03 339.399 218.171 339.177 218.271 338.912L219.404 339.23C219.285 339.615 219.084 339.953 218.803 340.244C218.521 340.533 218.173 340.758 217.759 340.92C217.344 341.08 216.879 341.159 216.362 341.159ZM222.482 336.406V341H221.308V333.364H222.442V334.557H222.541C222.72 334.169 222.992 333.857 223.357 333.622C223.721 333.384 224.192 333.264 224.768 333.264C225.286 333.264 225.738 333.37 226.126 333.582C226.513 333.791 226.815 334.109 227.031 334.537C227.246 334.961 227.354 335.498 227.354 336.148V341H226.18V336.227C226.18 335.627 226.025 335.16 225.713 334.825C225.402 334.487 224.974 334.318 224.43 334.318C224.056 334.318 223.721 334.399 223.426 334.562C223.134 334.724 222.904 334.961 222.735 335.273C222.566 335.584 222.482 335.962 222.482 336.406ZM232.699 341.159C231.964 341.159 231.329 340.997 230.795 340.672C230.265 340.344 229.856 339.886 229.567 339.3C229.282 338.71 229.14 338.024 229.14 337.241C229.14 336.459 229.282 335.77 229.567 335.173C229.856 334.573 230.257 334.106 230.77 333.771C231.287 333.433 231.891 333.264 232.58 333.264C232.978 333.264 233.371 333.33 233.758 333.463C234.146 333.596 234.499 333.811 234.817 334.109C235.135 334.404 235.389 334.795 235.578 335.283C235.767 335.77 235.861 336.37 235.861 337.082V337.58H229.975V336.565H234.668C234.668 336.134 234.582 335.75 234.41 335.412C234.241 335.074 233.999 334.807 233.684 334.612C233.372 334.416 233.004 334.318 232.58 334.318C232.113 334.318 231.708 334.434 231.367 334.666C231.029 334.895 230.769 335.193 230.586 335.561C230.404 335.929 230.313 336.323 230.313 336.744V337.42C230.313 337.997 230.412 338.486 230.611 338.887C230.814 339.285 231.094 339.588 231.452 339.797C231.809 340.002 232.225 340.105 232.699 340.105C233.008 340.105 233.286 340.062 233.535 339.976C233.787 339.886 234.004 339.754 234.186 339.578C234.368 339.399 234.509 339.177 234.608 338.912L235.742 339.23C235.623 339.615 235.422 339.953 235.14 340.244C234.859 340.533 234.511 340.758 234.096 340.92C233.682 341.08 233.216 341.159 232.699 341.159ZM240.848 341.159C240.112 341.159 239.477 340.997 238.944 340.672C238.413 340.344 238.004 339.886 237.716 339.3C237.431 338.71 237.288 338.024 237.288 337.241C237.288 336.459 237.431 335.77 237.716 335.173C238.004 334.573 238.405 334.106 238.919 333.771C239.436 333.433 240.039 333.264 240.729 333.264C241.126 333.264 241.519 333.33 241.907 333.463C242.295 333.596 242.648 333.811 242.966 334.109C243.284 334.404 243.537 334.795 243.726 335.283C243.915 335.77 244.01 336.37 244.01 337.082V337.58H238.123V336.565H242.817C242.817 336.134 242.73 335.75 242.558 335.412C242.389 335.074 242.147 334.807 241.832 334.612C241.521 334.416 241.153 334.318 240.729 334.318C240.261 334.318 239.857 334.434 239.515 334.666C239.177 334.895 238.917 335.193 238.735 335.561C238.553 335.929 238.461 336.323 238.461 336.744V337.42C238.461 337.997 238.561 338.486 238.76 338.887C238.962 339.285 239.242 339.588 239.6 339.797C239.958 340.002 240.374 340.105 240.848 340.105C241.156 340.105 241.434 340.062 241.683 339.976C241.935 339.886 242.152 339.754 242.334 339.578C242.517 339.399 242.657 339.177 242.757 338.912L243.89 339.23C243.771 339.615 243.571 339.953 243.289 340.244C243.007 340.533 242.659 340.758 242.245 340.92C241.831 341.08 241.365 341.159 240.848 341.159ZM245.795 341V333.364H246.928V334.517H247.008C247.147 334.139 247.399 333.833 247.763 333.597C248.128 333.362 248.539 333.244 248.996 333.244C249.082 333.244 249.19 333.246 249.319 333.249C249.449 333.253 249.546 333.258 249.613 333.264V334.457C249.573 334.447 249.482 334.433 249.339 334.413C249.2 334.389 249.053 334.378 248.897 334.378C248.526 334.378 248.194 334.456 247.903 334.612C247.614 334.764 247.385 334.976 247.216 335.248C247.051 335.516 246.968 335.823 246.968 336.168V341H245.795ZM256.413 335.074L255.359 335.372C255.292 335.196 255.195 335.026 255.065 334.86C254.939 334.691 254.767 334.552 254.548 334.442C254.33 334.333 254.049 334.278 253.708 334.278C253.241 334.278 252.851 334.386 252.54 334.602C252.232 334.814 252.077 335.084 252.077 335.412C252.077 335.704 252.183 335.934 252.396 336.103C252.608 336.272 252.939 336.413 253.39 336.526L254.523 336.804C255.206 336.97 255.715 337.223 256.05 337.565C256.384 337.903 256.552 338.339 256.552 338.872C256.552 339.31 256.426 339.701 256.174 340.045C255.925 340.39 255.577 340.662 255.13 340.861C254.683 341.06 254.162 341.159 253.569 341.159C252.79 341.159 252.145 340.99 251.635 340.652C251.125 340.314 250.801 339.82 250.665 339.17L251.779 338.892C251.885 339.303 252.086 339.611 252.381 339.817C252.679 340.022 253.068 340.125 253.549 340.125C254.096 340.125 254.53 340.009 254.852 339.777C255.176 339.542 255.339 339.26 255.339 338.932C255.339 338.667 255.246 338.445 255.06 338.266C254.875 338.083 254.59 337.947 254.205 337.858L252.933 337.56C252.233 337.394 251.719 337.137 251.391 336.789C251.067 336.438 250.904 335.999 250.904 335.472C250.904 335.041 251.025 334.66 251.267 334.328C251.512 333.997 251.845 333.737 252.266 333.548C252.691 333.359 253.171 333.264 253.708 333.264C254.464 333.264 255.057 333.43 255.488 333.761C255.922 334.093 256.23 334.53 256.413 335.074Z" fill="#475569"/>
<defs>
<filter id="filter0_d_7041_19248" x="193.237" y="46.254" width="135.589" height="118.034" filterUnits="userSpaceOnUse" color-interpolation-filters="sRGB">
<feFlood flood-opacity="0" result="BackgroundImageFix"/>
<feColorMatrix in="SourceAlpha" type="matrix" values="0 0 0 0 0 0 0 0 0 0 0 0 0 0 0 0 0 0 127 0" result="hardAlpha"/>
<feOffset dy="6.34921"/>
<feGaussianBlur stdDeviation="19.0476"/>
<feComposite in2="hardAlpha" operator="out"/>
<feColorMatrix type="matrix" values="0 0 0 0 0.184314 0 0 0 0 0.184314 0 0 0 0 0.192157 0 0 0 0.08 0"/>
<feBlend mode="normal" in2="BackgroundImageFix" result="effect1_dropShadow_7041_19248"/>
<feBlend mode="normal" in="SourceGraphic" in2="effect1_dropShadow_7041_19248" result="shape"/>
</filter>
</defs>
</svg>
